<ttFont>
<head>
    <!-- Most of this table will be recalculated by the compiler -->
    <tableVersion value="1.0"/>
    <fontRevision value="2.004"/>
    <checkSumAdjustment value="0x2b65e2e0"/>
    <magicNumber value="0x5f0f3cf5"/>
    <flags value="00000000 00000011"/>
    <unitsPerEm value="1000"/>
    <created value="Thu Oct  8 09:57:27 2009"/>
    <modified value="Thu Oct  8 09:57:27 2009"/>
    <xMin value="-456"/>
    <yMin value="-292"/>
    <xMax value="1497"/>
    <yMax value="1125"/>
    <macStyle value="00000000 00000000"/>
    <lowestRecPPEM value="3"/>
    <fontDirectionHint value="2"/>
    <indexToLocFormat value="0"/>
    <glyphDataFormat value="0"/>
  </head>
          <CharString index="0">
            759 hmoveto
            33 -17 vlineto
            -63 -10 9 32 -12 hvcurveto
            -234 618 rlineto
            13 -5 -3 9 -17 hhcurveto
            -18 -3 -8 -14 -5 hvcurveto
            -223 -589 rlineto
            -27 -10 -21 -43 -82 hhcurveto
            -33 vlineto
            3 32 53 0 18 hhcurveto
            32 30 0 -3 49 hvcurveto
            33 vlineto
            -44 1 -26 20 29 vvcurveto
            7 0 2 5 12 vhcurveto
            47 125 rlineto
            272 hlineto
            56 -148 rlineto
            5 -12 0 -6 0 vvcurveto
            -30 -52 0 -28 vhcurveto
            -33 vlineto
            142 3 rlineto
            56 18 0 -3 58 hvcurveto
            -268 262 rmoveto
            -247 hlineto
            124 327 rlineto
            return
          </CharString>
          <CharString index="1">
            514 90 rmoveto
            55 -31 -55 vlineto
            -41 -15 -16 -21 -37 0 46 11 vhcurveto
            208 vlineto
            98 -95 50 -91 -83 -74 -32 -66 -30 21 -18 26 28 19 20 27 24 -15 17 -22 5 vhcurveto
            25 37 54 0 7 hhcurveto
            56 56 -39 -82 hvcurveto
            -31 vlineto
            -58 -3 -67 -3 -70 -29 rrcurveto
            -88 -38 -17 -58 -33 vvcurveto
            hintmask 1000000000000000
            -86 101 -26 69 73 45 41 40 22 vhcurveto
            return
          </CharString>
          <CharString index="2">
            84 callsubr
            4 -3 10 -13 -11 -2 -7 -6 -2 vhcurveto
            -97 -36 -86 -3 -18 hhcurveto
            -45 -46 21 46 -30 hvcurveto
            -30 46 0 64 30 vvcurveto
            294 24 callgsubr
            89 -49 106 -141 -124 -97 -103 -124 -129 108 -100 126 127 50 74 callgsubr
            -253 hlineto
            140 9 85 24 37 hhcurveto
            117 4 -141 -23 1 hvcurveto
            return
          </CharString>
          <CharString index="3">
            500 213 rmoveto
            125 -103 108 -132 -132 -103 -108 -125 -125 107 -98 128 129 106 98 125 vhcurveto
            -89 9 rmoveto
            -46 -2 -55 -28 -42 vhcurveto
            -40 -27 -45 -18 -44 hhcurveto
            -54 -42 26 35 -22 hvcurveto
            -25 41 -3 49 50 vvcurveto
            38 0 60 31 43 vhcurveto
            35 26 42 20 47 hhcurveto
            52 43 -25 -35 23 hvcurveto
            27 -42 1 -54 -40 vvcurveto
            return
          </CharString>
          <CharString index="4">
            rmoveto
            24 5 -18 23 -25 hhcurveto
            -6 -10 -2 -9 -11 hvcurveto
            -152 -128 16 -26 176 89 12 6 10 7 3 16 rlinecurve
            endchar
          </CharString>
          <CharString index="5">
            -102 callgsubr
            hintmask 00011000
            return
          </CharString>
          <CharString index="6">
            30 -24 21 -26 -26 -23 -21 -30 -26 20 -23 29 28 22 23 26 vhcurveto
            return
          </CharString>
          <CharString index="7">
            692 260 rmoveto
            -31 hlineto
            -150 -26 -21 -77 -180 hhcurveto
            -149 hlineto
            -46 -2 7 34 hvcurveto
            263 97 vlineto
            99 14 -30 -87 hvcurveto
            31 267 -31 hlineto
            -87 -14 -30 -99 vhcurveto
            -97 236 hlineto
            34 2 7 46 vhcurveto
            142 hlineto
            return
          </CharString>
          <CharString index="8">
            87 -57 89 -102 24 vhcurveto
            -138 32 rlineto
            -64 15 -47 51 61 vvcurveto
            67 58 63 87 173 23 -162 -38 5 vhcurveto
            -11 2 1 -7 13 hhcurveto
            16 0 7 19 131 callsubr
            16 0 10 -13 -8 -2 -3 -11 -7 vhcurveto
            -35 -56 rlineto
            55 -50 -64 15 -55 hhcurveto
            -119 -88 -90 -102 -76 43 -42 19 -19 hvcurveto
            36 -36 33 -8 108 -25 86 -20 15 -3 33 -35 rrcurveto
            10 -11 25 -34 -49 vvcurveto
            -69 -53 -73 -94 -110 -114 53 139 -6 vhcurveto
            16 -1 0 7 -14 65 callgsubr
            -195 77 callgsubr
            8 1 2 10 7 vhcurveto
            4 6 4 9 28 42 rrcurveto
            -56 63 74 -13 60 hhcurveto
            125 84 99 107 hvcurveto
            return
          </CharString>
          <CharString index="9">
            rmoveto
            -28 hlineto
            -86 -3 -68 -46 -62 hhcurveto
            -62 -68 46 86 -3 hvcurveto
            -28 hlineto
            -107 2 76 -69 83 hhcurveto
            83 76 70 106 2 hvcurveto
            return
          </CharString>
          <CharString index="10">
            rmoveto
            17 -13 34 -44 -17 -48 -4 -42 -46 vhcurveto
            18 -25 -39 17 -47 hhcurveto
            -99 -73 -69 -78 -47 26 -35 21 -20 hvcurveto
            -22 -25 -8 -32 -24 vvcurveto
            -41 20 -31 22 -17 vhcurveto
            hintmask 1101000010011100
            -52 -14 -41 -39 -46 vvcurveto
            -72 103 -56 132 125 110 51 79 54 -32 42 -33 17 vhcurveto
            31 -59 -49 0 -98 hhcurveto
            -56 hlineto
            -31 3 -25 27 36 vvcurveto
            24 6 9 7 9 vhcurveto
            -25 42 39 -5 24 hhcurveto
            99 73 69 78 38 -17 32 -24 26 hvcurveto
            14 12 33 21 49 1 rrcurveto
            -4 -3 -5 -5 -16 vvcurveto
            -18 13 -13 18 14 17 9 23 vhcurveto
            -187 -107 rmoveto
            -37 -5 -26 -15 -20 vhcurveto
            -28 -22 -32 -7 -18 hhcurveto
            hintmask 1000110000101000
            -93 0 96 22 37 5 26 15 20 hvcurveto
            23 17 28 12 27 hhcurveto
            93 0 -96 -22 hvcurveto
            113 -370 rmoveto
            -54 -77 -46 -99 vhcurveto
            hintmask 0100000010000100
            -100 -76 46 54 21 16 59 82 hvcurveto
            96 hlineto
            27 131 0 -80 hvcurveto
            return
          </CharString>
          <CharString index="11">
            -20 -97 callgsubr
            hintmask 0001100000000000
            return
          </CharString>
          <CharString index="12">
            vlineto
            37 2 11 77 vhcurveto
            22 33 hlineto
            -147 -3 -147 3 rlineto
            -33 22 vlineto
            -61 callgsubr
            return
          </CharString>
          <CharString index="13">
            343 hmoveto
            33 -24 vlineto
            -79 -3 10 38 hvcurveto
            521 vlineto
            38 3 10 79 vhcurveto
            24 33 hlineto
            -152 -3 -152 3 rlineto
            -33 24 vlineto
            79 3 -10 -38 hvcurveto
            -521 vlineto
            -38 -3 -10 -79 vhcurveto
            -24 -33 hlineto
            152 3 rlineto
            return
          </CharString>
          <CharString index="14">
            383 129 rmoveto
            48 -29 70 -119 22 vhcurveto
            2 -8 -56 10 -4 hhcurveto
            -31 7 -47 21 40 vvcurveto
            30 22 42 95 112 5 -82 -28 2 vhcurveto
            -8 1 7 -3 7 hhcurveto
            16 0 7 19 hvcurveto
            94 vlineto
            16 0 10 -13 -5 -3 0 -16 -16 vhcurveto
            -1 -2 -9 -9 -3 hhcurveto
            0 -3 0 -6 4 vhcurveto
            11 -16 -29 11 -45 hhcurveto
            -140 -31 -76 -48 -50 37 -29 3 -3 hvcurveto
            40 -30 23 -4 67 -12 rrcurveto
            47 -9 77 -14 -68 vvcurveto
            -39 -26 -46 -92 -101 -29 78 53 -13 vhcurveto
            13 -4 -1 5 -12 65 callgsubr
            -124 77 callgsubr
            6 1 1 19 18 vhcurveto
            5 5 11 13 5 5 rrcurveto
            -41 45 47 -2 26 hhcurveto
            127 44 73 66 hvcurveto
            return
          </CharString>
          <CharString index="15">
            -20 -94 callgsubr
            return
          </CharString>
          <CharString index="16">
            -75 callsubr
            43 44 0 27 hhcurveto
            29 42 0 -3 43 hvcurveto
            return
          </CharString>
          <CharString index="17">
            rmoveto
            23 -21 17 -18 -4 -14 0 -16 -13 vhcurveto
            -128 -152 21 -23 157 118 rlineto
            11 8 9 9 16 vvcurveto
            endchar
          </CharString>
          <CharString index="18">
            517 475 rmoveto
            35 -23 32 -33 -37 -18 -28 -28 -28 18 -28 37 vhcurveto
            3 2 1 3 hhcurveto
            -12 -20 -19 -15 -23 -5 rrcurveto
            36 -42 -53 19 -56 hhcurveto
            -62 -60 -25 -44 -44 hvcurveto
            -44 -43 -25 -60 -62 vvcurveto
            -60 26 -56 43 -41 vhcurveto
            -43 45 60 -22 61 hhcurveto
            62 60 22 43 44 hvcurveto
            44 41 25 56 60 vvcurveto
            57 -20 54 -38 43 vhcurveto
            46 10 30 47 52 vvcurveto
            -106 -251 rmoveto
            -52 -2 -54 -31 -42 vhcurveto
            -36 -26 -43 -19 -45 hhcurveto
            -44 -44 19 36 -26 hvcurveto
            -30 42 -2 54 52 vvcurveto
            49 3 52 29 39 vhcurveto
            35 27 43 19 44 hhcurveto
            45 43 -19 -35 26 hvcurveto
            30 -39 3 -52 -49 vvcurveto
            return
          </CharString>
          <CharString index="19">
            1070 650 80 callgsubr
            -32 -34 0 -31 hhcurveto
            -31 -31 76 callsubr
            vlineto
            54 29 -26 -27 -5 0 -2 -5 -13 hvcurveto
            -159 -462 -168 486 rlineto
            -5 13 0 2 3 vvcurveto
            31 52 0 29 vhcurveto
            33 vlineto
            -138 -3 rlineto
            -38 -42 0 3 -45 hvcurveto
            -33 vlineto
            53 16 -2 -16 11 hvcurveto
            9 -13 18 -60 0 vvcurveto
            -4 -12 -149 -432 -168 487 rlineto
            -5 13 0 4 0 vvcurveto
            31 53 0 29 vhcurveto
            33 vlineto
            -139 -3 rlineto
            -38 -42 0 3 -45 hvcurveto
            -33 vlineto
            58 19 0 -38 13 hvcurveto
            210 -610 rlineto
            -14 5 4 -9 16 hhcurveto
            14 6 9 13 4 hvcurveto
            176 511 176 -510 rlineto
            -11 4 4 -12 16 hhcurveto
            16 4 9 14 5 hvcurveto
            200 580 14 42 27 25 59 1 rlinecurve
            return
          </CharString>
          <CharString index="20">
            hstemhm
            41 76 0 76 141 76 76 76 hintmask 1110001110000000
            -84 callgsubr
            hintmask 1110010010000000
            -78 callgsubr
            return
          </CharString>
          <CharString index="21">
            166 21 -60 -134 18 hvcurveto
            31 hlineto
            -29 227 rlineto
            -590 -65 callgsubr
            return
          </CharString>
          <CharString index="22">
            hintmask 01100010
            780 650 80 callgsubr
            -30 -51 0 -19 hhcurveto
            -31 -30 0 3 -49 hvcurveto
            -33 vlineto
            36 -1 15 -17 -19 vvcurveto
            -13 -7 -10 -6 -9 vhcurveto
            -177 -265 -195 291 rlineto
            -5 7 -4 6 7 vvcurveto
            23 43 0 121 callsubr
            -144 -3 rlineto
            -55 -24 76 callsubr
            17 vlineto
            53 20 -6 -30 20 hvcurveto
            hintmask 10000100
            228 -341 rlineto
            -192 vlineto
            -3 callgsubr
            145 -3 rlineto
            33 vlineto
            hintmask 10000010
            -22 hlineto
            hintmask 00100100
            -78 0 12 33 131 callsubr
            208 309 15 22 30 44 85 1 rlinecurve
            return
          </CharString>
          <CharString index="23">
            768 726 rmoveto
            36 -22 32 -34 -37 -18 -28 -27 -28 18 -28 37 vhcurveto
            5 4 1 4 hhcurveto
            -15 -25 -29 -17 -33 -4 rrcurveto
            45 95 callgsubr
            -2 -5 -5 -1 -6 hhcurveto
            hintmask 0001000001000000
            -117 3 rlineto
            -33 vlineto
            26 27 -2 -14 22 hvcurveto
            17 -10 8 -19 -19 vvcurveto
            -358 vlineto
            hintmask 1110000110000000
            -58 -20 -55 -39 -41 vhcurveto
            -39 -38 -52 -23 -55 hhcurveto
            -50 -48 23 39 -32 hvcurveto
            -32 39 -12 52 63 vvcurveto
            386 vlineto
            13 5 13 11 4 vhcurveto
            6 17 39 0 28 hhcurveto
            hintmask 0001000000000000
            33 95 callgsubr
            -146 -3 rlineto
            hintmask 1101000110100000
            -147 3 rlineto
            -33 vlineto
            29 38 0 -6 17 hvcurveto
            12 -4 5 -13 -13 vvcurveto
            -386 vlineto
            -67 29 -63 49 -46 vhcurveto
            -47 51 67 -26 70 hhcurveto
            64 60 27 46 44 hvcurveto
            45 47 24 63 66 vvcurveto
            378 vlineto
            66 7 54 49 64 vvcurveto
            return
          </CharString>
          <CharString index="24">
            -82 callgsubr
            181 vlineto
            return
          </CharString>
          <CharString index="25">
            778 91 rmoveto
            6 0 13 -16 -14 0 -11 -7 -1 vhcurveto
            -63 -5 -35 -22 -28 hhcurveto
            -54 -6 46 127 -18 hvcurveto
            -7 57 -10 69 -110 34 rrcurveto
            78 20 96 57 86 vvcurveto
            99 -127 81 -149 vhcurveto
            -326 47 callgsubr
            return
          </CharString>
          <CharString index="26">
            -20 hstemhm
            59 104 453 92 -30 104 hintmask 01000001
            782 243 80 callgsubr
            -51 -28 0 -57 hhcurveto
            -43 -81 0 3 -39 hvcurveto
            -33 35 vlineto
            hintmask 10100110
            -73 callsubr
            hintmask 10100101
            -7 -1 -1 -13 -9 hvcurveto
            -51 -74 rlineto
            46 -43 -66 42 -90 hhcurveto
            -200 -169 -161 -201 -199 164 -164 208 77 86 23 59 40 hvcurveto
            -28 18 34 -33 10 hhcurveto
            hintmask 00000010
            12 0 11 15 hvcurveto
            172 vlineto
            hintmask 01000001
            40 4 5 70 vhcurveto
            hintmask 00011000
            return
          </CharString>
          <CharString index="27">
            -11 rlineto
            -33 vlineto
            68 8 -7 -49 hvcurveto
            return
          </CharString>
          <CharString index="28">
            vlineto
            -37 -2 -11 -77 vhcurveto
            -22 -33 return
          </CharString>
          <CharString index="29">
            779 hmoveto
            33 vlineto
            -36 -34 0 40 -29 hvcurveto
            -253 343 196 173 66 59 53 1 23 1 rlinecurve
            33 vlineto
            -3 -39 -2 0 -52 hhcurveto
            -51 -3 0 3 -66 hvcurveto
            -33 vlineto
            20 -1 18 -9 -20 vvcurveto
            -8 -3 -13 -19 -17 vhcurveto
            -331 -293 rlineto
            313 -95 callsubr
            -521 -51 callgsubr
            147 3 147 -48 callsubr
            167 vlineto
            129 114 195 -267 rlineto
            10 -13 6 -9 -12 vvcurveto
            -28 -35 0 -18 vhcurveto
            -33 vlineto
            137 3 rlineto
            27 56 0 -3 35 hvcurveto
            return
          </CharString>
          <CharString index="30">
            13 -27 -18 9 -23 hhcurveto
            -39 -20 -21 -59 -54 hvcurveto
            return
          </CharString>
          <CharString index="31">
            -86 callsubr
            604 hlineto
            hintmask 0000000010000000
            return
          </CharString>
          <CharString index="32">
            vlineto
            -81 callgsubr
            return
          </CharString>
          <CharString index="33">
            -37 43 56 -5 29 hhcurveto
            83 20 82 30 hvcurveto
            -234 412 rmoveto
            -111 -80 -36 -105 vhcurveto
            -123 253 hlineto
            26 1 11 24 3 vhcurveto
            1 9 32 0 20 hhcurveto
            90 132 0 -147 hvcurveto
            return
          </CharString>
          <CharString index="34">
            95 3 -12 -37 hvcurveto
            -64 vlineto
            -20 0 -41 -53 -29 vhcurveto
            -28 -50 -56 0 -12 hhcurveto
            -102 -180 62 268 271 183 58 92 100 112 -73 -165 25 hvcurveto
            -10 1 1 -6 14 hhcurveto
            17 0 7 19 hvcurveto
            235 vlineto
            16 0 10 -13 vhcurveto
            return
          </CharString>
          <CharString index="35">
            168 rmoveto
            63 -34 42 -16 17 vhcurveto
            -17 16 -1 1 -86 54 rrcurveto
            hintmask 01011000
            56 27 68 50 78 vvcurveto
            95 -97 54 -93 -106 -86 -73 -94 -37 13 -34 25 -29 vhcurveto
            17 -21 4 -2 62 -39 rrcurveto
            hintmask 10100100
            -124 -55 -27 -73 -56 vvcurveto
            -110 111 -63 109 123 99 83 106 vhcurveto
            -80 348 rmoveto
            -58 -45 -49 -59 -29 vhcurveto
            -125 75 rlineto
            hintmask 11011000
            -29 17 -24 29 35 vvcurveto
            63 69 40 71 78 64 -53 -70 vhcurveto
            23 -382 rmoveto
            -77 -81 -48 -82 vhcurveto
            hintmask 00100100
            -89 -76 61 82 75 56 59 69 32 hvcurveto
            135 -83 rlineto
            16 -9 52 -32 -60 vvcurveto
            endchar
          </CharString>
          <CharString index="36">
            vlineto
            -67 callsubr
            return
          </CharString>
          <CharString index="37">
            rmoveto
            25 -24 14 -17 -24 -9 -21 -11 -4 vhcurveto
            -56 -141 26 -16 94 120 rlineto
            8 11 6 7 12 vvcurveto
            177 hmoveto
            25 -24 14 -17 -24 -9 -21 -11 -4 vhcurveto
            -56 -141 26 -16 94 120 rlineto
            8 11 6 7 12 vvcurveto
            endchar
          </CharString>
          <CharString index="38">
            hstemhm
            40 76 0 76 94 111 -64 76 77 76 -66 111 hintmask 0000010000000100
            -6 callsubr
            hintmask 0001000000001000
            5 1 -16 -20 -26 -13 -29 -6 rlinecurve
            hintmask 0000100000001000
            49 vlineto
            hintmask 0000010000010000
            -153 -11 rlineto
            hintmask 0000100000010000
            -33 vlineto
            hintmask 0001000000100000
            22 29 0 -9 13 hvcurveto
            hintmask 0010000000010000
            12 -9 0 -18 -16 vvcurveto
            -187 vlineto
            hintmask 0100100001100000
            -10 callgsubr
            hintmask 0000010010000000
            -152 -11 rlineto
            hintmask 1010100010001000
            -59 callsubr
            hintmask 0000010000000100
            66 12 55 42 63 vvcurveto
            return
          </CharString>
          <CharString index="39">
            -102 callsubr
            181 return
          </CharString>
          <CharString index="40">
            -81 callgsubr
            39 56 0 17 hhcurveto
            20 54 0 -3 39 hvcurveto
            return
          </CharString>
          <CharString index="41">
            rmoveto
            -152 128 rlineto
            9 -11 -10 2 -6 hhcurveto
            -25 -18 -23 -24 5 hvcurveto
            3 -16 10 -7 12 -6 176 -89 rcurveline
            endchar
          </CharString>
          <CharString index="42">
            -96 callsubr
            -135 return
          </CharString>
          <CharString index="43">
            33 vlineto
            -64 -12 0 45 hvcurveto
            return
          </CharString>
          <CharString index="44">
            -45 -12 0 -64 vhcurveto
            -33 return
          </CharString>
          <CharString index="45">
            rmoveto
            -152 162 -152 -162 13 -14 139 108 139 -108 rlineto
            return
          </CharString>
          <CharString index="46">
            rmoveto
            -128 152 rlineto
            16 -13 -14 0 -4 hhcurveto
            -18 -21 -17 -23 -16 9 -9 11 -8 hvcurveto
            157 -118 rlineto
            endchar
          </CharString>
          <CharString index="47">
            595 269 rmoveto
            -31 hlineto
            -139 -8 -22 -94 -189 hhcurveto
            -177 hlineto
            413 608 rlineto
            8 12 0 4 5 vvcurveto
            18 -10 0 -18 vhcurveto
            -475 hlineto
            -12 -227 rlineto
            31 hlineto
            148 8 69 46 132 hhcurveto
            167 hlineto
            -414 -609 rlineto
            -8 -12 0 -5 -5 vvcurveto
            -19 9 0 19 vhcurveto
            490 hlineto
            return
          </CharString>
          <CharString index="48">
            -33 vlineto
            22 28 0 -9 13 hvcurveto
            13 -10 0 -20 -17 vvcurveto
            -220 vlineto
            -40 13 -37 29 -23 vhcurveto
            -25 33 40 -6 52 hhcurveto
            57 47 34 50 26 hvcurveto
            -84 vlineto
            149 10 rlineto
            33 vlineto
            -22 -29 0 9 -12 hvcurveto
            -13 9 0 20 18 vvcurveto
            267 vlineto
            return
          </CharString>
          <CharString index="49">
            766 339 rmoveto
            96 -39 110 -93 78 vhcurveto
            71 100 -25 18 -70 -98 rlineto
            55 -87 -70 6 -40 hhcurveto
            -197 -157 -165 -200 -70 21 -119 111 -91 hvcurveto
            -70 -99 24 -18 70 98 rlineto
            -29 42 70 -32 85 hhcurveto
            194 160 158 202 hvcurveto
            -182 269 rmoveto
            -365 -510 rlineto
            -40 50 -28 68 123 vvcurveto
            50 3 116 66 80 vhcurveto
            69 58 74 22 60 hhcurveto
            68 59 -27 -41 45 hvcurveto
            90 -269 rmoveto
            -42 -1 -100 -51 -78 vhcurveto
            -81 -54 -85 -31 -70 hhcurveto
            -74 -62 32 36 -36 hvcurveto
            364 509 rlineto
            45 -55 24 -77 -113 vvcurveto
            return
          </CharString>
          <CharString index="50">
            rmoveto
            -101 callsubr
            181 hmoveto
            -101 callsubr
            endchar
          </CharString>
          <CharString index="51">
            rmoveto
            -10 16 -140 -66 -140 66 -12 -16 151 -117 rlineto
            endchar
          </CharString>
          <CharString index="52">
            923 33 callsubr
            -169 hlineto
            -27 -2 -3 -18 -7 hvcurveto
            -232 -567 -232 565 rlineto
            20 -8 -1 3 -28 hhcurveto
            -168 -53 callsubr
            -495 vlineto
            -26 0 -48 -101 80 callsubr
            45 47 0 26 hhcurveto
            26 47 0 -3 45 hvcurveto
            33 vlineto
            -101 0 48 26 hvcurveto
            531 vlineto
            1 1 252 -615 rlineto
            -13 6 4 -11 14 hhcurveto
            13 5 12 12 5 hvcurveto
            255 623 1 -1 rlineto
            -565 -51 callgsubr
            142 3 rlineto
            return
          </CharString>
          <CharString index="53">
            rmoveto
            -13 14 -139 -108 -139 108 -13 -14 152 -162 rlineto
            endchar
          </CharString>
          <CharString index="54">
            -33 22 hlineto
            -61 callgsubr
            return
          </CharString>
          <CharString index="55">
            33 -22 vlineto
            -77 -2 11 37 hvcurveto
            return
          </CharString>
          <CharString index="56">
            -73 callgsubr
            endchar
          </CharString>
          <CharString index="57">
            562 -33 callgsubr
            84 -38 54 -105 return
          </CharString>
          <CharString index="58">
            -27 -9 -11 -6 -6 vhcurveto
            98 36 46 44 42 vhcurveto
            5 5 0 5 0 vvcurveto
            9 -9 6 -5 -14 -85 -79 -118 -59 24 -49 47 return
          </CharString>
          <CharString index="59">
            -3 rlineto
            -52 callsubr
            return
          </CharString>
          <CharString index="60">
            203 rmoveto
            131 -99 92 -111 -72 -43 -46 -49 -23 vhcurveto
            83 7 73 36 61 vhcurveto
            50 30 51 41 63 hhcurveto
            20 46 -3 -35 23 hvcurveto
            -45 -2 -4 -34 -11 vvcurveto
            -30 23 -17 24 18 29 11 38 60 -45 49 -90 -139 -141 -132 -216 -271 126 -67 97 vhcurveto
            return
          </CharString>
          <CharString index="61">
            1077 -21 28 -7 33 305 33 279 33 -7 28 hstemhm
            73 101 371 80 235 31 95 31 -2 31 hintmask 0111001101000000
            1046 260 rmoveto
            -31 hlineto
            -151 -26 -18 -76 -174 hhcurveto
            -124 hlineto
            -46 -2 7 34 hvcurveto
            264 115 vlineto
            101 19 -27 -90 hvcurveto
            31 267 -31 hlineto
            -90 -18 -27 -102 vhcurveto
            -115 238 hlineto
            34 2 7 46 vhcurveto
            123 hlineto
            hintmask 0001000010000000
            156 17 -64 -130 17 hvcurveto
            31 hlineto
            -29 227 rlineto
            -400 hlineto
            -15 -16 0 11 -56 hvcurveto
            hintmask 1000110000000000
            10 -46 -18 0 -12 hhcurveto
            -189 -163 -161 -204 -206 166 -154 186 13 17 0 10 51 hvcurveto
            hintmask 0100000001000000
            11 51 16 0 15 hhcurveto
            414 hlineto
            -457 190 rmoveto
            hintmask 1000111000000000
            -150 -28 -33 -88 -141 -114 154 193 184 116 138 139 88 28 -32 -151 vhcurveto
            endchar
          </CharString>
          <CharString index="62">
            rrcurveto
            -41 44 -53 65 50 57 37 58 12 vhcurveto
            3 19 -26 10 -5 -17 -11 -37 -30 -18 -30 1 return
          </CharString>
          <CharString index="63">
            751 335 rmoveto
            193 -146 155 -179 vhcurveto
            -380 47 callgsubr
            -37 -2 -11 -77 vhcurveto
            -22 -33 380 hlineto
            180 145 150 185 hvcurveto
            -101 1 rmoveto
            -51 0 -98 -63 -74 vhcurveto
            -41 -35 -64 -39 -89 hhcurveto
            -115 hlineto
            return
          </CharString>
          <CharString index="64">
            rmoveto
            41 -15 39 -36 -25 -16 -19 -22 return
          </CharString>
          <CharString index="65">
            531 -10 28 -18 32 -32 33 0 33 332 33 -28 28 245 28 hstemhm
            111 73 31 75 100 81 -52 81 hintmask 0000011101000000
            500 175 rmoveto
            93 -53 103 -106 44 vhcurveto
            97 34 33 63 48 vvcurveto
            78 -79 66 -103 -83 -95 -50 -100 vhcurveto
            -123 -76 vlineto
            hintmask 0010101101000000
            -33 76 -320 -75 callsubr
            39 17 0 36 hhcurveto
            35 8 0 -3 14 hvcurveto
            555 vlineto
            113 86 8 19 44 57 -30 -85 -63 -38 -60 -90 -7 vhcurveto
            -11 -1 -8 0 -13 vvcurveto
            hintmask 1000010000100000
            -13 9 -1 6 vhcurveto
            103 -8 58 -99 -122 vvcurveto
            -128 -70 -28 -37 vhcurveto
            hintmask 0101000010000000
            -5 -21 0 14 -19 hvcurveto
            0 23 9 27 vvcurveto
            23 -18 14 -19 -19 -19 -12 -27 vhcurveto
            hintmask 1000000000100000
            -40 39 -36 60 94 92 73 112 vhcurveto
            endchar
          </CharString>
          <CharString index="66">
            19 callsubr
            54 0 17 hhcurveto
            20 52 72 callsubr
            97 vlineto
            68 54 rlineto
            3 26 -35 -19 16 hvcurveto
            15 -21 16 -20 16 -20 rrcurveto
            14 -20 21 -26 -15 vvcurveto
            -17 -19 -3 -12 103 callsubr
            45 0 17 hhcurveto
            38 20 0 -3 35 hvcurveto
            return
          </CharString>
          <CharString index="67">
            -37 callgsubr
            -20 return
          </CharString>
          <CharString index="68">
            -27 -4 -101 -69 -15 -22 4 5 -13 vhcurveto
            6 2 21 13 28 vvcurveto
            27 -19 20 -28 -25 -22 -17 -31 -51 56 -28 62 return
          </CharString>
          <CharString index="69">
            260 hmoveto
            33 vlineto
            -65 -4 5 39 hvcurveto
            364 vlineto
            return
          </CharString>
          <CharString index="70">
            -106 -55 -68 -51 -18 -71 9 164 165 70 9 19 52 54 -70 -103 vhcurveto
            return
          </CharString>
          <CharString index="71">
            767 0 68 608 23 hstem
            59 104 440 104 vstem
            719 165 rmoveto
            -31 hlineto
            -2 -10 -11 -51 -7 -17 rrcurveto
            -11 -5 -3 -8 -59 hhcurveto
            -81 hlineto
            17 59 30 43 45 64 rrcurveto
            44 62 51 72 86 vvcurveto
            136 -140 114 -184 -184 -140 -114 -136 -87 48 -68 55 -78 vhcurveto
            37 -51 30 -44 17 -58 rrcurveto
            -81 hlineto
            -59 -3 8 11 -5 hvcurveto
            -7 17 -11 51 -2 10 rrcurveto
            -31 hlineto
            35 -165 rlineto
            171 hlineto
            21 7 0 22 73 -35 85 -26 62 hvcurveto
            -28 68 -29 72 72 vvcurveto
            149 113 73 107 107 113 -74 -148 -71 -28 -69 -25 -62 vhcurveto
            -30 -73 -35 -84 -72 vvcurveto
            -23 6 0 23 vhcurveto
            170 hlineto
            endchar
          </CharString>
          <CharString index="72">
            3 -1 3 -2 2 vhcurveto
            -66 63 -50 77 -30 85 rrcurveto
            5 -2 -5 3 -5 hhcurveto
            -4 hlineto
            -6 -6 -5 -7 -1 0 -1 1 -1 hvcurveto
            19 -80 34 -77 45 -69 -45 -70 -34 -77 -19 -80 rrcurveto
            -1 -1 0 -1 -1 vvcurveto
            -7 6 -5 6 vhcurveto
            4 hlineto
            5 5 3 5 2 hvcurveto
            30 85 50 77 66 63 rrcurveto
            2 2 1 3 4 vvcurveto
            return
          </CharString>
          <CharString index="73">
            -80 callsubr
            -263 -75 callsubr
            return
          </CharString>
          <CharString index="74">
            752 0 33 308 28 281 33 hstemhm
            48 101 0 85 256 101 -26 97 -71 101 hintmask 00000100
            692 183 rmoveto
            81 -77 79 -125 14 vhcurveto
            hintmask 10110010
            109 23 63 66 68 vvcurveto
            89 -100 80 -134 vhcurveto
            -380 47 callgsubr
            -37 -2 -11 -77 vhcurveto
            -22 -33 408 hlineto
            hintmask 01101001
            138 98 88 95 hvcurveto
            -127 331 rmoveto
            -68 -60 -77 -114 vhcurveto
            -157 240 hlineto
            34 2 7 46 vhcurveto
            139 hlineto
            hintmask 11001010
            99 45 -77 -59 hvcurveto
            26 -330 rmoveto
            -81 -67 -70 -102 vhcurveto
            -140 hlineto
            -46 -2 7 34 hvcurveto
            267 203 vlineto
            hintmask 00000001
            97 57 -78 -79 hvcurveto
            endchar
          </CharString>
          <CharString index="75">
            -20 hstemhm
            -36 94 23 73 0 2 callgsubr
            hintmask 10001100
            -15 callsubr
            hintmask 00110000
            return
          </CharString>
          <CharString index="76">
            -40 -28 -46 -24 -47 hhcurveto
            -46 -40 24 37 -24 hvcurveto
            -27 39 -5 49 47 vvcurveto
            58 9 41 23 35 vhcurveto
            37 24 45 28 51 hhcurveto
            48 48 -24 -52 30 hvcurveto
            return
          </CharString>
          <CharString index="77">
            -23 rmoveto
            83 -66 76 -102 22 vhcurveto
            79 28 59 68 80 vvcurveto
            hintmask 0000101010001000
            80 -90 57 -104 -107 -81 -58 -76 -37 25 -16 26 31 20 22 29 37 -32 14 -22 1 vhcurveto
            55 42 77 3 18 hhcurveto
            hintmask 0001010001001010
            26 76 -8 -103 -70 -29 -42 -14 -16 hvcurveto
            -30 -31 -23 -2 -61 -4 rrcurveto
            -19 -1 -8 -1 -13 vvcurveto
            -14 9 0 17 vhcurveto
            50 hlineto
            79 50 -58 -105 hvcurveto
            hintmask 1000000000010000
            -125 -71 -37 -53 vhcurveto
            hintmask 0010000001000000
            -55 -75 20 53 -35 hvcurveto
            hintmask 0000000100000000
            36 25 23 33 hvcurveto
            hintmask 0010000000100000
            32 -23 23 -32 vhcurveto
            hintmask 0100000100000010
            -27 -28 -17 -40 -95 102 -62 114 133 93 92 100 hvcurveto
            endchar
          </CharString>
          <CharString index="78">
            3 vlineto
            -20 80 -33 77 -46 70 46 69 33 77 20 80 rrcurveto
            3 vlineto
            7 -5 5 -7 vhcurveto
            -4 hlineto
            -5 -5 -3 -5 -1 hvcurveto
            -31 -85 -50 -77 -65 -63 rrcurveto
            -3 -2 -1 -3 -3 vvcurveto
            -4 1 -3 3 -2 vhcurveto
            65 -63 50 -77 31 -85 rrcurveto
            -5 1 5 -3 5 hhcurveto
            4 hlineto
            7 5 5 7 hvcurveto
            return
          </CharString>
          <CharString index="79">
            811 0 33 48 32 213 32 292 87 callsubr
            hintmask 11111010
            751 335 rmoveto
            193 -146 155 -179 vhcurveto
            -380 -53 callsubr
            -244 -101 -32 101 -245 -79 callsubr
            380 hlineto
            180 145 150 185 hvcurveto
            -101 1 rmoveto
            -51 0 -98 -63 -74 vhcurveto
            -41 -35 -64 -39 -89 hhcurveto
            -115 hlineto
            hintmask 00110110
            -46 -2 7 34 hvcurveto
            252 170 32 -170 251 58 callgsubr
          </CharString>
          <CharString index="80">
            295 0 33 0 44 320 33 -33 44 return
          </CharString>
          <CharString index="81">
            723 0 33 -30 30 279 30 308 33 hstemhm
            147 89 0 104 -56 104 171 104 hintmask 01011000
            663 496 rmoveto
            98 -106 89 -144 vhcurveto
            -367 47 callgsubr
            -37 -2 -11 -77 vhcurveto
            -22 hlineto
            hintmask 10000000
            -33 vlineto
            hintmask 01000000
            147 3 rlineto
            hintmask 10100101
            147 -48 callsubr
            231 182 vlineto
            123 119 79 105 hvcurveto
            -104 hmoveto
            hintmask 00111011
            -44 0 -110 -171 vhcurveto
            -152 267 hlineto
            34 2 7 46 vhcurveto
            104 hlineto
            171 0 -109 -45 hvcurveto
            endchar
          </CharString>
          <CharString index="82">
            -387 -5 callsubr
            return
          </CharString>
          <CharString index="83">
            723 0 -1 callgsubr
            return
          </CharString>
          <CharString index="84">
            329 rmoveto
            260 -115 76 -103 -118 -106 -92 -131 -129 97 -94 113 71 43 45 51 24 vhcurveto
            -20 vlineto
            -244 -116 -42 -58 -21 -52 3 31 -27 vhcurveto
            hintmask 11100101
            44 4 3 33 10 vvcurveto
            30 -23 17 -24 -18 -29 -11 -38 -68 56 -41 92 137 130 136 214 vhcurveto
            -96 92 rmoveto
            -79 -43 -95 -89 -46 -29 21 37 -22 vhcurveto
            hintmask 00001000
            -23 37 0 48 51 vvcurveto
            hintmask 00010110
            59 0 42 27 41 vhcurveto
            36 25 32 20 47 hhcurveto
            67 29 -66 -5 3 hvcurveto
            21 -49 1 -78 -20 vvcurveto
            endchar
          </CharString>
          <CharString index="85">
            -149 -80 callsubr
            -211 vlineto
            38 -35 -47 20 -52 hhcurveto
            -125 -111 -97 -129 -123 100 -102 126 59 49 28 35 33 hvcurveto
            -63 vlineto
            return
          </CharString>
          <CharString index="86">
            542 hmoveto
            33 vlineto
            -42 -18 4 47 -36 hvcurveto
            -145 188 85 68 66 52 42 5 25 1 rlinecurve
            33 vlineto
            -3 -24 -14 0 -41 hhcurveto
            -49 -14 1 2 -44 hvcurveto
            -33 vlineto
            19 -1 4 -13 -6 vvcurveto
            -21 -20 -17 -8 -6 vhcurveto
            -144 -116 rlineto
            476 vlineto
            return
          </CharString>
          <CharString index="87">
            73 hintmask 01010001
            -38 callsubr
            return
          </CharString>
          <CharString index="88">
            531 -205 29 180 65 42 65 -29 29 201 29 6 29 return
          </CharString>
          <CharString index="89">
            -20 hstemhm
            109 94 callgsubr
            hintmask 10011000
            -6 callgsubr
            hintmask 01100000
            return
          </CharString>
          <CharString index="90">
            -6 -4 -10 -8 -23 vvcurveto
            -31 24 -14 20 24 21 16 29 vhcurveto
            return
          </CharString>
          <CharString index="91">
            179 rmoveto
            -31 hlineto
            -3 -20 -8 -50 -12 -19 rrcurveto
            -8 -6 -76 0 -16 hhcurveto
            -178 hlineto
            135 122 16 15 42 33 16 14 rlinecurve
            62 57 59 55 91 vvcurveto
            119 -100 77 -125 vhcurveto
            hintmask 01010000
            -120 -79 -91 -89 -49 39 -7 14 21 31 15 38 hvcurveto
            hintmask 01101010
            52 -50 0 -12 vhcurveto
            73 29 67 25 49 hhcurveto
            93 48 -79 -84 -104 -73 -76 -118 -121 hvcurveto
            -126 -130 rlineto
            hintmask 10010010
            -12 -11 0 -2 -25 vvcurveto
            395 hlineto
            endchar
          </CharString>
          <CharString index="92">
            -39 callsubr
            vhcurveto
            hintmask 00000010
            80 65 64 94 hvcurveto
            return
          </CharString>
          <CharString index="93">
            -46 -26 -35 -18 -44 hhcurveto
            -53 -33 37 28 -15 hvcurveto
            -23 45 -2 68 38 vvcurveto
            99 54 74 77 50 30 -26 -35 19 vhcurveto
            21 -37 0 -45 -51 vvcurveto
            endchar
          </CharString>
          <CharString index="94">
            -46 rmoveto
            487 vlineto
            -157 -11 rlineto
            -33 vlineto
            75 9 -7 -49 hvcurveto
            -389 vlineto
            return
          </CharString>
          <CharString index="95">
            -38 callsubr
            hintmask 01100100
            -146 -11 rlineto
            -33 vlineto
            64 9 -6 -49 hvcurveto
            -264 vlineto
            -45 -12 0 -64 vhcurveto
            hintmask 10000000
            -33 vlineto
            3 39 56 0 15 hhcurveto
            13 60 0 -3 35 hvcurveto
            return
          </CharString>
          <CharString index="96">
            105 callgsubr
            218 19 callgsubr
            return
          </CharString>
          <CharString index="97">
            vlineto
            34 2 7 46 vhcurveto
            115 hlineto
            78 65 -32 -50 44 hvcurveto
            64 -76 0 -107 -49 vvcurveto
            return
          </CharString>
          <CharString index="98">
            2 9 29 0 19 hhcurveto
            153 23 -25 -169 14 hvcurveto
            return
          </CharString>
          <CharString index="99">
            -20 hstemhm
            59 104 432 111 -45 104 hintmask 00000001
            -5 callgsubr
            return
          </CharString>
          <CharString index="100">
            -158 612 rmoveto
            -101 callsubr
            181 hmoveto
            -101 callsubr
            return
          </CharString>
          <CharString index="101">
            607 473 rmoveto
            35 -22 34 -33 -37 -19 -28 -28 -28 19 -28 37 vhcurveto
            return
          </CharString>
          <CharString index="102">
            133 rmoveto
            -101 callsubr
            215 hmoveto
            -101 callsubr
            return
          </CharString>
          <CharString index="103">
            -79 callsubr
            546 hlineto
            return
          </CharString>
          <CharString index="104">
            hstemhm
            34 82 218 76 73 31 return
          </CharString>
          <CharString index="105">
            vlineto
            40 46 -2 -34 -37 -102 0 -78 hvcurveto
            -16 -32 32 hlineto
            113 139 0 69 return
          </CharString>
          <CharString index="106">
            -34 24 47 -38 68 hhcurveto
            127 110 98 128 hvcurveto
            -89 1 rmoveto
            -23 0 -71 -36 -47 vhcurveto
            -45 -36 -47 -13 -33 hhcurveto
            -48 -40 25 39 -26 hvcurveto
            -12 19 0 1 19 vvcurveto
            195 vlineto
            19 0 2 15 18 vhcurveto
            37 29 47 21 45 hhcurveto
            52 39 -31 -30 20 hvcurveto
            17 -27 14 -35 -73 vvcurveto
            endchar
          </CharString>
          <CharString index="107">
            hmoveto
            33 vlineto
            hintmask 01111100
            -51 -1 rlineto
            -38 -1 -44 6 47 vvcurveto
            353 vlineto
            15 -1 19 -19 -14 -13 -12 -7 -16 vhcurveto
            -21 -49 -54 -3 -52 hhcurveto
            -33 vlineto
            46 50 1 17 42 hvcurveto
            -329 vlineto
            -45 -44 -8 -39 1 vhcurveto
            hintmask 10001000
            -50 1 rlineto
            -33 vlineto
            hintmask 01000000
            172 4 rlineto
            hintmask 10000000
            endchar
          </CharString>
          <CharString index="108">
            164 rmoveto
            33 -106 450 vlineto
            20 0 8 -21 -13 -1 -1 -14 -10 vhcurveto
            -319 -463 rlineto
            -33 282 -83 vlineto
            -37 -3 -11 -77 vhcurveto
            -23 -33 hlineto
            144 3 144 -3 rlineto
            33 -23 vlineto
            -77 -3 11 37 hvcurveto
            83 vlineto
            -75 33 rmoveto
            -254 hlineto
            254 369 rlineto
            endchar
          </CharString>
          <CharString index="109">
            rmoveto
            -29 callgsubr
            return
          </CharString>
          <CharString index="110">
            hstemhm
            30 59 -25 59 -59 79 86 79 20 79 34 59 return
          </CharString>
          <CharString index="111">
            hmoveto
            -64 callsubr
            365 vlineto
            -131 -9 -11 -1 -5 0 -2 -1 rlinecurve
            -1 -2 -2 0 -14 hhcurveto
            -130 109 hlineto
            99 93 37 62 30 30 -7 -19 25 vhcurveto
            0 -41 -8 -41 vvcurveto
            -32 26 -16 22 14 34 9 41 53 -52 48 -85 return
          </CharString>
          <CharString index="112">
            322 305 rmoveto
            20 -25 vlineto
            -69 -2 7 23 hvcurveto
            333 vlineto
            16 -1 0 -20 vhcurveto
            -24 -29 -38 -14 -69 hhcurveto
            -20 vlineto
            20 38 0 16 42 hvcurveto
            -307 vlineto
            -23 -2 -7 -68 vhcurveto
            -26 -20 hlineto
            2 30 62 0 32 hhcurveto
            33 62 0 -2 30 hvcurveto
            return
          </CharString>
          <CharString index="113">
            hmoveto
            33 -35 vlineto
            -95 -3 12 37 hvcurveto
            555 vlineto
            27 -2 1 -27 vhcurveto
            -40 -41 -53 -24 -95 hhcurveto
            -33 vlineto
            27 54 0 27 58 hvcurveto
            -513 vlineto
            -37 -3 -12 -95 vhcurveto
            -35 -33 hlineto
            3 41 86 0 45 hhcurveto
            45 87 0 -3 41 hvcurveto
            endchar
          </CharString>
          <CharString index="114">
            -86 101 -26 69 73 45 41 40 22 vhcurveto
            3 -22 10 -22 16 -14 -37 -28 -49 -57 98 callsubr
            -180 260 rmoveto
            -64 callgsubr
            return
          </CharString>
          <CharString index="115">
            hstemhm
            145 92 return
          </CharString>
          <CharString index="116">
            hstemhm
            147 89 136 104 68 104 100 30 return
          </CharString>
          <CharString index="117">
            472 -200 32 73 32 hstem
            204 64 22 88 vstem
            378 -131 rmoveto
            47 -55 21 -55 vhcurveto
            68 -64 -100 -2 callsubr
            hvcurveto
            endchar
          </CharString>
          <CharString index="118">
            rmoveto
            23 -24 0 -15 vhcurveto
            -629 hlineto
            -15 -24 0 -23 -23 20 0 15 hvcurveto
            637 hlineto
            15 20 0 23 hvcurveto
            return
          </CharString>
          <CharString index="119">
            782 -21 37 callsubr
            return
          </CharString>
          <CharString index="120">
            8 15 9 13 12 12 rrcurveto
            192 3 157 157 200 vvcurveto
            -104 15 rmoveto
            -254 -144 -88 -105 -109 -141 91 251 239 146 80 103 108 142 -84 -235 vhcurveto
            return
          </CharString>
          <CharString index="121">
            115 -62 87 -77 -21 callgsubr
            vhcurveto
            -344 hmoveto
            115 -62 87 -77 -21 callgsubr
            vhcurveto
            return
          </CharString>
          <CharString index="122">
            3 -1 7 0 0 vvcurveto
            28 22 18 31 37 -29 13 -20 -18 -32 -10 -43 -90 78 -91 115 hvcurveto
            return
          </CharString>
          <CharString index="123">
            90 -273 hlineto
            -117 90 -18 46 vhcurveto
            return
          </CharString>
          <CharString index="124">
            55 callgsubr
            548 33 36 33 return
          </CharString>
          <CharString index="125">
            515 401 rmoveto
            17 -13 34 -44 -17 -48 -4 -42 -46 vhcurveto
            18 -25 -39 17 -47 hhcurveto
            -99 -73 -69 -78 -47 26 -35 21 -20 hvcurveto
            -22 -25 -8 -32 -24 vvcurveto
            -41 20 -31 22 -17 vhcurveto
            return
          </CharString>
          <CharString index="126">
            23 callsubr
            39 return
          </CharString>
          <CharString index="127">
            796 -21 33 602 30 6 30 -30 33 return
          </CharString>
          <CharString index="128">
            hvcurveto
            -18 -9 -5 -17 -13 vvcurveto
            -26 19 -19 26 27 18 19 26 vhcurveto
            return
          </CharString>
          <CharString index="129">
            291 444 120 callsubr
            -31 -25 -25 -31 -30 25 -25 30 33 23 27 28 vhcurveto
            151 -514 rmoveto
            40 -31 9 -16 -23 -24 -16 -31 -33 26 -14 22 -1 vhcurveto
            return
          </CharString>
          <CharString index="130">
            -149 -80 callsubr
            -516 -75 callsubr
            return
          </CharString>
          <CharString index="131">
            -20 -10 -20 -11 -17 -14 -54 -44 rcurveline
            hintmask 10010000
            14 -17 rlineto
            41 49 53 30 51 hhcurveto
            40 29 -17 -20 35 hvcurveto
            -17 29 31 -17 40 hhcurveto
            hintmask 01000000
            25 26 8 10 22 hvcurveto
            return
          </CharString>
          <CharString index="132">
            48 52 13 43 45 hvcurveto
            40 39 34 42 87 vvcurveto
            -94 1 rmoveto
            return
          </CharString>
          <CharString index="133">
            414 60 callgsubr
            -33 44 return
          </CharString>
          <CharString index="134">
            28 43 28 108 105 callgsubr
            return
          </CharString>
          <CharString index="135">
            hstemhm
            43 callgsubr
            return
          </CharString>
          <CharString index="136">
            590 -21 33 470 30 162 30 return
          </CharString>
          <CharString index="137">
            vvcurveto
            107 32 113 93 61 55 -31 -48 22 vhcurveto
            -5 hlineto
            13 callgsubr
            91 -84 67 -96 -121 -80 -121 -131 return
          </CharString>
          <CharString index="138">
            rmoveto
            38 -204 -38 vlineto
            127 -50 0 127 hhcurveto
            endchar
          </CharString>
          <CharString index="139">
            hstemhm
            40 callgsubr
            return
          </CharString>
          <CharString index="140">
            hmoveto
            -52 callsubr
            521 vlineto
            37 2 11 77 vhcurveto
            22 33 return
          </CharString>
          <CharString index="141">
            33 231 33 395 33 return
          </CharString>
          <CharString index="142">
            99 callgsubr
            -67 3 -21 49 24 48 13 27 21 22 27 15 rrcurveto
            20 50 0 -3 31 hvcurveto
            33 vlineto
            return
          </CharString>
          <CharString index="143">
            554 58 callsubr
            605 vlineto
            return
          </CharString>
          <CharString index="144">
            28 -7 33 295 28 294 33 return
          </CharString>
          <CharString index="145">
            93 451 -98 callsubr
            return
          </CharString>
          <CharString index="146">
            vhcurveto
            -55 vlineto
            -35 0 -14 -94 vhcurveto
            -32 -33 hlineto
            3 45 75 0 48 hhcurveto
            48 76 26 callgsubr
            return
          </CharString>
          <CharString index="147">
            rmoveto
            -14 17 rlineto
            -41 -49 -53 -30 -51 hhcurveto
            -40 -29 17 20 -35 hvcurveto
            17 -29 -31 17 -40 hhcurveto
            hintmask 00100000
            -25 -26 -8 -10 -22 hvcurveto
            return
          </CharString>
          <CharString index="148">
            hstemhm
            54 callgsubr
            return
          </CharString>
          <CharString index="149">
            60 callsubr
            hstemhm
            return
          </CharString>
          <CharString index="150">
            0 33 617 33 return
          </CharString>
          <CharString index="151">
            rmoveto
            65 -282 -65 vlineto
            endchar
          </CharString>
          <CharString index="152">
            123 callsubr
            453 92 -30 104 return
          </CharString>
          <CharString index="153">
            4 callgsubr
            617 33 return
          </CharString>
          <CharString index="154">
            33 -33 44 hstemhm
            35 89 205 73 3 73 return
          </CharString>
          <CharString index="155">
            55 callgsubr
            584 33 0 33 return
          </CharString>
          <CharString index="156">
            9 7 7 9 9 -7 7 -9 hvcurveto
            return
          </CharString>
          <CharString index="157">
            vvcurveto
            30 vlineto
            11 -3 5 -12 -16 0 -6 -20 vhcurveto
            -31 vlineto
            -94 -47 -72 -61 -49 vhcurveto
            -17 -14 -36 -28 -63 vvcurveto
            return
          </CharString>
          <CharString index="158">
            -45 callsubr
            -96 5 return
          </CharString>
          <CharString index="159">
            hlineto
            78 273 rlineto
            3 9 1 7 3 vvcurveto
            104 callsubr
            -17 -3 -12 -13 -4 vhcurveto
            -83 -290 rlineto
            return
          </CharString>
          <CharString index="160">
            8 callsubr
            70 110 30 31 154 31 -2 31 return
          </CharString>
          <CharString index="161">
            vvcurveto
            -13 10 -10 13 return
          </CharString>
          <CharString index="162">
            57 callgsubr
            hstemhm
            337 92 return
          </CharString>
          <CharString index="163">
            55 callgsubr
            306 33 278 33 return
          </CharString>
          <CharString index="164">
            vstem
            560 224 rmoveto
            90 -72 58 -74 -90 -58 -72 -74 -90 72 -58 74 90 58 72 74 vhcurveto
            return
          </CharString>
          <CharString index="165">
            hmoveto
            33 vlineto
            -68 -8 7 49 hvcurveto
            return
          </CharString>
          <CharString index="166">
            649 0 36 614 33 return
          </CharString>
          <CharString index="167">
            -21 191 -20 return
          </CharString>
          <CharString index="168">
            rmoveto
            115 -62 87 -77 -21 callgsubr
            vhcurveto
            return
          </CharString>
          <CharString index="169">
            rmoveto
            33 -26 23 -29 vhcurveto
            hintmask 00001000
            -29 -26 -23 -33 -29 23 -26 32 31 24 26 29 hvcurveto
            return
          </CharString>
          <CharString index="170">
            767 0 57 callgsubr
            return
          </CharString>
          <CharString index="171">
            82 42 callsubr
            return
          </CharString>
          <CharString index="172">
            hstemhm
            41 76 76 76 return
          </CharString>
          <CharString index="173">
            0 33 365 33 return
          </CharString>
          <CharString index="174">
            602 -99 callgsubr
            return
          </CharString>
          <CharString index="175">
            -215 30 -30 103 0 111 141 29 115 103 -53 111 0 26 hstemhm
            return
          </CharString>
          <CharString index="176">
            vmoveto
            71 callsubr
          </CharString>
          <CharString index="177">
            531 -250 28 458 28 458 28 hstem
            228 75 cntrmask 11100000
            455 return
          </CharString>
          <CharString index="178">
            -98 callgsubr
            endchar
          </CharString>
          <CharString index="179">
            0 -3 39 hvcurveto
            -64 callsubr
            return
          </CharString>
          <CharString index="180">
            472 0 31 372 28 return
          </CharString>
          <CharString index="181">
            334 103 callgsubr
            return
          </CharString>
          <CharString index="182">
            767 11 -21 408 33 return
          </CharString>
          <CharString index="183">
            0 3 -54 hvcurveto
            -33 return
          </CharString>
          <CharString index="184">
            -20 hstemhm
            149 274 -173 274 -156 274 -157 274 return
          </CharString>
          <CharString index="185">
            683 0 46 250 46 0 46 249 46 hstemhm
            0 46 591 46 return
          </CharString>
          <CharString index="186">
            hstemhm
            46 101 0 89 414 101 return
          </CharString>
          <CharString index="187">
            vhcurveto
            -33 vlineto
            3 return
          </CharString>
          <CharString index="188">
            8 -4 30 -37 -15 -24 -4 -8 -24 vhcurveto
            -26 -7 -18 -4 -16 -2 1 return
          </CharString>
          <CharString index="189">
            554 216 rmoveto
            126 -103 99 -122 -79 -49 -43 -18 -17 vhcurveto
            return
          </CharString>
          <CharString index="190">
            546 -21 28 52 110 481 33 return
          </CharString>
          <CharString index="191">
            441 120 rmoveto
            return
          </CharString>
          <CharString index="192">
            408 rmoveto
            50 -48 45 -73 14 vhcurveto
            57 16 42 41 48 vvcurveto
            48 return
          </CharString>
          <CharString index="193">
            3 2 5 4 vvcurveto
            9 -7 7 -9 -4 -4 -1 -3 -3 vhcurveto
            return
          </CharString>
          <CharString index="194">
            33 79 callsubr
            return
          </CharString>
          <CharString index="195">
            -14 -22 0 -23 -23 22 0 14 hvcurveto
            return
          </CharString>
          <CharString index="196">
            60 callgsubr
            -17 28 return
          </CharString>
          <CharString index="197">
            hstemhm
            145 34 437 34 return
          </CharString>
          <CharString index="198">
            -2 callgsubr
            42 return
          </CharString>
          <CharString index="199">
            87 42 callsubr
            return
          </CharString>
          <CharString index="200">
            531 502 -21 return
          </CharString>
          <CharString index="201">
            531 -21 28 630 28 hstem
            41 89 270 89 vstem
            return
          </CharString>
          <CharString index="202">
            54 -9 54 hstemhm
            return
          </CharString>
          <CharString index="203">
            413 -228 -21 999 -20 21 -20 hstemhm
            hintmask 00100000
            return
          </CharString>
          <CharString index="204">
            33 584 33 0 33 90 callsubr
            return
          </CharString>
          <CharString index="205">
            -1 -48 rrcurveto
            -41 44 -53 65 50 57 37 58 12 vhcurveto
            return
          </CharString>
          <CharString index="206">
            rrcurveto
            -1 -3 0 -4 -3 vvcurveto
            -8 2 -7 10 -1 vhcurveto
            return
          </CharString>
          <CharString index="207">
            -56 28 347 28 0 28 236 28 83 28 hstemhm
            return
          </CharString>
          <CharString index="208">
            hstemhm
            35 89 212 89 -89 94 return
          </CharString>
          <CharString index="209">
            117 callsubr
            104 return
          </CharString>
          <CharString index="210">
            80 callsubr
            43 return
          </CharString>
          <CharString index="211">
            13 -10 10 -13 return
          </CharString>
          <CharString index="212">
            102 -77 104 -49 104 1 102 21 104 hintmask 0001000000000000
            return
          </CharString>
          <CharString index="213">
            0 115 callgsubr
            return
          </CharString>
          <CharString index="214">
            811 43 callsubr
            hstemhm
            46 101 0 89 return
          </CharString>
          <CharString index="215">
            -194 33 -30 30 161 33 451 -20 hstemhm
            return
          </CharString>
          <CharString index="216">
            -21 30 0 26 363 28 81 92 40 26 hstemhm
            return
          </CharString>
          <CharString index="217">
            -211 -21 132 44 return
          </CharString>
          <CharString index="218">
            -232 44 132 -20 return
          </CharString>
          <CharString index="219">
            -194 33 151 28 return
          </CharString>
          <CharString index="220">
            94 -94 97 224 94 -67 94 hintmask 1011110100000000
            return
          </CharString>
          <CharString index="221">
            124 callsubr
            70 return
          </CharString>
          <CharString index="222">
            751 hmoveto
            -52 callsubr
            return
          </CharString>
          <CharString index="223">
            hstemhm
            145 34 164 110 163 34 return
          </CharString>
          <CharString index="224">
            61 111 callgsubr
            return
          </CharString>
          <CharString index="225">
            33 -33 44 hstemhm
            111 73 return
          </CharString>
          <CharString index="226">
            33 12 92 30 92 19 92 return
          </CharString>
          <CharString index="227">
            rmoveto
            34 -27 22 -28 return
          </CharString>
          <CharString index="228">
            22 vhcurveto
            33 vlineto
            return
          </CharString>
          <CharString index="229">
            hlineto
            49 callsubr
            return
          </CharString>
          <CharString index="230">
            34 callsubr
            hstemhm
            59 104 return
          </CharString>
          <CharString index="231">
            413 -10 31 377 33 184 -20 return
          </CharString>
          <CharString index="232">
            100 hstem
            -405 99 82 99 vstem
            -306 return
          </CharString>
          <CharString index="233">
            826 -43 -21 628 -20 hstem
            737 return
          </CharString>
          <CharString index="234">
            -43 callsubr
            vhcurveto
            return
          </CharString>
          <CharString index="235">
            hvcurveto
            319 1 vlineto
            151 -369 rlineto
            return
          </CharString>
          <CharString index="236">
            hlineto
            -9 -7 -5 -6 -6 7 -5 9 hvcurveto
            return
          </CharString>
          <CharString index="237">
            14 22 0 23 hvcurveto
            endchar
          </CharString>
          <CharString index="238">
            hvcurveto
            196 vlineto
            return
          </CharString>
        <CharString name=".notdef">
          280 endchar
        </CharString>
        <CharString name="A">
          -40 callsubr
          hstem
          -107 callsubr
          endchar
        </CharString>
        <CharString name="AE">
          -46 callgsubr
        </CharString>
        <CharString name="AE.dup">
          -46 callgsubr
        </CharString>
        <CharString name="AEacute">
          959 0 33 279 33 305 33 110 callgsubr
          150 31 70 31 160 86 199 31 110 31 -2 31 hintmask 1110000110100000
          928 260 rmoveto
          -31 hlineto
          -149 -26 -16 -78 -171 hhcurveto
          -108 hlineto
          -46 -2 7 34 hvcurveto
          238 91 vlineto
          97 11 -31 -86 hvcurveto
          31 267 -31 hlineto
          -86 -11 -31 -97 vhcurveto
          -91 264 hlineto
          34 2 7 46 vhcurveto
          109 hlineto
          hintmask 1110011101000000
          145 22 -59 -135 16 hvcurveto
          31 hlineto
          -29 227 rlineto
          -588 -33 46 hlineto
          12 14 0 -1 12 hvcurveto
          -216 -546 -10 -26 -18 -43 -86 -1 rlinecurve
          -33 vlineto
          3 32 53 0 18 hhcurveto
          20 47 0 -3 45 hvcurveto
          33 vlineto
          -59 1 -11 33 15 vvcurveto
          7 0 1 6 14 vhcurveto
          82 208 rlineto
          173 -234 hlineto
          -63 callsubr
          518 vlineto
          hintmask 0100000100100000
          -442 345 rmoveto
          -161 hlineto
          119 301 rlineto
          42 -1 0 -27 -17 vvcurveto
          hintmask 0001100000000000
          182 261 -103 callsubr
        </CharString>
        <CharString name="Aacute">
          -40 callsubr
          71 -21 165 -102 callsubr
          174 273 -103 callsubr
        </CharString>
        <CharString name="Abreve">
          -40 callsubr
          50 44 132 -102 callsubr
          191 331 -98 callsubr
          endchar
        </CharString>
        <CharString name="Abreveacute">
          -40 callsubr
          50 44 317 -102 callsubr
          191 331 -98 callsubr
          -53 138 -103 callsubr
        </CharString>
        <CharString name="Abrevedotbelow">
          -40 callsubr
          50 44 132 -20 hstemhm
          343 110 hintmask 11111000
          -107 callsubr
          191 331 -98 callsubr
          hintmask 00000100
          -106 -1065 -100 callgsubr
        </CharString>
        <CharString name="Abrevegrave">
          -40 callsubr
          50 44 132 -102 callsubr
          191 331 -98 callsubr
          -52 46 rmoveto
          -16 -26 -176 89 -12 6 -10 7 -3 16 rlinecurve
          24 -5 18 23 25 hhcurveto
          6 10 -2 -9 11 hvcurveto
          endchar
        </CharString>
        <CharString name="Abrevehookabove">
          -40 callsubr
          50 44 226 44 67 -102 callgsubr
          hintmask 00011100
          191 331 -98 callsubr
          -57 139 -107 callgsubr
        </CharString>
        <CharString name="Abrevetilde">
          -40 callsubr
          50 44 172 54 -9 54 -106 callgsubr
          hintmask 00010100
          191 331 -98 callsubr
          15 120 rmoveto
          -20 19 rlineto
          hintmask 00001000
          -76 callgsubr
          hintmask 00000100
          -77 callsubr
          hintmask 00001000
          20 -19 rlineto
          hintmask 00000100
          -77 callgsubr
          hintmask 00001000
          -80 callgsubr
        </CharString>
        <CharString name="Acaron">
          -40 callsubr
          61 -21 133 -68 callsubr
          262 -56 callsubr
        </CharString>
        <CharString name="Acircumflex">
          -40 callsubr
          61 -21 133 -68 callsubr
          161 -92 callgsubr
          endchar
        </CharString>
        <CharString name="Acircumflexacute">
          -40 callsubr
          61 -21 318 -68 callsubr
          161 -92 callgsubr
          -31 271 -103 callsubr
        </CharString>
        <CharString name="Acircumflexdotbelow">
          -40 callsubr
          61 -21 133 -20 hstemhm
          343 110 hintmask 11111000
          -107 callsubr
          181 161 -92 callgsubr
          hintmask 00000100
          -84 -879 -100 callgsubr
        </CharString>
        <CharString name="Acircumflexgrave">
          -40 callsubr
          61 -21 133 -68 callsubr
          161 -62 callgsubr
        </CharString>
        <CharString name="Acircumflexhookabove">
          -40 callsubr
          61 -21 338 -68 callsubr
          161 -92 callgsubr
          68 272 -107 callgsubr
        </CharString>
        <CharString name="Acircumflextilde">
          -40 callsubr
          61 -21 173 54 -9 54 -106 callgsubr
          hintmask 00010100
          181 161 -92 callgsubr
          37 253 rmoveto
          -20 19 rlineto
          hintmask 00001000
          -76 callgsubr
          hintmask 00000100
          -77 callsubr
          hintmask 00001000
          20 -19 rlineto
          hintmask 00000100
          -77 callgsubr
          hintmask 00001000
          -80 callgsubr
        </CharString>
        <CharString name="Adblgrave">
          -40 callsubr
          71 -21 189 -102 callsubr
          132 171 -93 callgsubr
        </CharString>
        <CharString name="Adieresis">
          -40 callsubr
          40 100 hstemhm
          241 94 callgsubr
          hintmask 11100000
          -107 callsubr
          hintmask 00011100
          -28 194 -69 callgsubr
        </CharString>
        <CharString name="Adotbelow">
          -40 callsubr
          hstemhm
          343 110 hintmask 11100000
          -107 callsubr
          hintmask 00010000
          85 -734 -100 callgsubr
        </CharString>
        <CharString name="Agrave">
          -40 callsubr
          71 -21 165 -102 callsubr
          102 181 -66 callsubr
        </CharString>
        <CharString name="Ahookabove">
          -40 callsubr
          82 -21 205 -102 callsubr
          133 305 -107 callgsubr
        </CharString>
        <CharString name="Alpha">
          -40 callsubr
          hstem
          -107 callsubr
          endchar
        </CharString>
        <CharString name="Amacron">
          -40 callsubr
          60 38 -106 callgsubr
          hintmask 00010000
          221 165 -28 callgsubr
        </CharString>
        <CharString name="Aogonek">
          796 -214 53 161 33 196 33 452 77 callsubr
          hintmask 01011001
          759 hmoveto
          33 -17 vlineto
          -63 -10 9 32 -12 hvcurveto
          -234 618 rlineto
          13 -5 -3 9 -17 hhcurveto
          -18 -3 -8 -14 -5 hvcurveto
          -223 -589 rlineto
          -27 -10 -21 -43 -82 hhcurveto
          -33 vlineto
          3 32 53 0 18 hhcurveto
          hintmask 01100100
          32 30 0 -3 49 hvcurveto
          33 vlineto
          -44 1 -26 20 29 vvcurveto
          7 0 2 5 12 vhcurveto
          47 125 rlineto
          272 hlineto
          56 -148 rlineto
          5 -12 0 -6 0 vvcurveto
          hintmask 01000001
          -30 -52 0 -28 vhcurveto
          -33 vlineto
          113 3 rlineto
          hintmask 10000100
          -37 -28 -36 -47 -1 -48 -45 callsubr
          rrcurveto
          hintmask 00000010
          -96 5 -3 104 88 55 rrcurveto
          hintmask 01100001
          45 20 0 -3 52 hvcurveto
          -268 262 rmoveto
          -247 hlineto
          hintmask 00100010
          124 327 rlineto
          endchar
        </CharString>
        <CharString name="Aogonekacute">
          796 -214 53 161 33 196 33 452 -20 71 -21 165 77 callsubr
          hintmask 0101001001000000
          759 hmoveto
          33 -17 vlineto
          -63 -10 9 32 -12 hvcurveto
          -234 618 rlineto
          13 -5 -3 9 -17 hhcurveto
          -18 -3 -8 -14 -5 hvcurveto
          -223 -589 rlineto
          -27 -10 -21 -43 -82 hhcurveto
          -33 vlineto
          3 32 53 0 18 hhcurveto
          hintmask 0110000100000000
          32 30 0 -3 49 hvcurveto
          33 vlineto
          -44 1 -26 20 29 vvcurveto
          7 0 2 5 12 vhcurveto
          47 125 rlineto
          272 hlineto
          56 -148 rlineto
          5 -12 0 -6 0 vvcurveto
          hintmask 0100000001000000
          -30 -52 0 -28 vhcurveto
          -33 vlineto
          113 3 rlineto
          hintmask 1000000100000000
          -37 -28 -36 -47 -1 -48 -45 callsubr
          rrcurveto
          hintmask 0000000010000000
          -96 5 -3 104 88 55 rrcurveto
          hintmask 0110000001000000
          45 20 0 -3 52 hvcurveto
          -268 262 rmoveto
          -247 hlineto
          hintmask 0010000010000000
          124 327 rlineto
          hintmask 0000110000000000
          174 273 -103 callsubr
        </CharString>
        <CharString name="Aring">
          -37 callgsubr
          35 106 35 hstemhm
          293 39 132 39 hintmask 11100000
          -107 callsubr
          hintmask 00111100
          96 213 -51 callsubr
        </CharString>
        <CharString name="Aringacute">
          -37 callgsubr
          35 106 35 185 -20 hstemhm
          293 39 132 39 hintmask 11100000
          -107 callsubr
          hintmask 00111110
          96 213 -73 callgsubr
          3 227 -103 callsubr
        </CharString>
        <CharString name="Atilde">
          -40 callsubr
          40 54 -9 54 -106 callgsubr
          hintmask 00001000
          206 225 -86 callgsubr
        </CharString>
        <CharString name="B">
          -33 callsubr
        </CharString>
        <CharString name="Beta">
          -33 callsubr
        </CharString>
        <CharString name="C">
          83 callgsubr
          510 34 vstem
          -75 callgsubr
          -202 167 -161 203 168 110 133 122 hvcurveto
          endchar
        </CharString>
        <CharString name="Cacute">
          90 callgsubr
          102 callsubr
          510 34 hintmask 11001100
          -75 callgsubr
          -202 167 -161 203 168 110 133 122 hvcurveto
          hintmask 00110000
          -141 628 -103 callsubr
        </CharString>
        <CharString name="Ccaron">
          90 callgsubr
          51 -21 133 -20 hstemhm
          59 104 510 34 hintmask 11001100
          -75 callgsubr
          -202 167 -161 203 168 110 133 122 hvcurveto
          hintmask 00110000
          -134 617 -56 callsubr
        </CharString>
        <CharString name="Ccedilla">
          83 callgsubr
          510 34 vstem
          -75 callgsubr
          -189 146 -153 185 -19 hvcurveto
          -76 -2 callsubr
          47 -56 21 -54 hvcurveto
          43 vlineto
          154 12 99 126 116 vvcurveto
          endchar
        </CharString>
        <CharString name="Ccircumflex">
          90 callgsubr
          51 -21 133 -20 hstemhm
          59 104 510 34 hintmask 11001100
          -75 callgsubr
          -202 167 -161 203 168 110 133 122 hvcurveto
          hintmask 00110000
          -134 516 -92 callgsubr
          endchar
        </CharString>
        <CharString name="Cdotaccent">
          90 callgsubr
          51 111 hstemhm
          59 104 204 110 196 34 hintmask 11010100
          -75 callgsubr
          -202 167 -161 203 168 110 133 122 hvcurveto
          hintmask 00101000
          -230 576 -100 callgsubr
        </CharString>
        <CharString name="Chi">
          -42 callgsubr
        </CharString>
        <CharString name="D">
          107 callsubr
          414 101 hintmask 11101000
          -44 callsubr
          hintmask 01011000
          -46 -2 7 34 hvcurveto
          535 58 callgsubr
        </CharString>
        <CharString name="Dcaron">
          811 43 callsubr
          72 -21 133 -20 79 callsubr
          hintmask 11001010
          -44 callsubr
          hintmask 01000110
          -46 -2 7 34 hvcurveto
          535 -10 callsubr
          hintmask 00110000
          -157 515 -56 callsubr
        </CharString>
        <CharString name="Dcroat">
          -28 callsubr
        </CharString>
        <CharString name="Ddotbelow">
          107 callsubr
          51 110 253 101 hintmask 11100100
          -44 callsubr
          hintmask 01010100
          -46 -2 7 34 hvcurveto
          535 -10 callsubr
          hintmask 00001000
          -253 -481 -100 callgsubr
        </CharString>
        <CharString name="Delta">
          885 0 79 635 -20 hstem
          833 10 rmoveto
          0 0 4 -7 11 vhcurveto
          -354 669 rlineto
          20 -11 -12 0 -7 hhcurveto
          -7 -12 0 -20 -11 hvcurveto
          -354 -669 rlineto
          -7 -11 0 -4 0 vvcurveto
          -10 8 0 16 vhcurveto
          734 hlineto
          17 7 0 10 hvcurveto
          -139 69 rmoveto
          -570 hlineto
          285 537 rlineto
          endchar
        </CharString>
        <CharString name="Dlinebelow">
          811 -163 38 125 33 617 87 callsubr
          hintmask 01110100
          -44 callsubr
          hintmask 00101100
          -46 -2 7 34 hvcurveto
          535 -10 callsubr
          hintmask 10000000
          -117 -499 -28 callgsubr
        </CharString>
        <CharString name="E">
          -24 callsubr
          -24 callgsubr
          hintmask 11111010
          -100 callsubr
          hintmask 10110100
          -86 callsubr
          604 hlineto
          hintmask 00000010
          endchar
        </CharString>
        <CharString name="Eacute">
          -24 callsubr
          85 -21 165 -96 callsubr
          -142 862 -103 callsubr
        </CharString>
        <CharString name="Ebreve">
          -24 callsubr
          64 44 132 -96 callsubr
          -125 920 -98 callsubr
          endchar
        </CharString>
        <CharString name="Ecaron">
          -24 callsubr
          75 -21 133 -65 callsubr
          851 -56 callsubr
        </CharString>
        <CharString name="Ecircumflex">
          -24 callsubr
          75 -21 133 -65 callsubr
          750 -92 callgsubr
          endchar
        </CharString>
        <CharString name="Ecircumflexacute">
          -24 callsubr
          75 -21 318 -65 callsubr
          750 -92 callgsubr
          -31 271 -103 callsubr
        </CharString>
        <CharString name="Ecircumflexdotbelow">
          -24 callsubr
          75 -21 133 -20 53 callsubr
          hintmask 1110010101000000
          -100 callsubr
          hintmask 1010010010000000
          -86 callsubr
          604 hlineto
          hintmask 0001100001000000
          -135 750 -92 callgsubr
          hintmask 0000001000000000
          -84 -879 -100 callgsubr
        </CharString>
        <CharString name="Ecircumflexgrave">
          -24 callsubr
          75 -21 133 -65 callsubr
          750 -62 callgsubr
        </CharString>
        <CharString name="Ecircumflexhookabove">
          -24 callsubr
          75 -21 338 -65 callsubr
          750 -92 callgsubr
          68 272 -107 callgsubr
        </CharString>
        <CharString name="Ecircumflextilde">
          -24 callsubr
          75 -21 173 54 -9 54 -24 callgsubr
          hintmask 1110001101000000
          -100 callsubr
          hintmask 1010001010000000
          -86 callsubr
          604 hlineto
          hintmask 0000000001000000
          hintmask 0001010000000000
          -135 750 -92 callgsubr
          37 253 rmoveto
          -20 19 rlineto
          hintmask 0000100000000000
          -76 callgsubr
          hintmask 0000010000000000
          -77 callsubr
          hintmask 0000100000000000
          20 -19 rlineto
          hintmask 0000010000000000
          -77 callgsubr
          hintmask 0000100000000000
          -80 callgsubr
        </CharString>
        <CharString name="Edblgrave">
          -24 callsubr
          85 -21 189 -96 callsubr
          -155 760 -93 callgsubr
        </CharString>
        <CharString name="Edieresis">
          -24 callsubr
          54 100 8 callsubr
          -32 94 callgsubr
          -72 31 154 31 -2 31 hintmask 1110100101000000
          -100 callsubr
          hintmask 1010100010000000
          -86 callsubr
          604 hlineto
          hintmask 0000000001000000
          hintmask 0001011000000000
          -344 783 -69 callgsubr
        </CharString>
        <CharString name="Edotaccent">
          -24 callsubr
          75 111 53 callsubr
          hintmask 1110101010000000
          -100 callsubr
          hintmask 1010100100000000
          -76 callsubr
          hintmask 0001010000000000
          -231 810 -100 callgsubr
        </CharString>
        <CharString name="Edotbelow">
          -24 callsubr
          53 callsubr
          hintmask 11110101
          -100 callsubr
          hintmask 10110010
          -86 callsubr
          604 hlineto
          hintmask 00000001
          hintmask 00001000
          -231 -145 -100 callgsubr
        </CharString>
        <CharString name="Egrave">
          -24 callsubr
          85 -21 165 -96 callsubr
          -214 770 -66 callsubr
        </CharString>
        <CharString name="Ehookabove">
          -24 callsubr
          96 -21 205 -96 callsubr
          -183 894 -107 callgsubr
        </CharString>
        <CharString name="Emacron">
          -24 callsubr
          74 38 -24 callgsubr
          hintmask 11101101
          -100 callsubr
          hintmask 10101010
          -86 callsubr
          604 hlineto
          hintmask 00000001
          hintmask 00010000
          -95 754 -28 callgsubr
        </CharString>
        <CharString name="Eng">
          796 -21 94 -73 33 617 33 -11 32 8 callsubr
          415 104 hintmask 00011000
          756 342 rmoveto
          192 -134 170 -184 -80 -73 -34 -54 -48 vhcurveto
          hintmask 01101000
          67 vlineto
          -2 -15 -16 -1 -15 hhcurveto
          -152 3 rlineto
          -33 24 vlineto
          79 3 -10 -38 hvcurveto
          -521 vlineto
          -38 -3 -10 -79 vhcurveto
          -24 -33 hlineto
          152 3 152 -3 rlineto
          33 -24 vlineto
          -79 -3 10 38 hvcurveto
          483 vlineto
          hintmask 10010100
          65 40 76 43 85 hhcurveto
          145 69 -166 -164 -130 0 -148 -75 -42 hvcurveto
          30 1 -21 21 -26 hhcurveto
          -26 -21 -21 -26 -26 21 -21 26 157 68 183 180 hvcurveto
          endchar
        </CharString>
        <CharString name="Eogonek">
          723 -214 53 161 -1 callgsubr
          -24 callgsubr
          hintmask 01111101
          -100 callsubr
          hintmask 11011010
          -86 callsubr
          444 hlineto
          -36 -23 -36 -49 -1 -48 51 callsubr
          -4 101 89 55 rrcurveto
          115 hlineto
          hintmask 00000001
          endchar
        </CharString>
        <CharString name="Eogonekacute">
          723 -214 53 161 -1 callgsubr
          85 -21 165 -20 -24 callgsubr
          hintmask 0111001101000000
          -100 callsubr
          hintmask 1101001010000000
          -86 callsubr
          444 hlineto
          -36 -23 -36 -49 -1 -48 51 callsubr
          -4 101 89 55 rrcurveto
          115 hlineto
          hintmask 0000000001000000
          hintmask 0000110000000000
          -142 862 -103 callsubr
        </CharString>
        <CharString name="Epsilon">
          -24 callsubr
          -24 callgsubr
          hintmask 11111010
          -100 callsubr
          hintmask 10110100
          -86 callsubr
          604 hlineto
          hintmask 00000010
          endchar
        </CharString>
        <CharString name="Ereversed">
          -24 callsubr
          hstemhm
          44 31 -2 31 154 31 210 92 hintmask 11101110
          692 hmoveto
          -52 callsubr
          518 vlineto
          37 2 11 77 vhcurveto
          22 33 -590 hlineto
          -29 -227 rlineto
          31 hlineto
          134 18 21 60 166 hhcurveto
          142 hlineto
          46 2 -7 -34 hvcurveto
          -236 -97 vlineto
          -99 -14 30 87 hvcurveto
          -31 -267 31 hlineto
          87 14 30 99 vhcurveto
          97 -263 hlineto
          -34 -2 -7 -46 vhcurveto
          -149 hlineto
          hintmask 10010000
          -180 -21 77 150 -26 hvcurveto
          -31 hlineto
          44 -260 rlineto
          endchar
        </CharString>
        <CharString name="Eta">
          796 0 33 306 33 278 33 hstem
          145 92 321 92 vstem
          -87 callgsubr
          endchar
        </CharString>
        <CharString name="Eth">
          -28 callsubr
        </CharString>
        <CharString name="Etilde">
          -24 callsubr
          54 54 -9 54 -97 callgsubr
          hintmask 0000100000000000
          -110 814 rmoveto
          -20 19 rlineto
          hintmask 0001000000000000
          -76 callgsubr
          hintmask 0000100000000000
          -77 callsubr
          hintmask 0001000000000000
          20 -19 rlineto
          hintmask 0000100000000000
          -77 callgsubr
          hintmask 0001000000000000
          -80 callgsubr
        </CharString>
        <CharString name="Euro">
          665 -21 32 257 32 84 32 244 32 -20 32 hstemhm
          118 104 hintmask 11101100
          606 -9 rmoveto
          150 vlineto
          7 -5 5 -7 vhcurveto
          -8 hlineto
          -6 -5 -4 -6 -1 hvcurveto
          -74 -8 -61 -58 -73 hhcurveto
          -65 -57 39 55 -35 hvcurveto
          -31 49 -14 56 -5 58 rrcurveto
          273 hlineto
          5 5 3 5 1 hvcurveto
          3 12 rlineto
          6 2 -6 6 -8 hhcurveto
          -277 hlineto
          -1 42 1 42 rlineto
          310 hlineto
          6 4 3 5 2 hvcurveto
          3 12 rlineto
          6 1 -6 6 -7 hhcurveto
          -311 hlineto
          5 57 14 57 31 48 rrcurveto
          55 35 57 39 65 hhcurveto
          73 61 -57 -74 8 hvcurveto
          -6 1 5 -5 6 hhcurveto
          8 hlineto
          7 5 5 7 hvcurveto
          hintmask 00010000
          150 vlineto
          hintmask 00001000
          7 -5 5 -7 vhcurveto
          -2 hlineto
          -4 -3 -1 -2 -2 hvcurveto
          hintmask 00010000
          -39 -41 rlineto
          hintmask 11101100
          28 -33 -42 16 -46 hhcurveto
          -84 -78 -42 -65 -54 hvcurveto
          -44 -52 -27 -63 -12 -66 rrcurveto
          -52 85 callgsubr
          50 hlineto
          -1 -14 -1 -14 -14 vvcurveto
          -14 1 -14 1 -14 vhcurveto
          -48 85 callgsubr
          54 hlineto
          12 -67 27 -63 44 -52 rrcurveto
          -65 54 78 -42 84 hhcurveto
          46 42 17 28 33 hvcurveto
          39 -41 rlineto
          -3 2 3 -1 4 hhcurveto
          2 hlineto
          7 5 5 7 hvcurveto
          endchar
        </CharString>
        <CharString name="F">
          693 0 33 291 33 290 33 hstem
          145 92 203 31 146 31 vstem
          648 453 rmoveto
          -29 227 rlineto
          -575 30 callgsubr
          242 93 vlineto
          98 12 -31 -86 hvcurveto
          31 267 -31 hlineto
          -85 -12 -32 -98 vhcurveto
          -93 249 hlineto
          34 2 7 46 vhcurveto
          133 hlineto
          163 19 -63 -131 17 hvcurveto
          endchar
        </CharString>
        <CharString name="G">
          834 -21 45 callsubr
          hintmask 01000100
          782 243 80 callgsubr
          -51 -28 0 -57 hhcurveto
          -43 -81 0 3 -39 hvcurveto
          -33 35 vlineto
          hintmask 10111000
          -73 callsubr
          hintmask 10110100
          -7 -1 -1 -13 -9 hvcurveto
          -51 -74 rlineto
          46 -43 -66 42 -90 hhcurveto
          -200 -169 -161 -201 -199 164 -164 208 77 86 23 59 40 hvcurveto
          -28 18 34 -33 10 hhcurveto
          hintmask 00001000
          12 0 11 15 hvcurveto
          172 vlineto
          hintmask 01000100
          40 4 5 70 vhcurveto
          endchar
        </CharString>
        <CharString name="Gacute">
          29 callgsubr
          61 -21 165 -81 callsubr
          -221 619 -103 callsubr
        </CharString>
        <CharString name="Gamma">
          664 0 33 614 33 hstem
          145 92 vstem
          619 453 rmoveto
          -29 227 rlineto
          -546 30 callgsubr
          524 vlineto
          34 2 7 46 vhcurveto
          115 hlineto
          155 16 -65 -129 17 hvcurveto
          endchar
        </CharString>
        <CharString name="Gbreve">
          29 callgsubr
          40 44 132 -81 callsubr
          -204 677 -98 callsubr
          endchar
        </CharString>
        <CharString name="Gcaron">
          29 callgsubr
          51 -21 133 -81 callsubr
          -214 608 -56 callsubr
        </CharString>
        <CharString name="Gcedilla">
          834 91 callsubr
          45 callsubr
          hintmask 00010001
          782 243 80 callgsubr
          -51 -28 0 -57 hhcurveto
          -43 -81 0 3 -39 hvcurveto
          -33 35 vlineto
          hintmask 00101110
          -73 callsubr
          hintmask 00101101
          -7 -1 -1 -13 -9 hvcurveto
          -51 -74 rlineto
          46 -43 -66 42 -90 hhcurveto
          -200 -169 -161 -201 -199 164 -164 208 77 86 23 59 40 hvcurveto
          -28 18 34 -33 10 hhcurveto
          hintmask 00000010
          12 0 11 15 hvcurveto
          172 vlineto
          hintmask 11010001
          40 4 5 70 vhcurveto
          -319 -386 -96 callgsubr
        </CharString>
        <CharString name="Gcircumflex">
          29 callgsubr
          51 -21 133 -81 callsubr
          -214 507 -92 callgsubr
          endchar
        </CharString>
        <CharString name="Gcommaaccent">
          834 91 callsubr
          45 callsubr
          hintmask 00010001
          782 243 80 callgsubr
          -51 -28 0 -57 hhcurveto
          -43 -81 0 3 -39 hvcurveto
          -33 35 vlineto
          hintmask 00101110
          -73 callsubr
          hintmask 00101101
          -7 -1 -1 -13 -9 hvcurveto
          -51 -74 rlineto
          46 -43 -66 42 -90 hhcurveto
          -200 -169 -161 -201 -199 164 -164 208 77 86 23 59 40 hvcurveto
          -28 18 34 -33 10 hhcurveto
          hintmask 00000010
          12 0 11 15 hvcurveto
          172 vlineto
          hintmask 00010001
          40 4 5 70 vhcurveto
          hintmask 11000000
          -319 -386 -96 callgsubr
        </CharString>
        <CharString name="Gdotaccent">
          29 callgsubr
          51 111 hstemhm
          59 104 199 110 144 92 -30 104 hintmask 01000001
          782 243 80 callgsubr
          -51 -28 0 -57 hhcurveto
          -43 -81 0 3 -39 hvcurveto
          -33 35 vlineto
          hintmask 10101010
          -73 callsubr
          hintmask 10101001
          -7 -1 -1 -13 -9 hvcurveto
          -51 -74 rlineto
          46 -43 -66 42 -90 hhcurveto
          -200 -169 -161 -201 -199 164 -164 208 77 86 23 59 40 hvcurveto
          -28 18 34 -33 10 hhcurveto
          hintmask 00000010
          12 0 11 15 hvcurveto
          172 vlineto
          hintmask 01000001
          40 4 5 70 vhcurveto
          hintmask 00010100
          -310 567 -100 callgsubr
        </CharString>
        <CharString name="H">
          796 0 33 306 33 278 33 hstem
          145 92 321 92 vstem
          -87 callgsubr
          endchar
        </CharString>
        <CharString name="H_uni0303">
          56 callsubr
          51 54 -9 54 8 callsubr
          321 92 hintmask 11100110
          -87 callgsubr
          hintmask 00001000
          -30 811 -86 callgsubr
        </CharString>
        <CharString name="Hbar">
          55 callgsubr
          306 33 125 32 121 68 callgsubr
          416 101 32 -101 73 -95 callsubr
          -73 -321 73 -95 callsubr
          -73 -101 -32 101 -416 -51 callgsubr
          147 3 147 -48 callsubr
          258 321 -258 -51 callgsubr
          147 3 rlineto
          -46 369 rmoveto
          -321 125 321 hlineto
          endchar
        </CharString>
        <CharString name="Hbrevebelow">
          796 111 callsubr
          76 33 306 33 278 33 8 callsubr
          321 92 hintmask 00111110
          -87 callgsubr
          hintmask 11000100
          -45 -59 -98 callsubr
          endchar
        </CharString>
        <CharString name="Hcircumflex">
          56 callsubr
          72 -21 133 -20 8 callsubr
          321 92 hintmask 11100110
          -87 callgsubr
          hintmask 00011000
          -55 747 -92 callgsubr
          endchar
        </CharString>
        <CharString name="Hdieresis">
          56 callsubr
          51 100 8 callsubr
          4 94 callgsubr
          3 92 hintmask 11101001
          -87 callgsubr
          hintmask 00010110
          -264 780 -69 callgsubr
        </CharString>
        <CharString name="Hdotbelow">
          56 callsubr
          8 callsubr
          106 110 105 92 hintmask 11110100
          -87 callgsubr
          hintmask 00001000
          -151 -148 -100 callgsubr
        </CharString>
        <CharString name="I">
          28 callgsubr
          hstem
          145 92 vstem
          -94 callsubr
          endchar
        </CharString>
        <CharString name="I_J">
          890 -21 28 -7 33 26 110 -88 33 536 33 8 callsubr
          159 110 161 89 hintmask 01011101
          -94 callsubr
          641 647 80 callgsubr
          -51 -28 0 -56 hhcurveto
          -44 -76 0 3 -41 hvcurveto
          -33 34 vlineto
          94 3 -12 -37 hvcurveto
          -452 vlineto
          hintmask 10010010
          -92 -54 -50 -53 -43 -46 20 31 -23 vhcurveto
          28 1 30 17 38 vvcurveto
          hintmask 10101011
          35 -27 20 -28 -21 -34 -14 -43 -74 73 -59 94 92 101 60 110 vhcurveto
          456 vlineto
          45 12 0 64 vhcurveto
          endchar
        </CharString>
        <CharString name="Iacute">
          28 callgsubr
          82 102 callgsubr
          hintmask 11001000
          -94 callsubr
          hintmask 00110000
          145 859 -103 callsubr
        </CharString>
        <CharString name="Ibreve">
          28 callgsubr
          61 44 132 -20 8 callsubr
          hintmask 11001000
          -94 callsubr
          hintmask 00110000
          162 917 -98 callsubr
          endchar
        </CharString>
        <CharString name="Icaron">
          28 callgsubr
          72 -21 133 -20 8 callsubr
          hintmask 11001000
          -94 callsubr
          hintmask 00110000
          152 848 -56 callsubr
        </CharString>
        <CharString name="Icircumflex">
          28 callgsubr
          72 -21 133 -20 8 callsubr
          hintmask 11001000
          -94 callsubr
          hintmask 00110000
          152 747 -92 callgsubr
          endchar
        </CharString>
        <CharString name="Idblgrave">
          28 callgsubr
          82 104 callgsubr
          8 callsubr
          hintmask 11001000
          -94 callsubr
          hintmask 00110000
          132 757 -93 callgsubr
        </CharString>
        <CharString name="Idieresis">
          28 callgsubr
          51 100 hstemhm
          35 99 11 92 13 99 hintmask 11001000
          -94 callsubr
          hintmask 00110100
          -57 780 -69 callgsubr
        </CharString>
        <CharString name="Idieresisacute">
          28 callgsubr
          51 100 81 -21 165 -20 hstemhm
          35 99 11 92 13 99 hintmask 11000010
          -94 callsubr
          hintmask 00111101
          -57 780 rmoveto
          -101 callsubr
          215 hmoveto
          -101 callsubr
          -13 229 -103 callsubr
        </CharString>
        <CharString name="Idotaccent">
          28 callgsubr
          72 111 hstemhm
          137 110 -102 92 hintmask 11001000
          -94 callsubr
          hintmask 00110000
          56 807 -100 callgsubr
        </CharString>
        <CharString name="Idotbelow">
          28 callgsubr
          hstemhm
          137 110 -102 92 hintmask 11010000
          -94 callsubr
          hintmask 00100000
          56 -148 -100 callgsubr
        </CharString>
        <CharString name="Igrave">
          28 callgsubr
          82 102 callgsubr
          hintmask 11001000
          -94 callsubr
          hintmask 00110000
          73 767 -66 callsubr
        </CharString>
        <CharString name="Ihookabove">
          28 callgsubr
          93 -21 205 -20 8 callsubr
          hintmask 11001000
          -94 callsubr
          hintmask 00111000
          104 891 -107 callgsubr
        </CharString>
        <CharString name="Imacron">
          28 callgsubr
          71 38 8 callsubr
          hintmask 11010000
          -94 callsubr
          hintmask 00100000
          192 751 -28 callgsubr
        </CharString>
        <CharString name="Imacron.alt">
          28 callgsubr
          71 38 8 callsubr
          hintmask 11010000
          -94 callsubr
          hintmask 00100000
          103 751 31 callsubr
        </CharString>
        <CharString name="Iogonek">
          383 -214 53 161 33 617 33 hstem
          145 92 vstem
          -12 callgsubr
          endchar
        </CharString>
        <CharString name="Iogonekacute">
          383 -214 53 161 33 617 33 82 102 callgsubr
          hintmask 11100100
          -12 callgsubr
          hintmask 00011000
          -7 981 -103 callsubr
        </CharString>
        <CharString name="Iota">
          28 callgsubr
          hstem
          145 92 vstem
          -94 callsubr
          endchar
        </CharString>
        <CharString name="Itilde">
          28 callgsubr
          51 54 -9 54 8 callsubr
          hintmask 11001000
          -94 callsubr
          hintmask 00010000
          177 811 rmoveto
          -20 19 rlineto
          hintmask 00100000
          -76 callgsubr
          hintmask 00010000
          -77 callsubr
          hintmask 00100000
          20 -19 rlineto
          hintmask 00010000
          -77 callgsubr
          hintmask 00100000
          -80 callgsubr
        </CharString>
        <CharString name="J">
          83 callsubr
          hstem
          52 110 161 89 vstem
          -50 callgsubr
          endchar
        </CharString>
        <CharString name="J_uni030C.cap">
          545.5 -21 28 52 110 306 -21 146 83 -33 33 hstemhm
          52 110 161 89 hintmask 11001110
          -50 callgsubr
          131 -47 127 callsubr
          hintmask 00110000
          -23 15 -19 27 16 11 9 2 2 vhcurveto
          -22 0 -62 -57 -53 vhcurveto
          -2 -2 -3 -2 -4 vvcurveto
          -7 7 -5 4 10 62 59 90 vhcurveto
          endchar
        </CharString>
        <CharString name="Jacute">
          83 callsubr
          110 callgsubr
          52 110 161 89 hintmask 11100110
          -50 callgsubr
          hintmask 00011000
          -4 212 -103 callsubr
        </CharString>
        <CharString name="Jcircumflex">
          83 callsubr
          72 -21 133 -20 hstemhm
          52 110 161 89 hintmask 11100110
          -50 callgsubr
          hintmask 00011000
          3 100 -92 callgsubr
          endchar
        </CharString>
        <CharString name="K">
          825 43 callsubr
          hstem
          145 92 vstem
          -78 callsubr
          endchar
        </CharString>
        <CharString name="Kappa">
          825 43 callsubr
          hstem
          145 92 vstem
          -78 callsubr
          endchar
        </CharString>
        <CharString name="Kcedilla">
          825 46 callsubr
          hstem
          145 92 vstem
          -78 callsubr
          -320 -143 -96 callgsubr
        </CharString>
        <CharString name="Kcommaaccent">
          825 46 callsubr
          8 callsubr
          hintmask 00111000
          -78 callsubr
          hintmask 11000000
          -320 -143 -96 callgsubr
        </CharString>
        <CharString name="L">
          75 callgsubr
          hstem
          145 92 vstem
          -83 callgsubr
          endchar
        </CharString>
        <CharString name="L_uni0303">
          75 callgsubr
          51 54 -9 54 8 callsubr
          hintmask 11001000
          -83 callgsubr
          hintmask 00010000
          -216 814 rmoveto
          -20 19 rlineto
          hintmask 00100000
          -76 callgsubr
          hintmask 00010000
          -77 callsubr
          hintmask 00100000
          20 -19 rlineto
          hintmask 00010000
          -77 callgsubr
          hintmask 00100000
          -80 callgsubr
        </CharString>
        <CharString name="Lacute">
          75 callgsubr
          82 102 callgsubr
          hintmask 11001000
          -83 callgsubr
          hintmask 00110000
          -248 862 -103 callsubr
        </CharString>
        <CharString name="Lambda">
          737 0 33 681 -20 hstem
          701 hmoveto
          33 vlineto
          -59 -18 0 40 -14 hvcurveto
          -216 618 rlineto
          16 -6 -5 7 -15 hhcurveto
          -15 -5 -7 -16 -6 hvcurveto
          -207 -591 -16 -45 -30 -21 -54 -1 rlinecurve
          -33 vlineto
          3 32 35 0 28 hhcurveto
          17 48 0 -3 45 hvcurveto
          33 vlineto
          -49 1 -24 24 26 vvcurveto
          5 0 2 5 13 vhcurveto
          165 471 173 -494 rlineto
          5 -13 0 -2 -3 vvcurveto
          -30 -55 0 -26 vhcurveto
          -33 vlineto
          140 3 rlineto
          39 43 0 -3 45 hvcurveto
          endchar
        </CharString>
        <CharString name="Lcaron">
          664 0 33 442 -21 146 83 -33 33 8 callsubr
          hintmask 10011000
          -83 callgsubr
          -76 603 rmoveto
          18 callgsubr
        </CharString>
        <CharString name="Lcedilla">
          664 46 callsubr
          hstem
          145 92 vstem
          -83 callgsubr
          -212 -143 -96 callgsubr
        </CharString>
        <CharString name="Lcommaaccent">
          664 46 callsubr
          8 callsubr
          hintmask 00111000
          -83 callgsubr
          hintmask 11000000
          -212 -143 -96 callgsubr
        </CharString>
        <CharString name="Ldot">
          664 0 33 318 111 188 33 hstem
          145 92 231 110 vstem
          -83 callgsubr
          -12 406 -100 callgsubr
        </CharString>
        <CharString name="Ldotbelow">
          75 callgsubr
          8 callsubr
          40 110 hintmask 11100000
          -83 callgsubr
          hintmask 00010000
          -203 -145 -100 callgsubr
        </CharString>
        <CharString name="Ldotbelowmacron">
          75 callgsubr
          71 38 8 callsubr
          40 110 hintmask 11011000
          -83 callgsubr
          -203 -145 -99 callgsubr
          hintmask 00100000
          8 899 -28 callgsubr
        </CharString>
        <CharString name="Lslash">
          75 callgsubr
          hstem
          145 92 vstem
          619 260 rmoveto
          -31 hlineto
          -104 -12 -15 -123 -183 hhcurveto
          -93 hlineto
          -46 -2 7 34 hvcurveto
          291 vlineto
          176 140 -23 28 -153 -122 rlineto
          190 vlineto
          35 0 14 94 vhcurveto
          32 33 hlineto
          -3 -45 -73 0 -47 hhcurveto
          -154 3 rlineto
          -33 22 vlineto
          -61 callgsubr
          -265 vlineto
          -90 -72 23 -28 67 54 rlineto
          -210 -4 callsubr
          endchar
        </CharString>
        <CharString name="M">
          973 43 callsubr
          hstem
          150 34 556 82 vstem
          -55 callsubr
          endchar
        </CharString>
        <CharString name="Mdotbelow">
          973 43 callsubr
          hstemhm
          150 34 248 110 198 82 hintmask 11101000
          -55 callsubr
          hintmask 00010000
          -239 -148 -100 callgsubr
        </CharString>
        <CharString name="Mu">
          973 43 callsubr
          hstem
          150 34 556 82 vstem
          -55 callsubr
          endchar
        </CharString>
        <CharString name="N">
          796 0 97 callsubr
          hintmask 10111000
          -89 callgsubr
          hintmask 11011000
          -48 callgsubr
          endchar
        </CharString>
        <CharString name="Nacute">
          48 callsubr
          82 -21 165 -20 90 callsubr
          hintmask 10100110
          -89 callgsubr
          hintmask 11000110
          -48 callgsubr
          hintmask 00011000
          -209 212 -103 callsubr
        </CharString>
        <CharString name="Ncaron">
          48 callsubr
          72 -21 133 -20 90 callsubr
          hintmask 10100110
          -89 callgsubr
          hintmask 11000110
          -48 callgsubr
          hintmask 00011000
          -202 201 -56 callsubr
        </CharString>
        <CharString name="Ncedilla">
          796 -271 -21 146 83 63 97 callsubr
          hintmask 00101110
          -89 callgsubr
          hintmask 11110110
          -48 callgsubr
          -307 -793 -96 callgsubr
        </CharString>
        <CharString name="Ncommaaccent">
          796 -271 -21 146 83 63 97 callsubr
          hintmask 00101110
          -89 callgsubr
          hintmask 00110110
          -48 callgsubr
          hintmask 11000000
          -307 -793 -96 callgsubr
        </CharString>
        <CharString name="Ndotaccent">
          48 callsubr
          51 111 116 callsubr
          hintmask 10101010
          -89 callgsubr
          hintmask 11001010
          -48 callgsubr
          hintmask 00010100
          -298 139 -100 callgsubr
        </CharString>
        <CharString name="Ndotbelow">
          48 callsubr
          116 callsubr
          hintmask 10110100
          -89 callgsubr
          hintmask 11010100
          -48 callgsubr
          hintmask 00001000
          -298 -795 -100 callgsubr
        </CharString>
        <CharString name="Ntilde">
          48 callsubr
          51 54 -9 54 90 callsubr
          hintmask 10100110
          -89 callgsubr
          hintmask 11000110
          -48 callgsubr
          hintmask 00001000
          -177 164 -86 callgsubr
        </CharString>
        <CharString name="Nu">
          796 0 97 callsubr
          hintmask 10111000
          -89 callgsubr
          hintmask 11011000
          -48 callgsubr
          endchar
        </CharString>
        <CharString name="O">
          -23 callgsubr
          hstem
          40 callgsubr
          vstem
          -101 callgsubr
          endchar
        </CharString>
        <CharString name="OE">
          -46 callsubr
        </CharString>
        <CharString name="OE.dup">
          -46 callsubr
        </CharString>
        <CharString name="Oacute">
          -23 callgsubr
          61 -21 165 -90 callgsubr
          -104 508 -103 callsubr
        </CharString>
        <CharString name="Obreve">
          -23 callgsubr
          40 44 132 -90 callgsubr
          -87 566 -98 callsubr
          endchar
        </CharString>
        <CharString name="Ocaron">
          -23 callgsubr
          51 -21 133 -53 callgsubr
          497 -56 callsubr
        </CharString>
        <CharString name="Ocircumflex">
          -23 callgsubr
          51 -21 133 -53 callgsubr
          396 -92 callgsubr
          endchar
        </CharString>
        <CharString name="Ocircumflexacute">
          -23 callgsubr
          51 -21 318 -53 callgsubr
          396 -92 callgsubr
          -31 271 -103 callsubr
        </CharString>
        <CharString name="Ocircumflexdotbelow">
          -23 callgsubr
          51 -21 133 -20 123 callgsubr
          hintmask 11111010
          -101 callgsubr
          -97 396 -92 callgsubr
          hintmask 00000100
          -84 -879 -100 callgsubr
        </CharString>
        <CharString name="Ocircumflexgrave">
          -23 callgsubr
          51 -21 133 -53 callgsubr
          396 -62 callgsubr
        </CharString>
        <CharString name="Ocircumflexhookabove">
          -23 callgsubr
          51 -21 338 -53 callgsubr
          396 -92 callgsubr
          68 272 -107 callgsubr
        </CharString>
        <CharString name="Ocircumflextilde">
          -23 callgsubr
          51 -21 173 54 -9 54 32 callsubr
          hintmask 11000110
          -101 callgsubr
          hintmask 00101000
          -97 396 -92 callgsubr
          37 253 -86 callgsubr
        </CharString>
        <CharString name="Odblgrave">
          -23 callgsubr
          61 -21 189 -90 callgsubr
          -117 406 -93 callgsubr
        </CharString>
        <CharString name="Odieresis">
          -23 callgsubr
          30 100 hstemhm
          59 104 94 94 callgsubr
          91 104 hintmask 11010010
          -101 callgsubr
          hintmask 00101100
          -306 429 -69 callgsubr
        </CharString>
        <CharString name="Odotbelow">
          -23 callgsubr
          123 callgsubr
          hintmask 11101000
          -101 callgsubr
          hintmask 00010000
          -193 -499 -100 callgsubr
        </CharString>
        <CharString name="Ograve">
          -23 callgsubr
          61 -21 165 -90 callgsubr
          -176 416 -66 callsubr
        </CharString>
        <CharString name="Ohookabove">
          -23 callgsubr
          72 -21 205 -90 callgsubr
          -145 540 -107 callgsubr
        </CharString>
        <CharString name="Ohorn">
          -23 callgsubr
          90 -20 hstemhm
          59 104 432 111 -45 104 hintmask 00000100
          -5 callgsubr
          hintmask 11111000
          42 12 27 46 49 vvcurveto
          35 -22 32 -33 -37 -19 -28 -27 -28 19 -28 37 3 2 0 1 3 vhcurveto
          -12 -20 -19 -15 -23 -5 rrcurveto
          39 -56 -68 21 -69 hhcurveto
          -94 -90 -39 -68 -66 hvcurveto
          -67 -70 -36 -93 -96 vvcurveto
          -95 37 -91 66 -68 vhcurveto
          -67 66 90 -38 94 hhcurveto
          hintmask 11010100
          94 90 38 67 65 hvcurveto
          67 68 37 91 95 vvcurveto
          -104 17 rmoveto
          -87 -16 -87 -51 -71 vhcurveto
          -59 -43 -66 -39 -73 hhcurveto
          -73 -66 39 59 -43 hvcurveto
          -51 71 -16 87 87 vvcurveto
          81 17 82 50 63 vhcurveto
          57 44 66 35 72 hhcurveto
          71 67 -35 -57 44 hvcurveto
          50 -63 17 -82 -81 vvcurveto
          endchar
        </CharString>
        <CharString name="Ohornacute">
          -23 callgsubr
          61 -21 50 -20 135 -8 callsubr
          hintmask 11010110
          -70 callgsubr
          hintmask 00101000
          -133 507 -103 callsubr
        </CharString>
        <CharString name="Ohorndotbelow">
          -23 callgsubr
          90 -20 hstemhm
          59 104 196 110 126 111 -45 104 hintmask 00000010
          -5 callgsubr
          hintmask 11110100
          42 12 27 46 49 vvcurveto
          35 -22 32 -33 -37 -19 -28 -27 -28 19 -28 37 3 2 0 1 3 vhcurveto
          -12 -20 -19 -15 -23 -5 rrcurveto
          39 -56 -68 21 -69 hhcurveto
          -94 -90 -39 -68 -66 hvcurveto
          -67 -70 -36 -93 -96 vvcurveto
          -95 37 -91 66 -68 vhcurveto
          -67 66 90 -38 94 hhcurveto
          hintmask 11010010
          94 90 38 67 65 hvcurveto
          67 68 37 91 95 vvcurveto
          -104 17 rmoveto
          -87 -16 -87 -51 -71 vhcurveto
          -59 -43 -66 -39 -73 hhcurveto
          -73 -66 39 59 -43 hvcurveto
          -51 71 -16 87 87 vvcurveto
          81 17 82 50 63 vhcurveto
          57 44 66 35 72 hhcurveto
          71 67 -35 -57 44 hvcurveto
          50 -63 17 -82 -81 vvcurveto
          hintmask 00001000
          -192 -500 -100 callgsubr
        </CharString>
        <CharString name="Ohorngrave">
          -23 callgsubr
          61 -21 50 -20 135 -8 callsubr
          hintmask 11010110
          -70 callgsubr
          hintmask 00101000
          -176 415 -66 callsubr
        </CharString>
        <CharString name="Ohornhookabove">
          -23 callgsubr
          72 -21 39 -20 186 -8 callsubr
          hintmask 11010110
          -70 callgsubr
          hintmask 00101000
          -145 539 -107 callgsubr
        </CharString>
        <CharString name="Ohorntilde">
          -23 callgsubr
          30 54 -9 54 -39 -8 callsubr
          hintmask 11001110
          -70 callgsubr
          hintmask 00010000
          -72 459 rmoveto
          -20 19 rlineto
          hintmask 00100000
          -76 callgsubr
          hintmask 00010000
          -77 callsubr
          hintmask 00100000
          20 -19 rlineto
          hintmask 00010000
          -77 callgsubr
          hintmask 00100000
          -80 callgsubr
        </CharString>
        <CharString name="Ohungarumlaut">
          -23 callgsubr
          61 -21 189 -90 callgsubr
          -246 540 -70 callsubr
        </CharString>
        <CharString name="Omacron">
          -23 callgsubr
          50 38 32 callsubr
          hintmask 11011000
          -101 callgsubr
          hintmask 00100000
          -57 400 -28 callgsubr
        </CharString>
        <CharString name="Omega">
          -36 callsubr
        </CharString>
        <CharString name="Omicron">
          -23 callgsubr
          hstem
          40 callgsubr
          vstem
          -101 callgsubr
          endchar
        </CharString>
        <CharString name="Oogonek">
          826 -21 33 -31 31 661 31 32 callsubr
          hintmask 01110000
          766 339 rmoveto
          201 -159 164 -194 -197 -157 -165 -200 -191 143 -149 174 -18 vhcurveto
          -27 -29 -24 -38 -1 -34 -7 callgsubr
          hintmask 10111000
          13 callsubr
          endchar
        </CharString>
        <CharString name="Oogonekacute">
          826 -21 33 -31 31 661 31 102 callsubr
          499 104 hintmask 01100100
          766 339 rmoveto
          201 -159 164 -194 -197 -157 -165 -200 -191 143 -149 174 -18 vhcurveto
          -27 -29 -24 -38 -1 -34 -7 callgsubr
          hintmask 10100110
          13 callsubr
          hintmask 00011000
          -104 508 -103 callsubr
        </CharString>
        <CharString name="Orogate">
          826 59 104 236 28 235 104 vstem
          766 339 rmoveto
          196 -151 161 -188 8 vhcurveto
          174 -28 -174 vlineto
          -190 -8 -150 -162 -195 vvcurveto
          -199 156 -154 184 -7 vhcurveto
          -173 28 173 vlineto
          187 8 152 155 197 vvcurveto
          -104 15 rmoveto
          -254 -144 -88 -105 -109 -141 91 251 239 146 80 103 108 142 -84 -235 vhcurveto
          endchar
        </CharString>
        <CharString name="Oslash">
          72 callgsubr
          hstem
          59 92 523 92 vstem
          -58 callsubr
          endchar
        </CharString>
        <CharString name="Oslash.dup">
          72 callgsubr
          hstem
          59 92 523 92 vstem
          -58 callsubr
          endchar
        </CharString>
        <CharString name="Oslashacute">
          72 callgsubr
          44 111 callgsubr
          92 523 92 hintmask 11110011
          -58 callsubr
          hintmask 00001100
          -116 523 -103 callsubr
        </CharString>
        <CharString name="Otilde">
          -23 callgsubr
          30 54 -9 54 -91 callgsubr
          hintmask 00010000
          -72 460 rmoveto
          -20 19 rlineto
          hintmask 00100000
          -76 callgsubr
          hintmask 00010000
          -77 callsubr
          hintmask 00100000
          20 -19 rlineto
          hintmask 00010000
          -77 callgsubr
          hintmask 00100000
          -80 callgsubr
        </CharString>
        <CharString name="P">
          -26 callsubr
        </CharString>
        <CharString name="Phi">
          767 0 33 101 31 353 31 101 33 hstem
          59 101 177 85 184 101 vstem
          707 341 rmoveto
          95 -104 95 -181 16 vhcurveto
          54 42 callgsubr
          -55 vlineto
          -167 -15 -111 -92 -97 vvcurveto
          -102 116 -88 162 -15 39 callsubr
          54 vlineto
          186 17 99 98 90 vvcurveto
          -370 -176 rmoveto
          -87 10 -90 41 125 vvcurveto
          112 71 53 106 12 vhcurveto
          269 -176 rmoveto
          -128 -92 -41 -92 -8 vhcurveto
          353 vlineto
          88 -7 96 -40 -129 vvcurveto
          endchar
        </CharString>
        <CharString name="Pi">
          55 callgsubr
          614 68 callgsubr
          518 vlineto
          37 2 11 77 vhcurveto
          22 33 -707 71 callgsubr
          147 3 147 -48 callsubr
          566 321 -566 -51 callgsubr
          147 3 rlineto
          endchar
        </CharString>
        <CharString name="Psi">
          826 0 33 104 31 354 33 95 33 hstem
          135 85 147 85 153 85 vstem
          766 541 rmoveto
          14 -13 0 -15 vhcurveto
          -35 hlineto
          -73 -24 -61 -95 -1 hvcurveto
          -1 -93 -31 -114 -121 -25 rrcurveto
          434 42 callgsubr
          -433 vlineto
          -142 32 -5 149 68 vvcurveto
          74 -27 64 -71 vhcurveto
          -34 hlineto
          -15 -14 0 -14 -12 12 -2 3 hvcurveto
          60 -7 1 -91 -8 vvcurveto
          -59 2 -198 230 -27 39 callsubr
          55 vlineto
          206 21 31 165 1 71 rrcurveto
          41 1 84 57 8 vhcurveto
          8 1 10 1 12 vvcurveto
          endchar
        </CharString>
        <CharString name="Q">
          826 -194 104 0 104 -35 31 -17 31 -28 28 99 28 522 31 hstemhm
          59 101 165 28 312 101 -22 28 hintmask 0100000000000000
          772 -9 rmoveto
          9 0 14 -14 vhcurveto
          hintmask 1000100000100000
          -12 -1 -11 -7 -1 hvcurveto
          -61 -6 -49 -25 -39 hhcurveto
          -42 -26 24 74 -32 hvcurveto
          hintmask 0010001101000000
          92 35 124 116 180 vvcurveto
          201 -159 164 -194 -197 -157 -165 -200 -202 160 -158 194 vhcurveto
          hintmask 1001011110100000
          32 34 5 9 31 hvcurveto
          -102 21 18 -85 93 hhcurveto
          104 26 128 57 hvcurveto
          -107 348 rmoveto
          -125 -39 -108 -92 -60 vhcurveto
          92 -39 -48 13 -34 hhcurveto
          -50 -38 -39 -46 -19 7 -16 4 -7 hvcurveto
          -106 41 -70 106 168 vvcurveto
          241 141 93 111 vhcurveto
          hintmask 0010010011000000
          115 138 -96 -238 hvcurveto
          -163 -310 rmoveto
          -15 -34 -30 -4 -25 hhcurveto
          -52 -8 43 13 28 23 29 38 49 24 -36 -58 15 hvcurveto
          endchar
        </CharString>
        <CharString name="R">
          12 callsubr
          9 callsubr
          hintmask 10011110
          -82 callsubr
          hintmask 01101100
          -66 callgsubr
          hintmask 10111011
          -74 callsubr
          endchar
        </CharString>
        <CharString name="Racute">
          12 callsubr
          82 -21 165 -20 9 callsubr
          hintmask 1001001110000000
          -82 callsubr
          hintmask 0110001100000000
          -66 callgsubr
          hintmask 1011001011000000
          -74 callsubr
          hintmask 0000110000000000
          -9 359 -103 callsubr
        </CharString>
        <CharString name="Rcaron">
          12 callsubr
          72 -21 133 -20 9 callsubr
          hintmask 1001001110000000
          -82 callsubr
          hintmask 0110001100000000
          -66 callgsubr
          hintmask 1011001011000000
          -74 callsubr
          hintmask 0000110000000000
          -2 348 -56 callsubr
        </CharString>
        <CharString name="Rcedilla">
          782 91 callsubr
          37 callsubr
          9 callsubr
          hintmask 0010011110000000
          -82 callsubr
          hintmask 0001101100000000
          -66 callgsubr
          hintmask 1110111011000000
          -74 callsubr
          -107 -646 -96 callgsubr
        </CharString>
        <CharString name="Rcommaaccent">
          782 91 callsubr
          37 callsubr
          9 callsubr
          hintmask 0010011110000000
          -82 callsubr
          hintmask 0001101100000000
          -66 callgsubr
          hintmask 0010111011000000
          -74 callsubr
          hintmask 1100000000000000
          -107 -646 -96 callgsubr
        </CharString>
        <CharString name="Rdblgrave">
          12 callsubr
          82 104 callgsubr
          9 callsubr
          hintmask 1001001110000000
          -82 callsubr
          hintmask 0110001100000000
          -66 callgsubr
          hintmask 1011001011000000
          -74 callsubr
          hintmask 0000110000000000
          -51 257 -93 callgsubr
        </CharString>
        <CharString name="Rdotaccent">
          12 callsubr
          72 111 hstemhm
          147 89 100 110 -74 104 68 104 100 30 hintmask 1001010110000000
          -82 callsubr
          hintmask 0110010100000000
          -66 callgsubr
          hintmask 1011010011000000
          -74 callsubr
          hintmask 0000101000000000
          -98 307 -100 callgsubr
        </CharString>
        <CharString name="Rdotbelow">
          12 callsubr
          hstemhm
          147 89 100 110 -74 104 68 104 100 30 hintmask 1001101100000000
          -82 callsubr
          hintmask 0110101000000000
          -66 callgsubr
          hintmask 1011100110000000
          -74 callsubr
          hintmask 0000010000000000
          -98 -648 -100 callgsubr
        </CharString>
        <CharString name="Rdotbelowmacron">
          12 callsubr
          71 38 hstemhm
          147 89 100 110 -74 104 68 104 100 30 hintmask 1001010110000000
          -82 callsubr
          hintmask 0110010100000000
          -66 callgsubr
          hintmask 1011011011000000
          -74 callsubr
          -98 -648 -99 callgsubr
          hintmask 0000100000000000
          136 899 -28 callgsubr
        </CharString>
        <CharString name="Rho">
          -26 callsubr
        </CharString>
        <CharString name="S">
          29 callsubr
          hstem
          59 63 345 63 vstem
          530 185 rmoveto
          -99 callsubr
          endchar
        </CharString>
        <CharString name="S_S">
          1181 -21 33 470 30 162 30 hstem
          59 63 345 63 119 63 345 63 vstem
          530 185 rmoveto
          -99 callsubr
          590 hmoveto
          -99 callsubr
          endchar
        </CharString>
        <CharString name="Sacute">
          29 callsubr
          117 callsubr
          63 345 63 hintmask 11100110
          530 185 rmoveto
          -99 callsubr
          hintmask 00011000
          -90 677 -103 callsubr
        </CharString>
        <CharString name="Scaron">
          29 callsubr
          51 -21 133 -20 hstemhm
          59 63 345 63 hintmask 11100110
          530 185 rmoveto
          -99 callsubr
          hintmask 00011000
          -83 666 -56 callsubr
        </CharString>
        <CharString name="Scedilla">
          29 callsubr
          hstemhm
          59 63 -32 63 -31 63 252 63 -33 63 hintmask 01110010
          530 185 rmoveto
          87 -57 89 -102 24 vhcurveto
          -138 32 rlineto
          -64 15 -47 51 61 vvcurveto
          67 58 63 87 173 23 -162 -38 5 vhcurveto
          -11 2 1 -7 13 hhcurveto
          16 0 7 19 131 callsubr
          16 0 10 -13 -8 -2 -3 -11 -7 vhcurveto
          -35 -56 rlineto
          55 -50 -64 15 -55 hhcurveto
          -119 -88 -90 -102 -76 43 -42 19 -19 hvcurveto
          36 -36 33 -8 108 -25 86 -20 15 -3 33 -35 rrcurveto
          hintmask 10001001
          10 -11 25 -34 -49 vvcurveto
          -69 -53 -73 -94 -110 -114 53 139 -6 vhcurveto
          16 -1 0 7 -14 hhcurveto
          hintmask 10010000
          -16 0 -8 -19 hvcurveto
          -195 77 callgsubr
          8 1 2 10 7 vhcurveto
          4 6 4 9 28 42 44 -39 49 -18 46 -8 rrcurveto
          -78 vlineto
          40 46 -2 -34 -37 -102 0 -78 hvcurveto
          hintmask 00001000
          -16 -32 hlineto
          hintmask 10000110
          32 hlineto
          113 139 0 69 47 -55 21 -55 hvcurveto
          42 vlineto
          hintmask 00000001
          122 3 81 98 105 vvcurveto
          endchar
        </CharString>
        <CharString name="Scircumflex">
          29 callsubr
          51 -21 133 -20 hstemhm
          59 63 345 63 hintmask 11100110
          530 185 rmoveto
          -99 callsubr
          hintmask 00011000
          -83 565 -92 callgsubr
          endchar
        </CharString>
        <CharString name="Sdotbelow">
          29 callsubr
          hstemhm
          59 63 119 110 116 63 hintmask 11110100
          530 185 rmoveto
          -99 callsubr
          hintmask 00001000
          -179 -330 -100 callgsubr
        </CharString>
        <CharString name="Sigma">
          767 0 45 605 33 hstem
          707 239 rmoveto
          -31 hlineto
          -166 -22 -63 -28 -171 hhcurveto
          -292 hlineto
          262 279 rlineto
          12 11 0 2 5 vvcurveto
          4 -4 6 -3 4 vhcurveto
          -215 294 rlineto
          244 hlineto
          156 76 -23 -171 20 hvcurveto
          31 hlineto
          -29 227 rlineto
          -590 hlineto
          -22 -7 0 -23 hvcurveto
          263 -361 -252 -268 rlineto
          -9 -10 -2 -1 -6 vvcurveto
          -14 13 0 16 vhcurveto
          590 hlineto
          endchar
        </CharString>
        <CharString name="T">
          767 0 55 callsubr
          -32 callgsubr
          hintmask 11010000
          -68 callgsubr
          hintmask 00100000
          -9 callsubr
          endchar
        </CharString>
        <CharString name="T_uni0303">
          63 callsubr
          58 95 callsubr
          337 92 -32 callgsubr
          hintmask 11000100
          -68 callgsubr
          hintmask 00100000
          -9 callsubr
          hintmask 00001000
          -137 365 -86 callgsubr
        </CharString>
        <CharString name="T_uni0308">
          63 callsubr
          58 100 hstemhm
          227 99 11 92 13 99 -32 callgsubr
          hintmask 11000100
          -68 callgsubr
          hintmask 00100000
          -9 callsubr
          hintmask 00011010
          -371 334 -69 callgsubr
        </CharString>
        <CharString name="Tau">
          767 0 55 callsubr
          -32 callgsubr
          hintmask 11010000
          -68 callgsubr
          hintmask 00100000
          -9 callsubr
          endchar
        </CharString>
        <CharString name="Tcaron">
          63 callsubr
          79 -21 133 -20 hstemhm
          337 92 -32 callgsubr
          hintmask 11000100
          -68 callgsubr
          hintmask 00100000
          -9 callsubr
          hintmask 00011000
          -162 402 -56 callsubr
        </CharString>
        <CharString name="Tcedilla">
          767 -200 32 73 32 63 55 callsubr
          -78 64 22 88 hintmask 00010000
          728 449 rmoveto
          -20 227 rlineto
          -650 hlineto
          -20 -227 rlineto
          31 hlineto
          hintmask 00001000
          169 14 23 25 153 hhcurveto
          hintmask 00110100
          19 31 0 -2 8 hvcurveto
          19 -4 1 -10 -25 vvcurveto
          -520 vlineto
          -35 0 -14 -104 vhcurveto
          -38 -33 hlineto
          hintmask 11100011
          2 30 75 1 51 hhcurveto
          -98 -2 callsubr
          47 -55 21 -55 hvcurveto
          66 vlineto
          51 75 -1 -2 30 hvcurveto
          33 -38 vlineto
          hintmask 00010100
          -104 0 14 35 hvcurveto
          520 vlineto
          23 0 12 21 4 vhcurveto
          hintmask 00001000
          -9 callsubr
          endchar
        </CharString>
        <CharString name="Tdotbelow">
          63 callsubr
          hstemhm
          329 110 -102 92 -32 callgsubr
          hintmask 11001000
          -68 callgsubr
          hintmask 00100000
          -9 callsubr
          hintmask 00010000
          -258 -594 -100 callgsubr
        </CharString>
        <CharString name="Theta">
          826 -21 30 294 79 294 28 hstem
          59 97 60 31 331 31 60 97 vstem
          766 339 rmoveto
          201 -159 164 -194 -197 -157 -165 -200 -204 163 -156 190 194 160 158 202 vhcurveto
          -97 hmoveto
          -242 -147 -88 -109 -114 -143 92 238 240 142 97 114 119 138 -101 -236 vhcurveto
          -60 -70 rmoveto
          147 -31 -34 -331 34 -31 -147 31 34 331 -34 vlineto
          endchar
        </CharString>
        <CharString name="Thorn">
          664 0 33 145 33 308 33 98 33 hstem
          146 85 269 101 vstem
          601 365 rmoveto
          85 -75 102 -155 vhcurveto
          -140 48 hlineto
          24 0 17 26 5 vhcurveto
          4 18 32 0 24 hhcurveto
          33 vlineto
          -142 -3 -143 3 rlineto
          -33 vlineto
          20 31 0 -3 18 hvcurveto
          29 -5 2 -12 -30 vvcurveto
          -517 vlineto
          -24 0 -17 -26 -5 vhcurveto
          -4 -19 -31 0 -24 hhcurveto
          -33 vlineto
          142 3 143 -3 rlineto
          33 vlineto
          -20 -31 0 3 -18 hvcurveto
          -30 5 -1 12 30 vvcurveto
          95 151 vlineto
          125 94 87 100 hvcurveto
          -101 hmoveto
          -81 -59 -73 -94 vhcurveto
          -116 308 122 hlineto
          110 37 -91 -63 hvcurveto
          endchar
        </CharString>
        <CharString name="Tlinebelow">
          767 -163 38 125 55 callsubr
          hintmask 00100000
          728 449 rmoveto
          -20 227 rlineto
          -650 hlineto
          -20 -227 rlineto
          31 hlineto
          hintmask 00010000
          169 14 23 25 153 hhcurveto
          hintmask 01101000
          -68 callgsubr
          hintmask 00010000
          -9 callsubr
          hintmask 10000000
          -122 -612 -28 callgsubr
        </CharString>
        <CharString name="U">
          10 callgsubr
          hstem
          145 92 380 33 vstem
          -105 callgsubr
          endchar
        </CharString>
        <CharString name="U_uni032F">
          796 110 callsubr
          35 33 638 33 8 callsubr
          380 33 hintmask 00111100
          -105 callgsubr
          hintmask 11000000
          -168 -882 -43 callgsubr
        </CharString>
        <CharString name="Uacute">
          10 callgsubr
          82 102 callgsubr
          380 33 hintmask 11001100
          -105 callgsubr
          hintmask 00110000
          -185 212 -103 callsubr
        </CharString>
        <CharString name="Ubreve">
          10 callgsubr
          61 44 132 -20 8 callsubr
          380 33 hintmask 11001100
          -105 callgsubr
          hintmask 00110000
          -168 270 -98 callsubr
          endchar
        </CharString>
        <CharString name="Ucaron">
          10 callgsubr
          72 -21 133 -20 8 callsubr
          380 33 hintmask 11001100
          -105 callgsubr
          hintmask 00110000
          -178 201 -56 callsubr
        </CharString>
        <CharString name="Ucircumflex">
          10 callgsubr
          72 -21 133 -20 8 callsubr
          380 33 hintmask 11001100
          -105 callgsubr
          hintmask 00110000
          -178 100 -92 callgsubr
          endchar
        </CharString>
        <CharString name="Udblgrave">
          10 callgsubr
          82 104 callgsubr
          8 callsubr
          380 33 hintmask 11001100
          -105 callgsubr
          hintmask 00110000
          -198 110 -93 callgsubr
        </CharString>
        <CharString name="Udieresis">
          10 callgsubr
          51 100 8 callsubr
          28 94 callgsubr
          38 33 hintmask 11010010
          -105 callgsubr
          hintmask 00101100
          -25 callsubr
          endchar
        </CharString>
        <CharString name="Udieresisacute">
          10 callgsubr
          51 100 81 102 callgsubr
          28 94 callgsubr
          38 33 hintmask 1100010010000000
          -105 callgsubr
          hintmask 0011101100000000
          -25 callsubr
          -13 229 -103 callsubr
        </CharString>
        <CharString name="Udieresiscaron">
          10 callgsubr
          51 100 71 -21 133 -20 8 callsubr
          28 94 callgsubr
          38 33 hintmask 1100010010000000
          -105 callgsubr
          hintmask 0011101100000000
          -25 callsubr
          -6 218 -56 callsubr
        </CharString>
        <CharString name="Udieresisgrave">
          10 callgsubr
          51 100 81 102 callgsubr
          28 94 callgsubr
          38 33 hintmask 1100010010000000
          -105 callgsubr
          hintmask 0011101100000000
          -25 callsubr
          -85 137 -66 callsubr
        </CharString>
        <CharString name="Udotbelow">
          10 callgsubr
          8 callsubr
          130 110 140 33 hintmask 11101000
          -105 callgsubr
          hintmask 00010000
          -274 -795 -100 callgsubr
        </CharString>
        <CharString name="Ugrave">
          10 callgsubr
          82 102 callgsubr
          380 33 hintmask 11001100
          -105 callgsubr
          hintmask 00110000
          -257 120 -66 callsubr
        </CharString>
        <CharString name="Uhookabove">
          10 callgsubr
          93 -21 205 -20 8 callsubr
          380 33 hintmask 11001100
          -105 callgsubr
          hintmask 00110000
          -226 244 -107 callgsubr
        </CharString>
        <CharString name="Uhorn">
          20 callsubr
          111 20 callgsubr
          hintmask 0001101010000000
          768 726 rmoveto
          36 -22 32 -34 -37 -18 -28 -27 -28 18 -28 37 vhcurveto
          5 4 1 4 hhcurveto
          -15 -25 -29 -17 -33 -4 rrcurveto
          45 95 callgsubr
          -2 -5 -5 -1 -6 hhcurveto
          hintmask 0001000100000000
          -117 3 rlineto
          -33 vlineto
          26 27 -2 -14 22 hvcurveto
          17 -10 8 -19 -19 vvcurveto
          -358 vlineto
          hintmask 1110011000000000
          -58 -20 -55 -39 -41 vhcurveto
          -39 -38 -52 -23 -55 hhcurveto
          -50 -48 23 39 -32 hvcurveto
          -32 39 -12 52 63 vvcurveto
          386 vlineto
          13 5 13 11 4 vhcurveto
          6 17 39 0 28 hhcurveto
          hintmask 0001000000000000
          33 95 callgsubr
          -146 -3 rlineto
          hintmask 1101011010000000
          -147 3 rlineto
          -33 vlineto
          29 38 0 -6 17 hvcurveto
          12 -4 5 -13 -13 vvcurveto
          -386 vlineto
          -67 29 -63 49 -46 vhcurveto
          -47 51 67 -26 70 hhcurveto
          64 60 27 46 44 hvcurveto
          45 47 24 63 66 vvcurveto
          378 vlineto
          66 7 54 49 64 vvcurveto
          endchar
        </CharString>
        <CharString name="Uhornacute">
          20 callsubr
          82 -21 50 -20 135 20 callgsubr
          hintmask 0001010010100000
          -84 callsubr
          hintmask 0000101000000000
          -231 136 -103 callsubr
        </CharString>
        <CharString name="Uhorndotbelow">
          20 callsubr
          111 -20 8 callsubr
          106 110 103 92 -33 33 9 111 hintmask 0001100101000000
          768 726 rmoveto
          36 -22 32 -34 -37 -18 -28 -27 -28 18 -28 37 vhcurveto
          5 4 1 4 hhcurveto
          -15 -25 -29 -17 -33 -4 rrcurveto
          45 95 callgsubr
          -2 -5 -5 -1 -6 hhcurveto
          hintmask 0001000010000000
          -117 3 rlineto
          -33 vlineto
          26 27 -2 -14 22 hvcurveto
          17 -10 8 -19 -19 vvcurveto
          -358 vlineto
          hintmask 1110010100000000
          -58 -20 -55 -39 -41 vhcurveto
          -39 -38 -52 -23 -55 hhcurveto
          -50 -48 23 39 -32 hvcurveto
          -32 39 -12 52 63 vvcurveto
          386 vlineto
          13 5 13 11 4 vhcurveto
          6 17 39 0 28 hhcurveto
          hintmask 0001000000000000
          33 95 callgsubr
          -146 -3 rlineto
          hintmask 1101010101000000
          -147 3 rlineto
          -33 vlineto
          29 38 0 -6 17 hvcurveto
          12 -4 5 -13 -13 vvcurveto
          -386 vlineto
          -67 29 -63 49 -46 vhcurveto
          -47 51 67 -26 70 hhcurveto
          64 60 27 46 44 hvcurveto
          45 47 24 63 66 vvcurveto
          378 vlineto
          66 7 54 49 64 vvcurveto
          hintmask 0000001000000000
          -315 -871 -100 callgsubr
        </CharString>
        <CharString name="Uhorngrave">
          20 callsubr
          82 -21 50 -20 135 20 callgsubr
          hintmask 0001010010100000
          -84 callsubr
          hintmask 0000101000000000
          -274 44 -66 callsubr
        </CharString>
        <CharString name="Uhornhookabove">
          20 callsubr
          93 -21 39 -20 186 20 callgsubr
          hintmask 0001010010100000
          -84 callsubr
          hintmask 0000101000000000
          -243 168 -107 callgsubr
        </CharString>
        <CharString name="Uhorntilde">
          20 callsubr
          51 54 -9 54 -39 20 callgsubr
          hintmask 0001001010100000
          -84 callsubr
          hintmask 0000010000000000
          -170 88 rmoveto
          -20 19 rlineto
          hintmask 0000100000000000
          -76 callgsubr
          hintmask 0000010000000000
          -77 callsubr
          hintmask 0000100000000000
          20 -19 rlineto
          hintmask 0000010000000000
          -77 callgsubr
          hintmask 0000100000000000
          -80 callgsubr
        </CharString>
        <CharString name="Uhungarumlaut">
          10 callgsubr
          82 104 callgsubr
          8 callsubr
          380 33 hintmask 11001100
          -105 callgsubr
          hintmask 00110000
          -327 244 -70 callsubr
        </CharString>
        <CharString name="Umacron">
          10 callgsubr
          71 38 8 callsubr
          380 33 hintmask 11011000
          -105 callgsubr
          hintmask 00100000
          -138 104 -28 callgsubr
        </CharString>
        <CharString name="Uogonek">
          796 -214 53 140 33 638 33 hstem
          145 92 143 33 204 33 vstem
          751 650 rmoveto
          131 callgsubr
          -45 0 -27 hhcurveto
          -29 -44 0 3 -45 hvcurveto
          -33 vlineto
          101 0 -48 -26 hvcurveto
          -345 vlineto
          -136 -102 -83 -102 -54 -122 31 183 vhcurveto
          376 -95 callsubr
          -373 vlineto
          -129 100 -99 124 -19 vhcurveto
          -28 -29 -24 -39 -1 -34 0 callgsubr
          -22 49 24 48 7 15 10 13 12 12 rrcurveto
          2 hlineto
          134 105 112 137 hvcurveto
          348 vlineto
          26 0 48 101 vhcurveto
          endchar
        </CharString>
        <CharString name="Upsilon">
          826 0 33 593 78 hstem
          59 37 271 92 270 37 vstem
          766 552 rmoveto
          60 -44 92 -96 -164 -40 -202 -43 -8 vhcurveto
          -1 hlineto
          159 -30 -80 86 -104 hhcurveto
          -96 -44 -93 -59 -7 0 -13 17 10 5 6 8 1 hvcurveto
          80 8 89 0 8 hhcurveto
          135 35 -174 -104 hvcurveto
          -266 vlineto
          -35 0 -14 -94 vhcurveto
          -32 -33 hlineto
          3 45 79 0 48 hhcurveto
          48 79 26 callgsubr
          266 vlineto
          104 34 174 135 32 66 -14 -62 7 vhcurveto
          -7 1 1 -11 14 hhcurveto
          17 0 13 7 hvcurveto
          endchar
        </CharString>
        <CharString name="Uring">
          10 callgsubr
          31 35 106 35 8 callsubr
          80 39 132 39 90 33 hintmask 11001001
          -105 callgsubr
          hintmask 00110110
          -263 152 -51 callsubr
        </CharString>
        <CharString name="Utilde">
          10 callgsubr
          51 54 -9 54 8 callsubr
          380 33 hintmask 11001100
          -105 callgsubr
          hintmask 00010000
          -153 164 rmoveto
          -20 19 rlineto
          hintmask 00100000
          -76 callgsubr
          hintmask 00010000
          -77 callsubr
          hintmask 00100000
          20 -19 rlineto
          hintmask 00010000
          -77 callgsubr
          hintmask 00100000
          -80 callgsubr
        </CharString>
        <CharString name="V">
          796 0 -21 600 33 38 33 hstem
          773 650 80 callgsubr
          -29 -51 0 -19 hhcurveto
          -19 -46 0 3 -45 hvcurveto
          -33 vlineto
          44 24 -22 -27 -8 -1 -3 -5 -11 hvcurveto
          -198 -484 -209 508 rlineto
          -4 10 -2 4 4 vvcurveto
          29 53 0 25 vhcurveto
          33 vlineto
          -140 -3 rlineto
          -48 -30 0 3 -51 hvcurveto
          -33 vlineto
          60 22 0 -38 16 hvcurveto
          250 -611 rlineto
          -19 8 8 -3 11 hhcurveto
          18 3 8 14 6 hvcurveto
          239 582 rlineto
          66 27 63 1 20 hhcurveto
          endchar
        </CharString>
        <CharString name="W">
          89 callgsubr
          hstem
          -88 callsubr
          endchar
        </CharString>
        <CharString name="Wacute">
          89 callgsubr
          110 callgsubr
          hintmask 11000000
          -88 callsubr
          hintmask 00110000
          -380 212 -103 callsubr
        </CharString>
        <CharString name="Wcircumflex">
          89 callgsubr
          72 -21 133 -20 hstemhm
          hintmask 11000000
          -88 callsubr
          hintmask 00110000
          -373 100 -92 callgsubr
          endchar
        </CharString>
        <CharString name="Wdieresis">
          89 callgsubr
          51 100 hstemhm
          389 94 callgsubr
          hintmask 11000000
          -88 callsubr
          hintmask 00111000
          -582 21 callgsubr
        </CharString>
        <CharString name="Wgrave">
          89 callgsubr
          110 callgsubr
          hintmask 11000000
          -88 callsubr
          hintmask 00110000
          -452 120 -66 callsubr
        </CharString>
        <CharString name="X">
          -42 callgsubr
        </CharString>
        <CharString name="Xi">
          708 0 73 97 -20 136 -21 50 73 50 -20 120 -21 86 73 hstemhm
          44 31 -25 31 67 31 349 31 67 31 -25 31 hintmask 0000011010010000
          657 517 rmoveto
          -9 159 rlineto
          -589 hlineto
          -9 -159 rlineto
          31 hlineto
          1 21 2 42 9 14 rrcurveto
          9 6 55 0 18 hhcurveto
          363 hlineto
          0 71 0 6 -8 vhcurveto
          10 -13 3 -39 1 -26 rrcurveto
          37 -347 rmoveto
          hintmask 1111100101101000
          -31 hlineto
          -1 -23 -3 -47 -8 -16 rrcurveto
          -11 -6 -54 0 -24 hhcurveto
          -365 hlineto
          -3 -71 0 8 -8 hvcurveto
          -10 12 -3 51 -1 26 rrcurveto
          -31 hlineto
          9 -170 rlineto
          601 hlineto
          -95 265 rmoveto
          173 -31 -50 -349 50 -31 -173 31 50 349 -50 vlineto
          endchar
        </CharString>
        <CharString name="Y">
          17 callsubr
          hstemhm
          353 89 -11 89 hintmask 01101000
          780 650 80 callgsubr
          -30 -51 0 -19 hhcurveto
          -31 -30 0 3 -49 hvcurveto
          -33 vlineto
          36 -1 15 -17 -19 vvcurveto
          -13 -7 -10 -6 -9 vhcurveto
          -177 -265 -195 291 rlineto
          -5 7 -4 6 7 vvcurveto
          23 43 0 121 callsubr
          -144 -3 rlineto
          -55 -24 76 callsubr
          17 vlineto
          53 20 -6 -30 20 hvcurveto
          hintmask 10010000
          228 -341 rlineto
          -192 vlineto
          -3 callgsubr
          145 -3 rlineto
          33 vlineto
          hintmask 10001000
          -22 hlineto
          hintmask 00110000
          -78 0 12 33 131 callsubr
          208 309 15 22 30 44 85 1 rlinecurve
          endchar
        </CharString>
        <CharString name="Yacute">
          17 callsubr
          110 callgsubr
          353 89 -11 89 -85 callsubr
          hintmask 00011000
          -238 212 -103 callsubr
        </CharString>
        <CharString name="Ycircumflex">
          17 callsubr
          72 -21 133 -20 hstemhm
          353 89 -11 89 -85 callsubr
          hintmask 00011000
          -231 100 -92 callgsubr
          endchar
        </CharString>
        <CharString name="Ydieresis">
          17 callsubr
          51 100 hstemhm
          241 99 13 89 -11 89 -64 99 -85 callsubr
          hintmask 00011001
          -440 21 callgsubr
        </CharString>
        <CharString name="Ydotbelow">
          17 callsubr
          hstemhm
          343 110 -100 89 -11 89 hintmask 01100100
          780 650 80 callgsubr
          -30 -51 0 -19 hhcurveto
          -31 -30 0 3 -49 hvcurveto
          -33 vlineto
          36 -1 15 -17 -19 vvcurveto
          -13 -7 -10 -6 -9 vhcurveto
          -177 -265 -195 291 rlineto
          -5 7 -4 6 7 vvcurveto
          23 43 0 121 callsubr
          -144 -3 rlineto
          -55 -24 76 callsubr
          17 vlineto
          53 20 -6 -30 20 hvcurveto
          hintmask 10001000
          228 -341 rlineto
          -192 vlineto
          -3 callgsubr
          145 -3 rlineto
          33 vlineto
          hintmask 10000100
          -22 hlineto
          hintmask 00101000
          -78 0 12 33 131 callsubr
          208 309 15 22 30 44 85 1 rlinecurve
          hintmask 00010000
          -327 -795 -100 callgsubr
        </CharString>
        <CharString name="Ygrave">
          17 callsubr
          110 callgsubr
          353 89 -11 89 -85 callsubr
          hintmask 00011000
          -310 120 -66 callsubr
        </CharString>
        <CharString name="Yhookabove">
          17 callsubr
          93 -21 205 -20 hstemhm
          353 89 -11 89 -85 callsubr
          hintmask 00011010
          -279 244 -107 callgsubr
        </CharString>
        <CharString name="Ytilde">
          17 callsubr
          51 95 callsubr
          353 89 -11 89 -85 callsubr
          hintmask 00001000
          -206 164 -86 callgsubr
        </CharString>
        <CharString name="Z">
          59 callsubr
          hstem
          -60 callsubr
          endchar
        </CharString>
        <CharString name="Zacute">
          59 callsubr
          110 callgsubr
          -35 callgsubr
          -108 862 -103 callsubr
        </CharString>
        <CharString name="Zcaron">
          59 callsubr
          72 -21 133 -20 hstemhm
          -35 callgsubr
          -101 851 -56 callsubr
        </CharString>
        <CharString name="Zdotaccent">
          59 callsubr
          72 111 hstemhm
          270 110 -35 callgsubr
          -197 810 -100 callgsubr
        </CharString>
        <CharString name="Zdotbelow">
          59 callsubr
          hstemhm
          270 110 -34 callgsubr
          hintmask 00100000
          -197 -145 -100 callgsubr
        </CharString>
        <CharString name="Zeta">
          59 callsubr
          hstem
          -60 callsubr
          endchar
        </CharString>
        <CharString name="a">
          -55 callgsubr
          -3 callsubr
          hintmask 01011111
          514 90 rmoveto
          55 -31 -55 vlineto
          -41 -15 -16 -21 -37 0 46 11 vhcurveto
          208 vlineto
          98 -95 50 -91 -83 -74 -32 -66 -30 21 -18 26 28 19 20 27 24 -15 17 -22 5 vhcurveto
          25 37 54 0 7 hhcurveto
          56 56 -39 -82 hvcurveto
          -31 vlineto
          -58 -3 -67 -3 -70 -29 rrcurveto
          -88 -38 -17 -58 -33 vvcurveto
          hintmask 10000000
          -86 101 -26 69 73 45 41 40 22 vhcurveto
          hintmask 01000001
          -38 5 26 -38 44 hhcurveto
          10 85 4 91 hvcurveto
          -180 51 rmoveto
          hintmask 10100110
          -64 callgsubr
          endchar
        </CharString>
        <CharString name="aacute">
          -55 callgsubr
          82 -21 191 -103 callgsubr
          64 418 -90 callsubr
        </CharString>
        <CharString name="abreve">
          -55 callgsubr
          69 44 132 -103 callgsubr
          38 callsubr
          endchar
        </CharString>
        <CharString name="abreveacute">
          -55 callgsubr
          69 44 317 -103 callgsubr
          38 callsubr
          -53 138 -103 callsubr
        </CharString>
        <CharString name="abrevedotbelow">
          -55 callgsubr
          69 44 132 -20 hstemhm
          34 82 95 110 13 76 73 31 hintmask 0101100101100000
          -106 callsubr
          hintmask 0100000000100000
          -38 5 26 -38 44 hhcurveto
          10 85 4 91 hvcurveto
          -180 51 rmoveto
          hintmask 1010011101000000
          -64 callgsubr
          38 callsubr
          hintmask 0000000010000000
          -106 -836 -100 callgsubr
        </CharString>
        <CharString name="abrevegrave">
          -55 callgsubr
          69 44 132 -103 callgsubr
          38 callsubr
          -52 46 rmoveto
          -16 -26 -176 89 -12 6 -10 7 -3 16 rlinecurve
          24 -5 18 23 25 hhcurveto
          6 10 -2 -9 11 hvcurveto
          endchar
        </CharString>
        <CharString name="abrevehookabove">
          -55 callgsubr
          69 44 226 44 67 -20 -3 callsubr
          hintmask 0101100011100000
          -106 callsubr
          hintmask 0100000000100000
          -38 5 26 -38 44 hhcurveto
          10 85 4 91 hvcurveto
          -180 51 rmoveto
          hintmask 1010000011000000
          -64 callgsubr
          hintmask 0000011100000000
          38 callsubr
          -57 139 -107 callgsubr
        </CharString>
        <CharString name="abrevetilde">
          -55 callgsubr
          69 44 172 54 -9 54 -3 callsubr
          hintmask 0101100011100000
          -106 callsubr
          hintmask 0100000000100000
          -38 5 26 -38 44 hhcurveto
          10 85 4 91 hvcurveto
          -180 51 rmoveto
          hintmask 1010000011000000
          -64 callgsubr
          hintmask 0000010100000000
          38 callsubr
          15 120 rmoveto
          -20 19 rlineto
          hintmask 0000001000000000
          -76 callgsubr
          hintmask 0000000100000000
          -77 callsubr
          hintmask 0000001000000000
          20 -19 rlineto
          hintmask 0000000100000000
          -77 callgsubr
          hintmask 0000001000000000
          -80 callgsubr
        </CharString>
        <CharString name="acaron">
          -55 callgsubr
          90 -21 176 -103 callgsubr
          84 437 -54 callsubr
        </CharString>
        <CharString name="acircumflex">
          -55 callgsubr
          90 -21 176 -103 callgsubr
          84 289 -62 callsubr
          endchar
        </CharString>
        <CharString name="acircumflexacute">
          -55 callgsubr
          90 -21 318 -103 callgsubr
          83 291 -92 callgsubr
          -31 271 -103 callsubr
        </CharString>
        <CharString name="acircumflexdotbelow">
          -55 callgsubr
          90 -21 176 -20 hstemhm
          34 82 95 110 13 76 73 31 hintmask 0101100101100000
          -106 callsubr
          hintmask 0100000000100000
          -38 5 26 -38 44 hhcurveto
          10 85 4 91 hvcurveto
          -180 51 rmoveto
          hintmask 1010011101000000
          -64 callgsubr
          84 289 -62 callsubr
          hintmask 0000000010000000
          -84 -660 -100 callgsubr
        </CharString>
        <CharString name="acircumflexgrave">
          -55 callgsubr
          90 -21 133 -103 callgsubr
          83 291 -62 callgsubr
        </CharString>
        <CharString name="acircumflexhookabove">
          -55 callgsubr
          90 -21 338 -103 callgsubr
          83 291 -92 callgsubr
          68 272 -107 callgsubr
        </CharString>
        <CharString name="acircumflextilde">
          -55 callgsubr
          90 -21 173 54 -9 54 -3 callsubr
          hintmask 0101100011100000
          -106 callsubr
          hintmask 0100000000100000
          -38 5 26 -38 44 hhcurveto
          10 85 4 91 hvcurveto
          -180 51 rmoveto
          hintmask 1010000011000000
          -64 callgsubr
          hintmask 0000010100000000
          83 291 -92 callgsubr
          37 253 rmoveto
          -20 19 rlineto
          hintmask 0000001000000000
          -76 callgsubr
          hintmask 0000000100000000
          -77 callsubr
          hintmask 0000001000000000
          20 -19 rlineto
          hintmask 0000000100000000
          -77 callgsubr
          hintmask 0000001000000000
          -80 callgsubr
        </CharString>
        <CharString name="acute">
          531 528 60 callsubr
          hstem
          398 658 -90 callsubr
        </CharString>
        <CharString name="acute.cap">
          531 512 -21 165 -20 hstem
          410 609 -103 callsubr
        </CharString>
        <CharString name="acute.dup">
          531 528 60 callsubr
          hstem
          398 658 -90 callsubr
        </CharString>
        <CharString name="acute.ts1">
          531 531 66 callgsubr
          417 659 rmoveto
          21 -20 19 -21 -24 -13 -23 -16 -13 vhcurveto
          -42 -51 -22 -26 -21 -27 -23 -25 rlinecurve
          -8 5 11 -13 7 hhcurveto
          5 1 4 5 4 2 29 22 rcurveline
          94 71 rlineto
          17 12 23 13 23 vvcurveto
          endchar
        </CharString>
        <CharString name="adblgrave">
          -55 callgsubr
          83 -21 189 -103 callgsubr
          63 284 -93 callgsubr
        </CharString>
        <CharString name="adieresis">
          -55 callgsubr
          107 100 hstemhm
          34 82 10 99 82 99 -72 76 73 31 hintmask 0101101001100000
          -106 callsubr
          hintmask 0100000000100000
          -38 5 26 -38 44 hhcurveto
          10 85 4 91 hvcurveto
          -180 51 rmoveto
          hintmask 1010001001000000
          -64 callgsubr
          hintmask 0000010110000000
          -109 362 -57 callsubr
        </CharString>
        <CharString name="adotbelow">
          -55 callgsubr
          hstemhm
          34 82 95 110 13 76 73 31 hintmask 0101110110000000
          -106 callsubr
          hintmask 0100000010000000
          -38 5 26 -38 44 hhcurveto
          10 85 4 91 hvcurveto
          -180 51 rmoveto
          hintmask 1010010100000000
          -64 callgsubr
          hintmask 0000001000000000
          -13 -385 -100 callgsubr
        </CharString>
        <CharString name="ae">
          -74 callgsubr
          endchar
        </CharString>
        <CharString name="ae.dup">
          -74 callgsubr
          endchar
        </CharString>
        <CharString name="aeacute">
          -74 callgsubr
          hintmask 11100000
          159 525 -90 callsubr
        </CharString>
        <CharString name="agrave">
          -55 callgsubr
          82 -21 191 -103 callgsubr
          -3 290 -61 callsubr
        </CharString>
        <CharString name="ahookabove">
          -55 callgsubr
          75 -21 205 -103 callgsubr
          35 399 -107 callgsubr
        </CharString>
        <CharString name="amacron">
          -55 callgsubr
          138 38 -3 callsubr
          hintmask 0101101110000000
          -106 callsubr
          hintmask 0100000010000000
          -38 5 26 -38 44 hhcurveto
          10 85 4 91 hvcurveto
          -180 51 rmoveto
          hintmask 1010001100000000
          -64 callgsubr
          hintmask 0000010000000000
          123 344 -28 callgsubr
        </CharString>
        <CharString name="ampersand">
          826 -21 33 311 33 -4 28 18 33 120 33 103 28 hstemhm
          44 89 39 70 -29 70 100 31 136 70 115 31 hintmask 0101000000100000
          772 398 80 callgsubr
          -31 -44 0 -27 hhcurveto
          -45 -14 0 3 -61 hvcurveto
          -33 vlineto
          49 17 -21 -21 -12 -15 -22 -10 -17 hvcurveto
          -41 -63 -42 -66 -53 -56 rrcurveto
          hintmask 0010010011000000
          -15 17 -110 129 -47 114 rrcurveto
          131 133 0 46 24 vvcurveto
          48 -21 84 -74 vhcurveto
          hintmask 0000100100000000
          -68 -79 -57 -107 hvcurveto
          hintmask 1011001010110000
          -59 14 -73 27 -67 vhcurveto
          -104 -103 rlineto
          -37 -36 -28 -27 -55 vvcurveto
          -90 88 -62 105 82 68 39 35 42 vhcurveto
          -19 23 70 -55 94 hhcurveto
          77 71 53 89 2 hvcurveto
          -31 hlineto
          -76 -2 -66 -33 -47 hhcurveto
          -44 -46 27 57 -54 hvcurveto
          56 64 29 42 70 110 27 43 27 42 87 1 rrcurveto
          -389 186 rmoveto
          -52 -38 -41 -73 -81 vhcurveto
          hintmask 1100111101000000
          -23 64 -7 59 40 vvcurveto
          91 51 23 27 52 11 -75 -28 vhcurveto
          22 -511 rmoveto
          -43 -57 -55 -18 -50 hhcurveto
          -82 -28 89 57 48 16 33 11 17 hvcurveto
          7 10 1 1 57 56 46 -93 44 -64 90 -93 rrcurveto
          endchar
        </CharString>
        <CharString name="anglearc">
          826 -83 -21 708 -20 hstem
          589 46 vstem
          766 23 rmoveto
          10 -6 9 -10 3 vhcurveto
          -138 47 rlineto
          15 51 8 53 54 vvcurveto
          54 -8 53 -15 51 vhcurveto
          138 47 rlineto
          10 3 6 9 10 vvcurveto
          16 -16 11 -14 -5 vhcurveto
          -139 -48 -20 52 -28 48 -35 44 rlinecurve
          6 -4 -7 3 -7 hhcurveto
          -13 -10 -10 -13 -5 2 -5 3 -4 hvcurveto
          32 -40 25 -44 19 -47 -479 -164 rcurveline
          -10 -3 -6 -9 -10 vvcurveto
          -10 6 -9 10 -3 vhcurveto
          479 -164 -19 -47 -25 -44 -32 -40 rlinecurve
          -3 -4 -2 -5 -5 54 callsubr
          7 7 3 6 4 vhcurveto
          35 44 28 48 20 52 139 -48 rcurveline
          14 -5 16 11 16 vvcurveto
          -177 227 rmoveto
          -49 -7 -48 -14 -46 vhcurveto
          -415 143 415 143 rlineto
          14 -46 7 -48 -49 vvcurveto
          endchar
        </CharString>
        <CharString name="angleleft">
          96 callsubr
          353 -227 rmoveto
          13 -9 16 -5 11 vhcurveto
          -164 413 rlineto
          -3 7 -6 10 8 vvcurveto
          4 2 4 2 4 vhcurveto
          8 20 155 391 rlineto
          6 15 14 22 16 vvcurveto
          13 -10 11 -13 vhcurveto
          hintmask 11000000
          -5 -1 -12 -2 -4 -11 -4 -10 rlinecurve
          -9 -22 -56 -139 -87 -219 -25 -63 rlineto
          -4 -10 -7 -12 -11 vvcurveto
          -20 20 -35 10 -26 vhcurveto
          147 -369 10 -25 rlineto
          -12 5 7 -13 15 hhcurveto
          12 10 12 10 hvcurveto
          endchar
        </CharString>
        <CharString name="angleright">
          96 callsubr
          295 251 rmoveto
          10 -6 11 -4 9 vhcurveto
          -168 422 -5 12 rlineto
          15 -5 -6 21 -18 hhcurveto
          hintmask 11000000
          -6 -1 rlineto
          -11 -7 -13 -8 -12 8 -13 4 -10 hvcurveto
          65 -165 78 -195 7 -19 8 -18 7 -19 rlinecurve
          3 -8 7 -10 -9 vvcurveto
          -4 -2 -4 -2 -4 vhcurveto
          -7 -19 -154 -387 rlineto
          -7 -17 -14 -24 -17 vvcurveto
          -13 7 -11 15 vhcurveto
          2 hlineto
          20 2 5 27 6 15 169 424 rcurveline
          4 10 7 11 11 vvcurveto
          endchar
        </CharString>
        <CharString name="aogonek">
          531 -10 28 -23 38 385 28 -3 callsubr
          hintmask 01111100
          -13 callgsubr
          hintmask 10011100
          7 callsubr
          endchar
        </CharString>
        <CharString name="aogonekacute">
          531 -10 28 -23 38 385 28 82 -21 191 -20 -3 callsubr
          hintmask 01100111
          -13 callgsubr
          hintmask 10000111
          7 callsubr
          hintmask 00011000
          64 418 -90 callsubr
        </CharString>
        <CharString name="aring">
          -55 callgsubr
          81 35 106 35 hstemhm
          34 82 45 39 132 39 -37 76 73 31 hintmask 0101100110110000
          -106 callsubr
          hintmask 0100000000010000
          -38 5 26 -38 44 hhcurveto
          10 85 4 91 hvcurveto
          -180 51 rmoveto
          hintmask 1010000100100000
          -64 callgsubr
          hintmask 0000011011000000
          -2 375 -51 callsubr
        </CharString>
        <CharString name="aringacute">
          -55 callgsubr
          81 35 106 35 185 -20 hstemhm
          34 82 45 39 132 39 -37 76 73 31 hintmask 0101100011011000
          -106 callsubr
          hintmask 0100000000001000
          -38 5 26 -38 44 hhcurveto
          10 85 4 91 hvcurveto
          -180 51 rmoveto
          hintmask 1010000010010000
          -64 callgsubr
          hintmask 0000011101100000
          -2 375 -73 callgsubr
          3 227 -103 callsubr
        </CharString>
        <CharString name="asciicircum">
          556 583 -21 123 59 hstem
          -5 566 vstem
          561 584 rmoveto
          -283 160 -283 -160 11 -22 271 123 272 -123 rlineto
          endchar
        </CharString>
        <CharString name="asciitilde">
          556 193 43 -25 43 -8 43 -25 43 hstemhm
          hintmask 10010000
          555 290 40 callsubr
          hintmask 01000000
          24 callsubr
          hintmask 00100000
          20 10 20 11 17 14 rrcurveto
          endchar
        </CharString>
        <CharString name="asciitilde.low">
          556 0 43 -25 43 -8 43 -25 43 hstemhm
          0 555 hintmask 10010000
          555 97 40 callsubr
          hintmask 01001000
          24 callsubr
          hintmask 00101000
          20 10 20 11 17 14 rrcurveto
          endchar
        </CharString>
        <CharString name="asterisk">
          531 340 -21 431 -20 hstem
          236 58 vstem
          461 442 rmoveto
          19 -13 6 -10 4 vhcurveto
          -144 63 144 64 rlineto
          10 4 13 6 19 vvcurveto
          15 -12 16 -18 -7 -3 -1 -8 -12 vhcurveto
          -130 -90 15 151 rlineto
          17 2 -3 23 -28 hhcurveto
          -18 -14 -15 -14 3 hvcurveto
          -10 vlineto
          15 -152 -129 90 rlineto
          9 -13 -6 0 -4 hhcurveto
          -18 -12 -16 -15 -19 13 -6 10 -4 hvcurveto
          144 -63 -144 -64 rlineto
          -10 -4 -13 -6 -19 vvcurveto
          -6 2 -25 35 vhcurveto
          145 99 -15 -156 rlineto
          -5 vlineto
          -7 -4 9 -23 24 hhcurveto
          27 4 22 17 -2 hvcurveto
          -15 152 129 -90 rlineto
          -9 13 6 0 4 hhcurveto
          18 12 16 15 hvcurveto
          endchar
        </CharString>
        <CharString name="asterisk.math">
          531 57 -21 430 -20 hstemhm
          235 56 -51 56 hintmask 01100000
          460 161 rmoveto
          27 -48 12 -22 9 vhcurveto
          -59 27 -11 5 -11 5 -12 4 rlinecurve
          2 vlineto
          12 4 11 5 11 5 59 27 rcurveline
          27 11 43 11 26 vvcurveto
          15 -13 19 -17 -16 -13 -14 -8 -12 vhcurveto
          -109 -76 14 139 rlineto
          6 1 6 6 vvcurveto
          16 -8 16 -22 -14 -15 -10 -16 -1 vhcurveto
          -6 vlineto
          hintmask 00010000
          -17 2 -18 3 -17 vhcurveto
          10 -105 -109 76 rlineto
          8 -12 -13 14 -16 hhcurveto
          -17 -13 -19 -15 -27 48 -12 22 -9 hvcurveto
          59 -27 11 -5 11 -5 12 -4 rlinecurve
          -2 vlineto
          -12 -4 -11 -5 -11 -5 -59 -27 rcurveline
          -27 -11 -43 -11 -26 vvcurveto
          -15 13 -19 17 16 13 14 8 12 vhcurveto
          109 76 -14 -139 rlineto
          hintmask 10100000
          -6 -1 -6 -6 vvcurveto
          -16 8 -16 22 vhcurveto
          hintmask 00010000
          15 14 11 16 2 hvcurveto
          hintmask 00100000
          16 -3 16 -2 16 vhcurveto
          -11 114 109 -76 rlineto
          -8 12 13 -14 16 hhcurveto
          17 13 19 15 hvcurveto
          endchar
        </CharString>
        <CharString name="at">
          826 -10 28 109 28 384 28 109 28 hstemhm
          59 31 111 76 271 76 35 76 0 31 hintmask 1111111100000000
          766 72 rmoveto
          12 -11 0 -15 vhcurveto
          -9 hlineto
          -15 -2 0 -8 -17 hvcurveto
          -51 -119 -107 -7 -54 hhcurveto
          -193 -134 156 173 183 147 146 175 160 163 -125 -213 -101 -14 -82 -62 -31 -4 40 23 hvcurveto
          238 vlineto
          25 0 2 -28 vhcurveto
          -35 hlineto
          65 -45 -59 19 -45 hhcurveto
          -114 -97 -97 -123 -124 97 -96 114 55 47 27 41 36 hvcurveto
          -58 13 65 -10 26 hhcurveto
          hintmask 1111111010000000
          90 22 102 112 219 -172 144 -181 -197 -157 -161 -196 -186 145 -171 214 165 134 53 18 41 hvcurveto
          4 2 4 4 5 vvcurveto
          -218 193 rmoveto
          -19 0 -2 -14 -19 vhcurveto
          -38 -25 -45 -32 -51 hhcurveto
          -71 -65 81 111 111 64 81 72 51 44 -31 -38 25 hvcurveto
          15 -20 0 -2 -19 vvcurveto
          endchar
        </CharString>
        <CharString name="atilde">
          -55 callgsubr
          107 54 -9 54 -104 callgsubr
          hintmask 0000001000000000
          108 393 rmoveto
          -20 19 rlineto
          hintmask 0000010000000000
          -76 callgsubr
          hintmask 0000001000000000
          -77 callsubr
          hintmask 0000010000000000
          20 -19 rlineto
          hintmask 0000001000000000
          -77 callgsubr
          hintmask 0000010000000000
          -80 callgsubr
        </CharString>
        <CharString name="b">
          117 callgsubr
          209 44 hstemhm
          111 73 281 89 hintmask 01111100
          82 callsubr
          314 vlineto
          -149 -80 callsubr
          -594 31 vlineto
          36 62 rlineto
          hintmask 10110010
          -1 callsubr
        </CharString>
        <CharString name="backslash">
          531 750 -20 hstem
          471 -227 rmoveto
          0 0 6 -5 12 vhcurveto
          -359 935 rlineto
          12 -5 -4 12 -16 hhcurveto
          -13 -10 -10 -13 0 0 -6 5 -12 hvcurveto
          359 -935 rlineto
          -12 5 4 -12 16 hhcurveto
          13 10 10 13 hvcurveto
          endchar
        </CharString>
        <CharString name="baht">
          752 0 33 308 28 281 33 hstemhm
          48 101 0 85 118 32 -32 85 53 101 -26 97 -71 101 hintmask 0000000100000000
          692 183 rmoveto
          81 -77 79 -125 14 vhcurveto
          hintmask 1011010010000000
          109 23 63 66 68 vvcurveto
          89 -100 80 -134 vhcurveto
          -44 32 hlineto
          9 -7 7 -9 -9 -7 -7 -9 vhcurveto
          -32 -304 -33 22 vlineto
          -61 callgsubr
          -521 -79 callsubr
          304 -32 hlineto
          -9 7 -7 9 9 7 7 9 vhcurveto
          32 72 vlineto
          hintmask 0110010001000000
          138 98 88 95 hvcurveto
          -127 331 rmoveto
          -68 -60 -77 -114 vhcurveto
          -7 281 37 hlineto
          hintmask 1110101010000000
          99 45 -77 -59 hvcurveto
          -213 -145 rmoveto
          -118 240 hlineto
          34 2 7 46 vhcurveto
          70 hlineto
          239 -466 rmoveto
          -81 -67 -70 -102 vhcurveto
          hintmask 1100010000000000
          -38 308 hlineto
          hintmask 1100101001000000
          53 hlineto
          97 57 -78 -79 hvcurveto
          -239 -151 rmoveto
          -70 hlineto
          -46 -2 7 34 hvcurveto
          267 118 vlineto
          endchar
        </CharString>
        <CharString name="bar">
          295 750 -20 hstem
          124 46 vstem
          170 -214 rmoveto
          16 callgsubr
          endchar
        </CharString>
        <CharString name="bigcircle">
          683 0 46 591 46 hstem
          0 46 591 46 vstem
          -60 callgsubr
          endchar
        </CharString>
        <CharString name="blanksymbol">
          117 callgsubr
          -10 28 -24 44 155 28 -12 44 hstemhm
          111 73 3 89 189 89 hintmask 0011001011000000
          82 callsubr
          164 vlineto
          102 90 rlineto
          4 86 callsubr
          -81 -72 rlineto
          hintmask 0000100110000000
          108 vlineto
          -149 -80 callsubr
          -72 vlineto
          -71 -63 rlineto
          -3 -3 -2 -4 -5 vvcurveto
          -9 7 -7 9 vhcurveto
          hintmask 0100010010000000
          4 4 2 2 3 hvcurveto
          49 44 rlineto
          -479 31 vlineto
          36 62 rlineto
          hintmask 1011000001100000
          -1 callsubr
        </CharString>
        <CharString name="braceleft">
          70 callsubr
          -236 rmoveto
          13 -10 1 -5 vhcurveto
          -83 5 -39 37 -12 41 rrcurveto
          -3 9 0 2 36 vvcurveto
          150 vlineto
          95 0 14 -25 30 vhcurveto
          -10 11 -20 23 -60 19 rrcurveto
          115 36 0 62 48 vvcurveto
          150 vlineto
          93 0 16 27 26 vhcurveto
          29 27 36 12 40 2 rrcurveto
          12 1 8 0 13 vvcurveto
          14 -10 0 -13 -108 -95 -49 -77 -1 vhcurveto
          -234 vlineto
          -29 0 -32 -37 -30 vhcurveto
          -21 -18 -32 -14 -43 -3 rrcurveto
          -12 -1 -8 0 -13 vvcurveto
          -13 10 -1 5 vhcurveto
          99 -6 29 -54 7 -25 rrcurveto
          3 -12 0 -6 -31 vvcurveto
          -204 vlineto
          -30 0 -44 55 -36 vhcurveto
          -34 53 74 -4 22 hhcurveto
          13 10 0 14 hvcurveto
          endchar
        </CharString>
        <CharString name="braceright">
          70 callsubr
          250 rmoveto
          13 -10 1 -5 vhcurveto
          -112 6 -24 71 -1 27 rrcurveto
          234 vlineto
          31 0 43 -56 36 vhcurveto
          31 -47 -69 7 -32 hhcurveto
          -13 -11 0 -14 -13 10 -1 5 hvcurveto
          69 -4 51 -27 15 -52 rrcurveto
          3 -9 0 -2 -36 vvcurveto
          -150 vlineto
          -32 0 -51 3 -14 vhcurveto
          13 -49 46 -30 53 -16 rrcurveto
          -115 -34 0 -67 -45 vvcurveto
          -150 vlineto
          -32 0 -51 -3 -11 vhcurveto
          -17 -55 -59 -24 -54 -3 rrcurveto
          -12 -1 -8 0 -13 vvcurveto
          -14 11 0 13 106 97 48 78 1 vhcurveto
          234 vlineto
          29 0 32 37 30 vhcurveto
          36 30 43 4 16 1 rrcurveto
          12 1 8 0 13 vvcurveto
          endchar
        </CharString>
        <CharString name="bracketleft">
          101 callgsubr
          271 -250 rmoveto
          46 -101 908 101 46 -147 -1000 vlineto
          endchar
        </CharString>
        <CharString name="bracketright">
          101 callgsubr
          170 -250 rmoveto
          1000 -147 -46 101 -908 -101 -46 vlineto
          endchar
        </CharString>
        <CharString name="breve">
          121 callgsubr
          132 -20 hstem
          427 39 callgsubr
          endchar
        </CharString>
        <CharString name="breve.cap">
          531 491 44 132 -20 hstem
          427 667 -98 callsubr
          endchar
        </CharString>
        <CharString name="breve.ts1">
          649 518 44 133 -20 hstem
          104 28 384 28 vstem
          544 695 rmoveto
          -28 hlineto
          -93 -108 -40 -85 -84 -107 42 91 vhcurveto
          -28 hlineto
          -111 113 -66 107 105 115 65 112 vhcurveto
          endchar
        </CharString>
        <CharString name="brokenbar">
          295 750 -20 hstem
          124 46 vstem
          170 343 rmoveto
          371 vlineto
          14 0 22 -23 -23 0 -22 -14 vhcurveto
          -371 vlineto
          -11 11 -5 12 12 11 5 11 vhcurveto
          -557 vmoveto
          371 vlineto
          11 -11 5 -12 -12 -11 -5 -11 vhcurveto
          -371 vlineto
          27 callgsubr
          endchar
        </CharString>
        <CharString name="bullet">
          826 78 294 hstem
          266 294 57 callsubr
          endchar
        </CharString>
        <CharString name="c">
          17 callgsubr
          101 callsubr
          hintmask 11111000
          -52 callgsubr
          hintmask 10110100
          -17 callgsubr
          endchar
        </CharString>
        <CharString name="cacute">
          17 callgsubr
          82 -21 191 -20 101 callsubr
          hintmask 11100110
          -52 callgsubr
          hintmask 10100101
          -17 callgsubr
          hintmask 00011000
          -49 538 -90 callsubr
        </CharString>
        <CharString name="caron">
          84 callgsubr
          176 -20 hstem
          418 677 -54 callsubr
        </CharString>
        <CharString name="caron.cap">
          93 callsubr
          133 -20 hstem
          417 598 -56 callsubr
        </CharString>
        <CharString name="caron.ts1">
          649 571 -21 156 -20 hstem
          523 681 rmoveto
          -16 25 -14 -5 -169 -92 -169 92 -14 5 -6 -7 -10 -18 199 -131 rlineto
          endchar
        </CharString>
        <CharString name="ccaron">
          17 callgsubr
          90 -21 176 -20 101 callsubr
          hintmask 11100110
          -52 callgsubr
          hintmask 10100101
          -17 callgsubr
          hintmask 00011000
          -29 557 -54 callsubr
        </CharString>
        <CharString name="ccedilla">
          17 callgsubr
          hstemhm
          35 89 10 94 108 89 -89 94 hintmask 11110100
          -52 callgsubr
          hintmask 00111010
          26 21 18 30 62 -68 30 -94 -139 -94 -111 -119 -114 84 -92 109 -17 hvcurveto
          -88 vlineto
          40 46 -2 -34 -37 -102 0 -78 hvcurveto
          -16 -32 32 hlineto
          112 140 0 69 47 -56 21 -54 hvcurveto
          54 vlineto
          118 14 31 104 11 vvcurveto
          endchar
        </CharString>
        <CharString name="ccircumflex">
          17 callgsubr
          90 -21 176 -20 101 callsubr
          hintmask 11100110
          -52 callgsubr
          hintmask 10100101
          -17 callgsubr
          hintmask 00011000
          -29 409 -62 callsubr
          endchar
        </CharString>
        <CharString name="cdotaccent">
          17 callgsubr
          101 111 hstemhm
          35 89 81 110 21 89 -89 94 hintmask 11101010
          -52 callgsubr
          hintmask 10101001
          -17 callgsubr
          hintmask 00010100
          -126 482 -100 callgsubr
        </CharString>
        <CharString name="cedilla">
          10 callsubr
        </CharString>
        <CharString name="cedilla.dup">
          10 callsubr
        </CharString>
        <CharString name="cent">
          17 callgsubr
          hstemhm
          35 89 120 32 60 32 -32 89 -89 94 hintmask 10101010
          84 callsubr
          12 -13 0 -3 -7 -5 -1 -10 -3 vhcurveto
          -21 -7 -28 -79 -99 hhcurveto
          394 vlineto
          hintmask 01000100
          16 45 -2 -16 31 hvcurveto
          -28 -9 -4 -23 -12 vvcurveto
          -27 19 -20 28 vhcurveto
          hintmask 10111001
          26 21 18 30 60 -64 30 -90 2 hvcurveto
          17 vlineto
          8 -7 8 -9 -9 -7 -8 -8 vhcurveto
          -18 vlineto
          -126 -12 -83 -105 -112 vvcurveto
          -120 93 -95 116 -10 vhcurveto
          -23 vlineto
          -9 7 -7 9 9 7 7 9 vhcurveto
          22 vlineto
          132 6 33 112 12 vvcurveto
          -197 -95 rmoveto
          -57 14 -63 54 124 vvcurveto
          126 57 57 63 12 vhcurveto
          endchar
        </CharString>
        <CharString name="cent.oldstyle">
          17 callgsubr
          hstem
          274 94 -32 32 -32 94 cntrmask 00011100
          84 callsubr
          12 -13 0 -3 -7 -5 -1 -10 -3 vhcurveto
          -21 -7 -28 -79 -100 hhcurveto
          -17 -19 4 8 -19 hvcurveto
          87 380 19 -2 23 -4 19 -10 rlinecurve
          -28 -9 -4 -23 -12 vvcurveto
          -27 19 -20 28 26 21 18 30 51 -47 30 -70 8 vhcurveto
          4 16 rlineto
          10 2 -7 10 -11 hhcurveto
          -7 -7 -6 -7 -1 hvcurveto
          -5 -20 rlineto
          -13 hlineto
          -139 -94 -111 -119 -97 61 -81 85 -33 hvcurveto
          -8 -33 rlineto
          -10 -2 8 -10 10 hhcurveto
          8 6 5 7 1 hvcurveto
          8 32 rlineto
          -4 17 18 -2 18 hhcurveto
          141 35 118 12 hvcurveto
          -167 295 rmoveto
          -83 -365 rlineto
          -37 29 -30 52 86 vvcurveto
          144 74 54 73 vhcurveto
          endchar
        </CharString>
        <CharString name="centigrade">
          1003 -20 33 435 46 144 46 -12 33 hstemhm
          295 104 513 31 hintmask 10011100
          943 234 rmoveto
          14 -5 7 -11 -11 -4 -7 -11 vhcurveto
          -7 vlineto
          -117 -11 -93 -100 -135 hhcurveto
          -81 -81 41 65 -49 hvcurveto
          -46 62 -17 80 77 vvcurveto
          65 9 67 31 59 vhcurveto
          84 43 94 59 95 hhcurveto
          133 81 -110 -116 23 hvcurveto
          -13 2 -2 -17 18 hhcurveto
          14 3 8 10 hvcurveto
          253 vlineto
          8 -1 10 -11 -20 -48 -86 -2 -1 vhcurveto
          51 -60 -48 37 -91 hhcurveto
          -193 -166 -154 -194 -9 hvcurveto
          -14 vlineto
          -208 174 -155 196 136 142 102 152 vhcurveto
          -707 331 rmoveto
          hintmask 01100000
          59 -45 60 -76 vhcurveto
          -8 hlineto
          -61 -7 -46 -50 -60 vvcurveto
          -59 45 -60 76 vhcurveto
          8 hlineto
          61 7 46 50 60 vvcurveto
          -46 1 rmoveto
          -38 -34 -34 -38 vhcurveto
          -2 hlineto
          -36 1 -29 29 -5 35 rrcurveto
          7 vlineto
          38 34 34 38 vhcurveto
          2 hlineto
          36 -1 29 -29 5 -35 rrcurveto
          endchar
        </CharString>
        <CharString name="circumflex">
          84 callgsubr
          176 -20 hstem
          418 529 -62 callsubr
          endchar
        </CharString>
        <CharString name="circumflex.cap">
          93 callsubr
          133 -20 hstem
          417 497 -92 callgsubr
          endchar
        </CharString>
        <CharString name="circumflex.dup">
          84 callgsubr
          176 -20 hstem
          418 529 -62 callsubr
          endchar
        </CharString>
        <CharString name="colon">
          295 0 111 209 111 hstem
          92 111 vstem
          203 375 2 callsubr
          -320 vmoveto
          36 callgsubr
        </CharString>
        <CharString name="colonmonetary">
          83 callgsubr
          243 32 235 34 vstem
          707 234 rmoveto
          10 0 9 -16 -11 -3 -5 -10 -1 vhcurveto
          -154 -8 -124 -72 -106 hhcurveto
          659 vlineto
          94 116 -67 -172 26 hvcurveto
          -8 1 1 -7 14 hhcurveto
          17 0 7 19 hvcurveto
          235 vlineto
          16 0 10 -13 -7 -1 -1 -13 -9 vhcurveto
          -51 -74 -35 38 -62 47 -91 3 rlinecurve
          11 vlineto
          9 -7 7 -9 -9 -7 -7 -9 vhcurveto
          -12 vlineto
          -191 -11 -156 -156 -194 vvcurveto
          -194 155 -157 192 -11 vhcurveto
          -12 vlineto
          -9 7 -7 9 9 7 7 9 vhcurveto
          11 vlineto
          163 5 106 130 120 vvcurveto
          -301 -220 rmoveto
          -93 12 -150 69 247 vvcurveto
          241 145 73 98 13 vhcurveto
          endchar
        </CharString>
        <CharString name="comma">
          295 -173 -21 194 111 hstem
          119 28 40 28 vstem
          215 4 rmoveto
          55 -20 52 -48 -33 -22 -26 -29 -30 21 -26 35 22 14 12 3 3 vhcurveto
          -30 0 -82 -76 -71 vhcurveto
          -3 -3 -3 -2 -6 vvcurveto
          -9 9 -6 5 13 83 78 120 vhcurveto
          endchar
        </CharString>
        <CharString name="copyleft">
          78 callsubr
          hintmask 10111100
          -60 callgsubr
          -109 hmoveto
          103 -86 83 -103 -50 -34 -25 -20 -18 vhcurveto
          -27 38 rlineto
          7 -4 -1 0 -3 hhcurveto
          -7 0 -5 -8 hvcurveto
          -121 vlineto
          -10 0 -3 9 7 0 3 4 1 vhcurveto
          89 13 60 34 48 hhcurveto
          49 93 -31 -138 -143 -98 -27 -44 -54 -64 37 79 -4 hvcurveto
          hintmask 01000000
          6 -1 -1 2 -6 hhcurveto
          -8 0 -4 -6 -62 57 -69 86 104 86 83 104 hvcurveto
          endchar
        </CharString>
        <CharString name="copyright">
          78 callsubr
          hintmask 11011100
          -60 callgsubr
          -149 -56 rmoveto
          6 0 4 -8 -6 -1 -2 -6 -1 vhcurveto
          -79 -4 -64 -37 -54 hhcurveto
          -44 -97 27 143 138 92 31 49 hvcurveto
          hintmask 00100000
          48 60 -34 -89 13 hvcurveto
          -4 1 0 -4 7 hhcurveto
          9 0 4 10 hvcurveto
          121 vlineto
          8 0 5 -6 -4 -1 0 -7 -4 vhcurveto
          -26 -38 rlineto
          20 -19 -34 25 -49 hhcurveto
          -104 -86 -83 -103 -104 86 -83 104 87 56 69 62 hvcurveto
          endchar
        </CharString>
        <CharString name="copyright.alt">
          692 -131 46 600 46 hstem
          0 46 600 46 vstem
          692 215 rmoveto
          213 -134 133 -212 -212 -134 -133 -213 -212 134 -134 212 212 134 134 212 vhcurveto
          -46 hmoveto
          -184 -116 -116 -184 -184 -116 116 184 184 116 116 184 184 116 -116 -184 vhcurveto
          -110 -68 rmoveto
          7 0 5 -10 -7 -2 -3 -6 vhcurveto
          -97 -5 -78 -45 -67 hhcurveto
          -54 -120 32 175 170 114 38 60 59 73 -42 -109 16 hvcurveto
          -5 1 1 -4 9 hhcurveto
          10 0 4 12 hvcurveto
          148 vlineto
          10 0 7 -8 -4 -1 -1 -8 -6 vhcurveto
          -32 -47 rlineto
          25 -22 -42 31 -61 hhcurveto
          -126 -106 -102 -127 -127 105 -101 128 106 69 84 76 hvcurveto
          endchar
        </CharString>
        <CharString name="currency">
          826 39 46 330 46 hstem
          202 46 330 46 vstem
          663 hmoveto
          16 16 -15 16 -10 10 -76 76 rcurveline
          29 36 17 46 50 vvcurveto
          50 -17 46 -29 37 vhcurveto
          75 75 10 10 16 16 -17 16 rlinecurve
          -16 16 -15 -15 -10 -10 -76 -76 rcurveline
          29 -36 -46 17 -50 hhcurveto
          -50 -46 -17 -29 -36 hvcurveto
          -77 76 -10 10 -15 16 -16 -16 rlinecurve
          -17 -17 16 -15 10 -10 76 -77 rcurveline
          -29 -36 -17 -46 -50 vvcurveto
          -50 17 -46 29 -36 vhcurveto
          -76 -76 -10 -10 -16 -16 17 -16 rlinecurve
          16 -16 15 15 10 10 77 77 rcurveline
          -30 36 46 -17 50 hhcurveto
          50 46 17 29 36 hvcurveto
          76 -76 10 -10 16 -15 16 16 rlinecurve
          -85 250 rmoveto
          -91 -74 -74 -91 -91 -74 74 91 91 74 74 91 91 74 -74 -91 vhcurveto
          endchar
        </CharString>
        <CharString name="cwm">
          0 endchar
        </CharString>
        <CharString name="cwmascender">
          0 endchar
        </CharString>
        <CharString name="cwmcapital">
          0 endchar
        </CharString>
        <CharString name="d">
          87 callgsubr
          209 47 callsubr
          hintmask 01001001
          36 callsubr
          hintmask 10110111
          -22 callsubr
          hintmask 01000000
          49 callgsubr
          hintmask 10100110
          -31 callsubr
          endchar
        </CharString>
        <CharString name="dagger">
          472 393 75 0 75 161 -20 hstemhm
          198 75 hintmask 01110000
          412 430 rmoveto
          81 callsubr
          17 0 23 11 60 rrcurveto
          4 24 9 58 34 vvcurveto
          8 0 37 -37 -38 0 -36 -9 -33 8 -50 5 -31 vhcurveto
          11 -66 0 -14 1 -22 81 callgsubr
          hvcurveto
          hintmask 10010000
          -8 4 -30 37 15 24 4 8 24 vhcurveto
          26 7 18 4 16 2 -1 -16 -1 -17 -8 -36 rrcurveto
          -15 -70 0 -7 -53 vvcurveto
          -120 8 -163 13 -129 vhcurveto
          -15 1 1 -7 14 hhcurveto
          7 7 1 12 2 hvcurveto
          2 14 20 209 198 vvcurveto
          49 0 11 -13 62 vhcurveto
          -10 45 0 10 -2 22 70 callgsubr
        </CharString>
        <CharString name="daggerdbl">
          472 -15 75 380 74 190 -20 hstem
          173 75 -50 75 -50 75 cntrmask 00011100
          412 477 rmoveto
          20 -15 17 -23 -24 -25 -6 -8 -26 vhcurveto
          -28 -7 -6 -1 -17 -2 1 20 1 11 9 41 rrcurveto
          5 29 9 42 28 125 callgsubr
          8 -40 7 -35 vhcurveto
          8 -36 1 -12 1 -19 -16 2 -7 1 -27 7 rrcurveto
          9 -31 -22 5 -23 hhcurveto
          -23 -15 -17 -20 -16 7 -21 35 11 13 0 14 47 hvcurveto
          27 7 8 1 16 2 -1 -20 -1 -11 -9 -41 rrcurveto
          -5 -29 -9 -42 -28 124 callgsubr
          -8 40 -7 35 vhcurveto
          -8 36 -1 12 -1 19 17 -2 6 -1 27 -7 rrcurveto
          -13 44 13 -1 15 hhcurveto
          32 10 18 19 hvcurveto
          -455 vmoveto
          81 callsubr
          21 1 10 9 41 rrcurveto
          6 31 8 41 27 125 callgsubr
          9 -42 6 -33 vhcurveto
          8 -36 1 -12 1 -19 81 callgsubr
          -8 4 -30 37 15 24 4 8 24 hvcurveto
          26 7 18 4 16 2 -1 -21 -1 -10 -9 -41 rrcurveto
          -6 -31 -8 -41 -27 124 callgsubr
          -9 42 -6 33 vhcurveto
          -8 36 -1 12 -1 19 70 callgsubr
        </CharString>
        <CharString name="dblbracketleft">
          428 -249 46 908 46 hstem
          123 46 87 46 vstem
          404 -249 rmoveto
          46 -102 908 102 46 -281 -1000 vlineto
          133 46 rmoveto
          -87 908 87 hlineto
          endchar
        </CharString>
        <CharString name="dblbracketright">
          428 -249 46 908 46 hstem
          125 46 87 46 vstem
          304 -249 rmoveto
          1000 -280 -46 101 -908 -101 -46 vlineto
          234 46 rmoveto
          -87 908 87 hlineto
          endchar
        </CharString>
        <CharString name="dblgrave.ts1">
          531 532 -21 190 -20 hstem
          219 526 32 callgsubr
          204 15 32 callgsubr
          endchar
        </CharString>
        <CharString name="dblverticalbar">
          433 750 -20 hstem
          124 46 92 46 vstem
          170 -214 rmoveto
          16 callgsubr
          138 hmoveto
          16 callgsubr
          endchar
        </CharString>
        <CharString name="dcaron">
          87 callgsubr
          45 -21 146 83 -44 47 callsubr
          hintmask 0100001001000000
          36 callsubr
          hintmask 1010010111000000
          -22 callsubr
          hintmask 0100000000000000
          49 callgsubr
          hintmask 1010001110000000
          -31 callsubr
          207 277 127 callsubr
          hintmask 0001100000000000
          -23 15 -19 27 16 11 9 2 2 vhcurveto
          -22 0 -62 -57 -53 vhcurveto
          -2 -2 -3 -2 -4 vvcurveto
          -7 7 -5 4 10 62 59 90 vhcurveto
          endchar
        </CharString>
        <CharString name="dcroat">
          87 callgsubr
          90 32 87 47 callsubr
          hintmask 0101010010000000
          554 58 callsubr
          442 76 32 -76 131 vlineto
          hintmask 1011101110000000
          -149 -80 callsubr
          -31 -169 -32 169 -148 vlineto
          38 -35 -47 20 -52 hhcurveto
          -125 -111 -97 -129 -123 100 -102 126 59 49 28 35 33 hvcurveto
          -63 vlineto
          hintmask 0100000000000000
          49 callgsubr
          hintmask 1010001100000000
          -31 callsubr
          endchar
        </CharString>
        <CharString name="ddotbelow">
          87 callgsubr
          209 33 -33 44 hstemhm
          35 89 117 110 -22 73 3 73 hintmask 0100100010000000
          36 callsubr
          hintmask 1011010110000000
          -22 callsubr
          hintmask 0100000000000000
          49 callgsubr
          hintmask 1010010100000000
          -31 callsubr
          hintmask 0000001000000000
          -51 -482 -100 callgsubr
        </CharString>
        <CharString name="degree">
          398 388 46 203 46 hstem
          52 46 203 46 vstem
          347 536 rmoveto
          81 -66 66 -82 -81 -66 -66 -81 -82 66 -66 81 82 66 66 82 vhcurveto
          -46 hmoveto
          -56 -46 -46 -56 -56 -45 46 56 56 45 45 56 56 46 -45 -56 vhcurveto
          endchar
        </CharString>
        <CharString name="diameter">
          826 -83 46 574 46 hstem
          80 46 574 46 vstem
          766 581 rmoveto
          104 callsubr
          -6 -6 -3 -4 -4 vhcurveto
          -96 -95 rlineto
          50 -58 -77 31 -83 hhcurveto
          -184 -149 -149 -184 -84 31 -76 51 -59 hvcurveto
          -96 -96 rlineto
          -4 -4 -3 -6 -6 54 callsubr
          6 6 3 4 4 vhcurveto
          96 96 rlineto
          -51 59 76 -31 84 hhcurveto
          184 149 149 184 84 -31 77 -51 58 hvcurveto
          95 96 rlineto
          4 4 3 6 6 vvcurveto
          -66 -331 rmoveto
          -159 -128 -128 -159 -71 -65 26 43 -50 vhcurveto
          404 404 rlineto
          43 -50 26 -65 -71 vvcurveto
          -101 219 rmoveto
          -405 -405 rlineto
          -42 50 -26 65 71 vvcurveto
          159 128 128 159 71 65 -26 -42 50 vhcurveto
          endchar
        </CharString>
        <CharString name="died">
          531 -4 -21 363 53 -47 41 218 -20 hstemhm
          227 57 -44 57 -53 57 -55 57 hintmask 01000000
          485 358 rmoveto
          11 vlineto
          13 -3 9 -15 vhcurveto
          hintmask 00100010
          -59 -59 -6 -59 hhcurveto
          61 4 62 7 60 vhcurveto
          hintmask 00000001
          1 6 1 7 6 vvcurveto
          4 vlineto
          hintmask 00011000
          10 -2 -9 2 -8 hhcurveto
          hintmask 00010001
          -38 hlineto
          hintmask 00001000
          -10 -9 -3 -12 -16 4 -15 1 -16 hvcurveto
          hintmask 00100100
          5 -52 3 -52 -52 vvcurveto
          hintmask 01000000
          -59 -59 6 -59 hhcurveto
          -15 -3 -9 -13 hvcurveto
          -8 vlineto
          -12 2 -11 16 17 16 2 1 17 vhcurveto
          hintmask 00100100
          127 3 rlineto
          hintmask 00001000
          -114 -3 -115 -10 -113 vhcurveto
          -9 vlineto
          hintmask 10000010
          -10 3 -8 14 vhcurveto
          37 hlineto
          hintmask 00000001
          8 11 1 9 3 hvcurveto
          12 vlineto
          hintmask 00100100
          31 -5 33 -1 31 vhcurveto
          -7 252 127 -3 rlineto
          hintmask 01000000
          -1 17 17 -2 17 hhcurveto
          15 2 10 10 hvcurveto
          endchar
        </CharString>
        <CharString name="dieresis">
          531 553 100 hstem
          126 99 82 99 vstem
          -40 callgsubr
          endchar
        </CharString>
        <CharString name="dieresis.cap">
          531 481 100 hstem
          109 94 callgsubr
          vstem
          -6 callgsubr
          endchar
        </CharString>
        <CharString name="dieresis.dup">
          531 553 100 hstem
          126 99 82 99 vstem
          -40 callgsubr
          endchar
        </CharString>
        <CharString name="dieresis.ts1">
          531 568 104 hstem
          419 620 rmoveto
          23 -15 29 -34 vhcurveto
          -3 -4 -1 -3 hhcurveto
          -25 -3 -19 -23 -25 vvcurveto
          -26 20 -26 31 31 21 25 27 vhcurveto
          -205 hmoveto
          26 -20 26 -31 vhcurveto
          -3 -3 -1 -3 hhcurveto
          -28 -4 -15 -24 -23 vvcurveto
          -23 15 -29 34 29 25 22 30 vhcurveto
          endchar
        </CharString>
        <CharString name="discount">
          531 16 128 -122 -21 749 -20 21 -20 hstemhm
          95 130 -57 128 10 128 hintmask 00010000
          470 728 rmoveto
          12 -9 11 -13 vhcurveto
          hintmask 01100100
          -5 -1 -16 -3 -5 -20 -7 -13 rlinecurve
          -21 -37 -19 -37 -19 -38 -266 -512 rcurveline
          -10 -18 -21 -31 -16 vvcurveto
          -13 10 -11 14 vhcurveto
          1 hlineto
          26 3 42 105 27 52 117 225 rcurveline
          155 298 rlineto
          7 14 12 14 16 vvcurveto
          -245 -56 rmoveto
          -37 -27 -20 -30 -7 vhcurveto
          -7 hlineto
          hintmask 10001010
          -36 -30 30 35 37 27 20 30 7 hvcurveto
          7 hlineto
          36 30 -30 -35 hvcurveto
          209 -593 rmoveto
          -34 -27 -29 -35 vhcurveto
          -6 hlineto
          -38 -22 35 30 34 27 29 35 hvcurveto
          6 hlineto
          38 22 -35 -30 hvcurveto
          endchar
        </CharString>
        <CharString name="divide">
          826 25 111 91 46 90 111 hstem
          357 111 vstem
          766 250 11 callsubr
          -298 168 2 callsubr
          -338 vmoveto
          36 callgsubr
        </CharString>
        <CharString name="divorced">
          531 -83 -21 139 54 -53 53 230 54 40 53 -53 54 139 -20 hstemhm
          -203 53 284 37 58 53 -53 62 -54 53 -53 62 -59 62 57 37 284 53 hintmask 0100100000000011
          733 252 rmoveto
          107 -76 107 -117 vhcurveto
          -11 hlineto
          -110 -13 -60 -103 -99 vvcurveto
          -102 70 -114 112 121 71 113 104 vhcurveto
          -562 hmoveto
          hintmask 0000010000000000
          102 -72 113 -111 vhcurveto
          hintmask 0010101110100000
          -5 -4 -1 -5 hhcurveto
          -114 -12 -63 -103 -101 vvcurveto
          -106 76 -108 116 vhcurveto
          11 hlineto
          112 14 59 102 100 vvcurveto
          133 338 rmoveto
          8 -6 7 -7 1 vhcurveto
          -44 hlineto
          hintmask 0000000000001000
          -4 -3 0 -1 -3 hvcurveto
          -9 -3 -2 -7 -8 vvcurveto
          hintmask 0000000000100000
          -8 2 -10 1 -6 vhcurveto
          hintmask 0001000000000100
          6 -63 5 -63 -64 vvcurveto
          -54 vlineto
          hintmask 0000000000100000
          -124 -4 -123 -7 -124 vhcurveto
          -10 -2 -9 -10 vvcurveto
          -7 vlineto
          hintmask 1000000000000100
          -8 5 -6 8 -2 vhcurveto
          hintmask 1000000001000000
          42 hlineto
          15 6 5 14 hvcurveto
          hintmask 0000000000000100
          5 -1 6 4 vvcurveto
          9 vlineto
          hintmask 0000000000010000
          -7 118 -5 119 119 vvcurveto
          hintmask 0000000000001000
          84 2 83 7 83 vhcurveto
          hintmask 0010100110000111
          3 33 rlineto
          1 4 1 4 4 vvcurveto
          376 -334 rmoveto
          -7 0 -7 -1 -6 vhcurveto
          -69 -7 -34 -78 -97 hhcurveto
          -90 -55 80 84 84 58 76 88 88 50 -76 -81 hvcurveto
          -546 -3 rmoveto
          -84 -55 -80 -90 -82 -49 64 84 -8 vhcurveto
          9 vlineto
          79 40 88 98 79 67 -65 -95 vhcurveto
          endchar
        </CharString>
        <CharString name="dlinebelow">
          590 -163 38 115 28 -18 33 380 28 209 47 callsubr
          hintmask 0010010010000000
          36 callsubr
          hintmask 0101101110000000
          -22 callsubr
          hintmask 0010000000000000
          49 callgsubr
          hintmask 0101001100000000
          -31 callsubr
          hintmask 1000000000000000
          85 -500 -28 callgsubr
        </CharString>
        <CharString name="dollar">
          531 310 94 -94 102 -94 94 hstem
          59 54 136 33 135 54 cntrmask 11100000
          471 196 rmoveto
          74 -38 48 -15 17 vhcurveto
          -46 49 -39 8 -51 12 rrcurveto
          266 vlineto
          65 -2 66 -28 21 -70 rrcurveto
          -3 1 -7 0 0 vvcurveto
          -26 -21 -18 -29 -31 25 -16 22 3 44 0 52 93 -67 76 -122 6 hvcurveto
          46 -33 -47 vlineto
          -119 -9 -71 -92 -90 vvcurveto
          -38 11 -49 45 -44 vhcurveto
          43 -43 39 -9 52 -11 rrcurveto
          -294 vlineto
          -95 4 -46 56 -13 54 rrcurveto
          -1 4 4 0 3 hhcurveto
          28 19 20 27 33 -27 14 -20 -3 -44 0 -52 -99 67 -83 123 -7 hvcurveto
          -46 33 47 vlineto
          115 10 74 95 100 vvcurveto
          -222 216 rmoveto
          -26 6 -110 23 101 vvcurveto
          64 57 57 79 7 vhcurveto
          168 -504 rmoveto
          -63 -47 -68 -88 -11 vhcurveto
          286 vlineto
          114 -23 21 -81 -40 vvcurveto
          endchar
        </CharString>
        <CharString name="dollar.oldstyle">
          649 -9 33 -30 33 -30 33 hstemhm
          59 54 -54 94 41 54 0 33 87 33 0 94 40 54 cntrmask 1110000000000000
          hintmask 1110000011000000
          589 183 rmoveto
          11 vlineto
          98 -85 73 -90 23 vhcurveto
          -15 4 2 -1 0 vvcurveto
          276 vlineto
          62 -11 61 -17 27 -68 rrcurveto
          -4 -3 1 -3 hhcurveto
          -26 -20 -21 -25 -28 19 -20 33 hvcurveto
          33 7 9 20 26 vvcurveto
          112 -100 49 -88 9 vhcurveto
          50 vlineto
          hintmask 1111001100000000
          -33 -47 -87 47 -33 -51 hlineto
          -74 -8 -86 -69 -19 -57 rrcurveto
          -7 -16 -3 -18 -17 vvcurveto
          hintmask 1110110000000000
          -83 65 -56 70 -27 vhcurveto
          17 -7 14 -5 23 -4 rrcurveto
          -303 vlineto
          -65 9 -64 31 -23 69 rrcurveto
          -1 3 3 0 4 hhcurveto
          29 18 23 22 23 -18 26 -28 -34 -14 -25 -26 -110 94 -68 95 -6 hvcurveto
          -52 vlineto
          hintmask 1111001101000000
          33 48 hlineto
          0 24 -2 16 18 29 3 0 vhcurveto
          -49 33 55 vlineto
          86 12 93 77 9 94 rrcurveto
          -221 216 rmoveto
          -87 20 rlineto
          251 87 vlineto
          -120 -243 rmoveto
          -57 16 -78 32 72 vvcurveto
          73 93 30 42 14 vhcurveto
          287 -496 rmoveto
          -69 -73 -54 -61 -11 vhcurveto
          262 vlineto
          55 -11 79 -49 -68 vvcurveto
          -167 -141 rmoveto
          -2 -17 -18 -1 -17 hhcurveto
          -12 -11 0 2 -12 hvcurveto
          299 vlineto
          87 -22 rlineto
          endchar
        </CharString>
        <CharString name="dong">
          590 -32 32 652 32 hstem
          526 35 rmoveto
          31 vlineto
          -64 -8 7 46 hvcurveto
          420 72 31 -72 124 vlineto
          -141 -10 rlineto
          -32 vlineto
          64 8 -6 -47 hvcurveto
          -29 -161 -31 161 -140 vlineto
          36 -34 -44 19 -50 hhcurveto
          -118 -106 -92 -123 -117 95 -97 120 56 47 27 33 31 hvcurveto
          -60 vlineto
          144 -41 rmoveto
          9 -7 7 -9 vhcurveto
          -461 hlineto
          37 callgsubr
          461 hlineto
          9 7 7 9 hvcurveto
          -144 169 rmoveto
          -18 0 -3 -14 -19 vhcurveto
          -38 -27 -44 -23 -44 hhcurveto
          -44 -38 23 35 -23 hvcurveto
          -25 37 -5 46 45 vvcurveto
          55 8 39 22 33 vhcurveto
          35 23 43 27 48 hhcurveto
          46 45 -23 -49 29 hvcurveto
          endchar
        </CharString>
        <CharString name="dotaccent">
          295 547 111 hstem
          112 callgsubr
          67 callsubr
          endchar
        </CharString>
        <CharString name="dotaccent.alt">
          295 112 callgsubr
          556 -100 callgsubr
        </CharString>
        <CharString name="dotaccent.cap">
          295 481 111 hstem
          112 callgsubr
          536 -100 callgsubr
        </CharString>
        <CharString name="dotlessi">
          -27 callsubr
          hstemhm
          45 73 0 73 hintmask 01010100
          -38 callsubr
          hintmask 01101000
          -146 -11 rlineto
          -33 vlineto
          64 9 -6 -49 hvcurveto
          -264 vlineto
          -45 -12 0 -64 vhcurveto
          hintmask 10000000
          -33 vlineto
          3 39 56 0 15 hhcurveto
          13 60 0 -3 35 hvcurveto
          endchar
        </CharString>
        <CharString name="dotlessj">
          44 callgsubr
          hstemhm
          -36 94 23 73 0 73 hintmask 01001000
          227 -13 callsubr
          hintmask 10110000
          -39 callsubr
          vhcurveto
          hintmask 00001000
          80 65 64 94 hvcurveto
          endchar
        </CharString>
        <CharString name="e">
          -30 callgsubr
          hstem
          54 callgsubr
          vstem
          -105 callsubr
          endchar
        </CharString>
        <CharString name="eacute">
          -30 callgsubr
          82 -21 191 -88 callgsubr
          -5 404 -90 callsubr
        </CharString>
        <CharString name="ebreve">
          -30 callgsubr
          69 44 132 -88 callgsubr
          24 437 -98 callsubr
          endchar
        </CharString>
        <CharString name="ecaron">
          -30 callgsubr
          90 -21 176 -88 callgsubr
          15 423 -54 callsubr
        </CharString>
        <CharString name="ecircumflex">
          -30 callgsubr
          90 -21 176 -88 callgsubr
          15 275 -62 callsubr
          endchar
        </CharString>
        <CharString name="ecircumflexacute">
          -30 callgsubr
          90 -21 318 -88 callgsubr
          14 277 -92 callgsubr
          -31 271 -103 callsubr
        </CharString>
        <CharString name="ecircumflexdotbelow">
          -30 callgsubr
          90 -21 176 -20 hstemhm
          30 89 63 110 81 68 hintmask 11111101
          -105 callsubr
          15 275 -62 callsubr
          hintmask 00000010
          -83 -660 -100 callgsubr
        </CharString>
        <CharString name="ecircumflexgrave">
          -30 callgsubr
          90 -21 133 -88 callgsubr
          14 277 -62 callgsubr
        </CharString>
        <CharString name="ecircumflexhookabove">
          -30 callgsubr
          90 -21 338 -92 callsubr
          hintmask 00011010
          14 277 -92 callgsubr
          68 272 -107 callgsubr
        </CharString>
        <CharString name="ecircumflextilde">
          -30 callgsubr
          90 -21 173 54 -9 54 41 callsubr
          hintmask 11100011
          -105 callsubr
          hintmask 00010100
          14 277 -92 callgsubr
          37 253 rmoveto
          -20 19 rlineto
          hintmask 00001000
          -76 callgsubr
          hintmask 00000100
          -77 callsubr
          hintmask 00001000
          20 -19 rlineto
          hintmask 00000100
          -77 callgsubr
          hintmask 00001000
          -80 callgsubr
        </CharString>
        <CharString name="edblgrave">
          -30 callgsubr
          83 -21 189 -88 callgsubr
          -6 270 -93 callgsubr
        </CharString>
        <CharString name="edieresis">
          -30 callgsubr
          107 100 hstemhm
          30 89 -23 99 82 99 -3 68 hintmask 11101001
          -105 callsubr
          hintmask 00010110
          -178 348 -57 callsubr
        </CharString>
        <CharString name="edotaccent">
          -30 callgsubr
          101 111 hstemhm
          30 89 63 110 81 68 hintmask 11101010
          -105 callsubr
          hintmask 00010100
          -81 348 -100 callgsubr
        </CharString>
        <CharString name="edotbelow">
          -30 callgsubr
          hstemhm
          30 89 63 110 81 68 hintmask 11110100
          -105 callsubr
          hintmask 00001000
          -81 -399 -100 callgsubr
        </CharString>
        <CharString name="egrave">
          -30 callgsubr
          82 -21 191 -88 callgsubr
          -72 276 -61 callsubr
        </CharString>
        <CharString name="ehookabove">
          -30 callgsubr
          75 -21 205 -88 callgsubr
          -34 385 -107 callgsubr
        </CharString>
        <CharString name="eight">
          531 -21 30 630 26 hstemhm
          44 41 callgsubr
          486 -72 callsubr
        </CharString>
        <CharString name="eight.oldstyle">
          600 -21 30 630 26 hstemhm
          79 41 callgsubr
          521 -72 callsubr
        </CharString>
        <CharString name="eight.prop">
          600 -21 30 630 26 hstemhm
          79 41 callgsubr
          521 -72 callsubr
        </CharString>
</ttFont>
